<svg width="113" height="202" viewBox="0 0 113 202" fill="none" xmlns="http://www.w3.org/2000/svg">
<g clip-path="url(#clip0_1_2577)">
<path d="M112.031 120.176C111.86 119.897 111.004 120.225 110.712 120.225C108.316 120.224 105.941 119.776 103.709 118.904C107.59 119.991 110.793 119.753 111.676 118.19C111.848 117.879 111.936 117.529 111.932 117.174C109.214 117.323 106.487 117.152 103.808 116.667C104.674 116.543 105.505 116.237 106.244 115.768C107.509 114.95 108.684 113.522 108.379 113.023C108.299 112.902 108.088 112.78 107.482 112.87C106.032 113.53 104.532 114.074 102.996 114.497C101.018 115.045 100.17 115.063 99.4075 114.753C98.7042 114.458 98.1067 113.957 97.6938 113.315C94.7511 109.146 90.3145 106.248 87.0039 102.366C83.3927 98.1246 76.7536 90.4058 67.8535 83.5227C65.1619 81.456 62.8741 79.9059 61.3354 78.913V75.5568L56.7957 75.449L51.6952 75.5568V78.913C50.1565 79.9059 47.8508 81.456 45.1772 83.5227C36.2771 90.4058 29.6604 98.1246 26.0268 102.366C22.7162 106.248 18.2796 109.146 15.3368 113.315C14.9216 113.955 14.3248 114.455 13.6232 114.753C12.8471 115.063 11.9993 115.045 10.0345 114.497C8.49829 114.075 6.99821 113.531 5.54853 112.87C4.92499 112.78 4.71415 112.902 4.65135 113.023C4.3463 113.508 5.52161 114.95 6.78664 115.768C7.52594 116.237 8.3562 116.543 9.2225 116.667C6.54347 117.152 3.817 117.323 1.0985 117.174C1.09257 117.53 1.1808 117.88 1.35419 118.19C2.25138 119.753 5.44087 119.987 9.32119 118.904C7.08917 119.776 4.71449 120.224 2.31867 120.225C2.02708 120.225 1.17027 119.897 0.999805 120.176C0.82934 120.454 1.32279 121.011 1.6054 121.294C3.03641 122.701 5.64273 122.418 8.66176 122.054C9.78324 121.919 10.6759 121.753 11.2008 121.649C10.0326 122.155 8.89691 122.732 7.80046 123.379C5.2076 124.907 5.1762 125.455 5.21209 125.666C5.28835 126.147 5.97469 126.394 6.07338 126.425C7.13655 126.794 8.19522 126.039 9.77875 125.077C10.7657 124.466 12.1653 123.626 13.9417 122.687L15.4131 124.821C16.5615 126.488 16.8979 126.991 17.5439 127.113C17.8372 127.184 18.1455 127.164 18.427 127.055C18.7086 126.946 18.9499 126.753 19.1184 126.502C19.3472 126.03 18.9121 125.271 18.7641 125.028C18.1899 124.075 17.674 122.287 18.0553 118.621L43.8404 96.8126C42.526 101.234 41.2924 106.081 40.2516 111.316C39.5294 115.054 38.9328 118.612 38.4931 122.027C38.0676 122.648 37.7039 123.311 37.4075 124.004C36.8372 125.381 36.5166 126.849 36.461 128.339C36.2681 131.215 36.7346 131.978 36.7661 134.948C36.7663 136.548 36.6538 138.145 36.4296 139.729C36.0528 142.905 35.1646 159.992 33.9938 172.262C33.6708 175.649 33.0966 180.798 32.1635 187.088C32.2173 187.686 32.1904 188.517 31.6566 189.02C31.2439 189.406 30.7594 189.362 29.6245 189.424C28.1769 189.451 26.741 189.69 25.3628 190.134C24.4163 190.485 23.8511 190.691 23.5371 191.253C22.9449 192.309 23.5864 193.949 24.4343 194.915C25.5288 196.168 26.3004 195.62 28.9202 197.354C29.7538 197.892 30.5361 198.506 31.2573 199.187C32.2308 200.122 32.2442 200.387 32.8812 200.814C33.9144 201.443 35.1336 201.694 36.3309 201.524C37.585 201.4 38.7631 200.864 39.6819 200.001C40.6672 199.02 41.2782 197.724 41.409 196.339C41.5974 194.497 40.7944 193.944 40.5118 191.253C40.3996 190.139 40.3996 189.016 40.5118 187.901C40.8393 183.355 43.1271 179.172 43.3559 178.749C44.9843 175.721 48.4429 165.792 56.5535 134.719C56.1049 135.38 57.002 135.38 56.5535 134.719C64.6595 165.787 68.1182 175.717 69.7466 178.749C69.9753 179.172 72.2632 183.355 72.5906 187.901C72.7028 189.016 72.7028 190.139 72.5906 191.253C72.2901 193.949 71.4871 194.497 71.6934 196.339C71.8223 197.725 72.4337 199.021 73.4205 200.001C74.3389 200.865 75.5172 201.401 76.7715 201.524C77.9688 201.694 79.1879 201.443 80.2212 200.814C80.8582 200.387 80.8716 200.122 81.8451 199.187C82.5452 198.509 83.3049 197.896 84.115 197.354C86.7168 195.62 87.4884 196.168 88.6009 194.915C89.4622 193.931 90.1037 192.309 89.4981 191.253C89.184 190.691 88.6009 190.485 87.6723 190.134C86.2942 189.69 84.8583 189.451 83.4107 189.424C82.2668 189.362 81.7912 189.424 81.3785 189.02C80.8447 188.517 80.8178 187.672 80.8716 187.088C79.9206 180.762 79.3689 175.627 79.0414 172.262C77.8706 159.992 76.9823 142.905 76.6055 139.729C76.3768 138.146 76.2644 136.548 76.2691 134.948C76.3005 131.978 76.767 131.215 76.5741 128.339C76.5163 126.849 76.1959 125.382 75.6276 124.004C75.3271 123.315 74.9637 122.657 74.542 122.036C74.0934 118.639 73.5282 115.063 72.7835 111.325C71.7428 106.09 70.5092 101.243 69.1948 96.8216L94.9799 118.612C95.3612 122.278 94.8453 124.066 94.2711 125.019C94.123 125.262 93.6655 125.958 93.9167 126.493C94.1679 127.027 94.8812 127.216 95.4913 127.104C96.1013 126.991 96.4737 126.479 97.6221 124.812L99.0934 122.678C100.888 123.617 102.269 124.475 103.256 125.068C104.84 126.052 105.899 126.807 106.962 126.416C107.06 126.385 107.747 126.138 107.823 125.657C107.859 125.446 107.823 124.898 105.235 123.37C104.138 122.724 103.002 122.146 101.834 121.64C102.359 121.744 103.252 121.91 104.373 122.045C107.374 122.409 109.999 122.692 111.43 121.285C111.708 121.011 112.201 120.409 112.031 120.176Z" fill="#FAC497"/>
<path d="M38.2692 121.375C43.5177 121.434 49.5288 122.898 54.9658 122.84C61.1115 122.777 68.5222 121.133 74.4257 120.93C74.5109 121.789 76.1169 124.727 76.1169 125.594C76.0667 132.714 76.3916 139.832 77.0903 146.917C75.8432 146.302 70.7472 144.788 66.9118 145.071C64.3602 145.201 61.9099 146.112 59.8913 147.681C58.5814 143.224 57.7605 140.043 56.4461 135.595C55.2349 140.137 54.0148 143.867 52.8036 148.409C49.9091 147.147 46.8374 146.341 43.6971 146.019C41.0792 145.812 38.4453 146.064 35.9141 146.764C36.5197 140.088 36.5555 133.358 36.5376 126.816C36.744 124.839 37.6411 123.172 38.2692 121.375Z" fill="#F9F5F2"/>
<path d="M45.3023 83.1947L35.043 92.3153C35.3472 92.4938 35.667 92.6442 35.9985 92.7646C37.4743 93.2947 39.2059 93.2543 43.8578 91.3628C48.7116 89.3859 49.1691 88.4739 49.3396 88.0291C49.38 87.9302 50.0843 85.9983 48.891 84.4662C48.4618 83.9513 47.9021 83.5615 47.2707 83.3378C46.6392 83.1141 45.9593 83.0647 45.3023 83.1947Z" fill="#EE779A"/>
<path d="M52.4436 90.2753C52.3561 89.9409 52.1398 89.6549 51.8422 89.4797C51.5446 89.3046 51.1899 89.2547 50.8556 89.3408C50.6942 89.387 50.5423 89.4616 50.407 89.561C49.5547 90.2079 48.6769 90.8549 47.7738 91.5019C47.3566 91.7984 46.9439 92.0905 46.5312 92.3735C46.3705 92.4833 46.2366 92.6279 46.1395 92.7967C46.0424 92.9656 45.9846 93.1542 45.9704 93.3485C45.8942 94.4717 45.7506 95.9948 45.477 97.7874C45.2886 99.0095 45.0284 100.483 44.7009 102.28C44.0325 105.947 43.8037 106.886 44.36 108.058C44.7436 108.869 45.3506 109.553 46.1095 110.031C46.742 110.421 47.4484 110.676 48.1841 110.78C48.9199 110.883 49.6691 110.833 50.3846 110.633C51.2299 110.392 51.9942 109.926 52.5961 109.285C53.7042 108.09 53.8343 106.567 53.8343 103.709C53.8343 99.2162 53.8343 96.826 53.0986 93.1148C52.8922 92.05 52.6589 91.102 52.4436 90.2753Z" fill="#EE779A"/>
<path d="M51.5747 76.0644C51.6361 77.0665 51.6121 78.0721 51.5029 79.0701L46.6133 82.2915C47.5878 82.1735 48.5764 82.3017 49.4888 82.6644C49.9373 82.8531 51.7317 83.6529 53.3467 87.3415C54.9616 91.0302 55.141 94.5975 55.2173 98.5737C55.2621 100.479 55.2173 102.047 55.141 103.067C55.0762 103.49 55.1065 103.923 55.2299 104.333C55.3533 104.744 55.5666 105.122 55.8543 105.439C55.9575 105.542 56.5765 106.158 57.07 106.045C57.6576 105.911 58.2498 104.698 58.187 99.7553C57.846 93.1059 57.68 87.9346 57.7114 83.7203C57.8189 81.7733 57.3741 79.8356 56.4285 78.1311C55.0513 75.8128 52.5078 74.721 51.8708 75.1838C51.6869 75.3006 51.5478 75.5207 51.5747 76.0644Z" fill="#EE779A"/>
<path d="M67.6135 83.1945L77.8638 92.3151C77.5592 92.4928 77.2394 92.6432 76.9083 92.7644C75.4325 93.2945 73.7009 93.2541 69.049 91.3626C64.1997 89.4082 63.7511 88.4737 63.5672 88.0289C63.5268 87.93 62.8225 85.9981 64.0158 84.466C64.4458 83.9496 65.007 83.5589 65.6402 83.3351C66.2733 83.1113 66.9551 83.0628 67.6135 83.1945Z" fill="#EE779A"/>
<path d="M60.4783 90.2755C60.5639 89.9428 60.7777 89.6576 61.0728 89.4824C61.3679 89.3073 61.7204 89.2564 62.0529 89.341C62.2148 89.3857 62.367 89.4604 62.5015 89.5611C63.3538 90.2081 64.2285 90.8551 65.1347 91.5021C65.5519 91.7986 65.9646 92.0906 66.3773 92.3737C66.5367 92.4848 66.6696 92.6298 66.7665 92.7984C66.8634 92.9669 66.922 93.1548 66.938 93.3486C67.0143 94.4719 67.1578 95.9949 67.4315 97.7876C67.6199 99.0097 67.8801 100.483 68.2075 102.28C68.8759 105.947 69.1047 106.886 68.5485 108.058C68.1649 108.869 67.5579 109.554 66.799 110.031C66.1664 110.421 65.4601 110.676 64.7243 110.78C63.9886 110.883 63.2394 110.833 62.5239 110.633C61.6788 110.391 60.9147 109.926 60.3123 109.285C59.2043 108.09 59.0742 106.567 59.0742 103.709C59.0742 99.2163 59.0742 96.8261 59.8099 93.115C60.0297 92.0502 60.2585 91.1022 60.4783 90.2755Z" fill="#EE779A"/>
<path d="M61.345 76.0644C61.2814 77.0665 61.3054 78.0722 61.4168 79.0701L66.3244 82.2915C65.3498 82.1735 64.3613 82.3017 63.4489 82.6644C63.0003 82.8531 61.2284 83.6529 59.591 87.3415C57.9536 91.0302 57.7966 94.5975 57.7204 98.5737C57.6755 100.479 57.7204 102.047 57.7966 103.067C57.8611 103.49 57.831 103.922 57.7084 104.332C57.5858 104.743 57.3739 105.121 57.0879 105.439C56.9802 105.542 56.3611 106.158 55.8677 106.045C55.28 105.911 54.6879 104.698 54.7507 99.7553C55.0916 93.1059 55.2576 87.9346 55.2262 83.7203C55.1188 81.7733 55.5636 79.8356 56.5092 78.1311C57.8863 75.8128 60.4299 74.721 61.0669 75.1838C61.2328 75.3006 61.3584 75.5207 61.345 76.0644Z" fill="#EE779A"/>
<path d="M61.3192 75.5388V78.8995C62.8579 79.8879 65.1636 81.438 67.8372 83.5047C76.7373 90.3878 83.3765 98.1066 86.9876 102.348C90.2982 106.23 94.7348 109.128 97.6776 113.297C98.0904 113.939 98.6879 114.44 99.3912 114.735C100.167 115.045 101.015 115.027 102.98 114.479C104.516 114.056 106.016 113.512 107.466 112.852C108.089 112.762 108.3 112.884 108.363 113.005C108.668 113.49 107.493 114.932 106.228 115.75C105.488 116.219 104.658 116.525 103.792 116.649C106.471 117.134 109.197 117.305 111.916 117.156C111.92 117.511 111.832 117.861 111.66 118.172C110.763 119.735 107.574 119.969 103.693 118.886C105.925 119.758 108.3 120.206 110.696 120.207C110.987 120.207 111.844 119.879 112.015 120.158C112.185 120.436 111.692 120.993 111.409 121.276C109.978 122.683 107.372 122.4 104.353 122.036C103.231 121.901 102.338 121.735 101.814 121.631C102.981 122.137 104.117 122.715 105.214 123.361C107.807 124.889 107.838 125.437 107.802 125.648C107.726 126.129 107.04 126.376 106.941 126.407C105.878 126.776 104.819 126.021 103.236 125.059C102.249 124.448 100.849 123.608 99.0727 122.669L97.6013 124.803C96.4529 126.47 96.1165 126.973 95.4705 127.095C95.1772 127.166 94.8689 127.146 94.5874 127.037C94.3058 126.928 94.0645 126.735 93.896 126.484C93.6672 126.034 94.1023 125.253 94.2503 125.01C94.8245 124.057 95.3404 122.269 94.9591 118.603L69.174 96.7946C70.4884 101.216 71.722 106.063 72.7628 111.298C73.5074 115.018 74.0682 118.612 74.5168 122.009C74.9385 122.63 75.3019 123.288 75.6024 123.977C76.1707 125.355 76.4911 126.822 76.5489 128.312C76.7418 131.188 76.2753 131.951 76.2439 134.921C76.2392 136.521 76.3516 138.119 76.5803 139.702C76.9571 142.878 77.8453 159.965 79.0162 172.235C79.3436 175.622 79.9133 180.771 80.8464 187.061C80.7926 187.659 80.8195 188.49 81.3533 188.993C81.766 189.379 82.2505 189.335 83.3854 189.397C84.833 189.424 86.2689 189.663 87.6471 190.107C88.5936 190.458 89.1588 190.664 89.4728 191.226C90.065 192.282 89.4235 193.922 88.5756 194.888C87.4811 196.141 86.7095 195.593 84.0897 197.327C83.2554 197.864 82.4729 198.478 81.7526 199.16C80.7791 200.095 80.7657 200.36 80.1287 200.787C79.0954 201.416 77.8763 201.667 76.679 201.497C75.4247 201.374 74.2464 200.838 73.328 199.974C72.3412 198.994 71.7298 197.698 71.6009 196.312C71.4125 194.47 72.2155 193.917 72.4981 191.226C72.6103 190.112 72.6103 188.989 72.4981 187.874C72.1706 183.328 69.8828 179.145 69.654 178.722C68.0256 175.694 64.567 165.765 56.4609 134.692C57.2092 135.829 58.2182 136.77 59.4037 137.437C60.9127 138.331 62.6742 138.7 64.4145 138.489C67.8911 138.003 69.7213 135.168 69.995 134.728" stroke="black" stroke-linecap="round" stroke-linejoin="round"/>
<path d="M51.6807 75.5388V78.8995C50.1421 79.8879 47.8363 81.438 45.1627 83.5047C36.2626 90.3878 29.6235 98.1066 26.0123 102.348C22.7017 106.23 18.2651 109.128 15.3044 113.297C14.8892 113.937 14.2924 114.437 13.5908 114.735C12.8147 115.045 11.9669 115.027 10.002 114.479C8.46588 114.057 6.9658 113.513 5.51612 112.852C4.89258 112.762 4.68174 112.884 4.61894 113.005C4.31389 113.49 5.4892 114.932 6.75423 115.75C7.49354 116.219 8.32379 116.525 9.19009 116.649C6.51694 117.133 3.79657 117.303 1.08403 117.156C1.07969 117.509 1.16787 117.856 1.33973 118.163C2.23691 119.726 5.4264 119.96 9.30672 118.877C7.07248 119.753 4.69464 120.204 2.29523 120.207C2.00364 120.207 1.14683 119.879 0.976368 120.158C0.805903 120.436 1.29935 120.993 1.58197 121.276C3.01298 122.683 5.6193 122.4 8.63832 122.036C9.7598 121.901 10.6525 121.735 11.1774 121.631C10.0091 122.137 8.87348 122.714 7.77702 123.361C5.18416 124.889 5.15276 125.437 5.18865 125.648C5.26491 126.129 5.95125 126.376 6.04995 126.407C7.11311 126.776 8.17179 126.021 9.75532 125.059C10.7422 124.448 12.1418 123.608 13.9183 122.669L15.3896 124.803C16.538 126.47 16.8745 126.973 17.5204 127.095C17.8138 127.166 18.122 127.146 18.4036 127.037C18.6852 126.928 18.9265 126.735 19.095 126.484C19.3238 126.034 18.8887 125.253 18.7406 125.01C18.1664 124.057 17.6505 122.269 18.0318 118.603L43.8169 96.7946C42.5025 101.216 41.2689 106.063 40.2282 111.298C39.497 115.018 38.9183 118.612 38.4787 122.009C38.0536 122.628 37.69 123.287 37.3931 123.977C36.8227 125.354 36.5022 126.822 36.4466 128.312C36.2537 131.188 36.7202 131.951 36.7516 134.921C36.7518 136.521 36.6394 138.118 36.4151 139.702C36.0383 142.878 35.1501 159.965 33.9793 172.235C33.6563 175.622 33.0821 180.771 32.149 187.061C32.2029 187.659 32.176 188.49 31.6421 188.993C31.2294 189.379 30.7449 189.335 29.61 189.397C28.1624 189.424 26.7265 189.663 25.3484 190.107C24.4019 190.458 23.8366 190.664 23.5226 191.226C22.9305 192.282 23.572 193.922 24.4198 194.888C25.5144 196.141 26.2859 195.593 28.9057 197.327C29.7393 197.865 30.5217 198.479 31.2429 199.16C32.2163 200.095 32.2298 200.36 32.8668 200.787C33.8999 201.416 35.1192 201.667 36.3165 201.497C37.5706 201.373 38.7487 200.838 39.6674 199.974C40.6527 198.993 41.2638 197.697 41.3945 196.312C41.5829 194.47 40.78 193.917 40.4973 191.226C40.3852 190.112 40.3852 188.989 40.4973 187.874C40.8248 183.31 43.1171 179.145 43.3414 178.722C44.9698 175.694 48.4284 165.765 56.539 134.692C55.7866 135.827 54.7766 136.768 53.5917 137.437C52.0826 138.331 50.3212 138.7 48.581 138.489C45.1044 138.003 43.2741 135.168 43.0005 134.728" stroke="black" stroke-linecap="round" stroke-linejoin="round"/>
<path d="M62.1283 75.4534C65.3671 75.6961 74.3479 75.7679 82.6514 70.6146C86.3352 68.3275 89.5196 65.3184 92.0135 61.7681C92.5646 62.5207 93.2585 63.1572 94.0553 63.641C94.8522 64.1249 95.7364 64.4468 96.6575 64.5883C97.5787 64.7297 98.5186 64.688 99.4236 64.4654C100.329 64.2429 101.181 63.8438 101.932 63.2912L102.062 63.1924C106.238 60.3079 107.36 53.6899 105.108 50.163C104.712 49.5247 104.181 48.9817 103.551 48.5725C100.752 46.8203 97.0198 48.7477 96.5084 49.0218C97.1185 46.7754 100.972 31.6299 90.2281 18.0209C83.1717 9.09356 73.2668 6.42928 69.0994 5.30606C65.4748 4.3356 57.6244 2.32279 47.9797 4.89721C41.3249 6.65978 35.2781 10.2115 30.4936 15.1679C22.3741 23.8841 21.266 34.0066 20.952 37.3358C20.5963 41.1755 20.8095 45.0468 21.5845 48.8241C19.2115 47.4403 16.4257 47.2516 14.3757 48.5186C10.926 50.6437 11.5361 55.4646 11.6348 56.2464C11.8334 57.7545 12.3933 59.1922 13.2665 60.4369C14.1398 61.6815 15.3006 62.6963 16.65 63.3945C17.5472 63.8438 20.1042 65.1378 22.5669 63.9741C23.5992 63.4623 24.4495 62.6451 25.0028 61.6333C26.9497 64.019 29.9373 67.8784 34.9526 70.682C40.247 73.6204 46.1683 75.2429 52.2189 75.413L62.1283 75.4534Z" fill="#FAC497" stroke="black" stroke-linecap="round" stroke-linejoin="round"/>
<path d="M24.9999 61.7096C23.3369 58.4944 22.3203 54.9835 22.0078 51.376L24.9999 61.7096Z" fill="#FAC497"/>
<path d="M24.9999 61.7096C23.3369 58.4944 22.3203 54.9835 22.0078 51.376" stroke="black" stroke-linecap="round" stroke-linejoin="round"/>
<path d="M92.0508 61.7096C93.7201 58.4966 94.7385 54.9847 95.0474 51.376L92.0508 61.7096Z" fill="#FAC497"/>
<path d="M92.0508 61.7096C93.7201 58.4966 94.7385 54.9847 95.0474 51.376" stroke="black" stroke-linecap="round" stroke-linejoin="round"/>
<path d="M56.2979 1.34778C53.2429 0.750224 45.7156 -0.283139 37.605 3.24377C27.9154 7.44911 23.6314 15.415 21.7966 18.8341C16.6199 28.4668 17.1716 37.4436 17.5485 43.3787C18.1047 52.4408 18.8494 64.5941 26.4844 68.732C33.0563 72.2904 39.3635 66.9978 48.4654 71.576C51.5463 73.1664 54.2249 75.4389 56.2979 78.221C59.438 73.9078 62.8742 72.0747 64.8211 71.266C68.0913 69.9181 70.9982 69.8058 76.6639 69.68C83.8728 69.5228 84.5457 70.3764 86.6989 69.9496C94.7512 68.3456 100.439 53.2945 100.444 40.9391C100.444 27.703 93.9168 9.43946 77.4849 2.84391C68.7598 -0.647062 60.5191 0.449201 56.2979 1.34778Z" fill="#683B13" stroke="black" stroke-linecap="round" stroke-linejoin="round"/>
<path d="M53.0622 6.77973C48.5212 6.74753 44.046 7.86653 40.053 10.0326C29.7623 15.7251 25.559 27.6537 25.6218 37.0797C25.7331 43.3793 27.6346 49.5167 31.1036 54.7727" fill="#683B13"/>
<path d="M53.0622 6.77973C48.5212 6.74753 44.046 7.86653 40.053 10.0326C29.7623 15.7251 25.559 27.6537 25.6218 37.0797C25.7331 43.3793 27.6346 49.5167 31.1036 54.7727" stroke="black" stroke-linecap="round" stroke-linejoin="round"/>
<path d="M50.4262 15.9316C47.8557 17.9714 43.0289 22.361 40.6782 29.5541C35.6002 45.1129 46.9899 58.7308 47.7884 59.6564" fill="#683B13"/>
<path d="M50.4262 15.9316C47.8557 17.9714 43.0289 22.361 40.6782 29.5541C35.6002 45.1129 46.9899 58.7308 47.7884 59.6564" stroke="black" stroke-linecap="round" stroke-linejoin="round"/>
<path d="M59.9375 6.77973C64.4784 6.74753 68.9537 7.86653 72.9467 10.0326C83.2374 15.743 87.4407 27.6537 87.3644 37.0797C87.2531 43.3793 85.3516 49.5167 81.8826 54.7727" fill="#683B13"/>
<path d="M59.9375 6.77973C64.4784 6.74753 68.9537 7.86653 72.9467 10.0326C83.2374 15.743 87.4407 27.6537 87.3644 37.0797C87.2531 43.3793 85.3516 49.5167 81.8826 54.7727" stroke="black" stroke-linecap="round" stroke-linejoin="round"/>
<path d="M62.5781 15.9316C65.1486 17.9489 69.9754 22.361 72.326 29.5541C77.4041 45.1129 66.0143 58.7308 65.2158 59.6564" fill="#683B13"/>
<path d="M62.5781 15.9316C65.1486 17.9489 69.9754 22.361 72.326 29.5541C77.4041 45.1129 66.0143 58.7308 65.2158 59.6564" stroke="black" stroke-linecap="round" stroke-linejoin="round"/>
</g>
<defs>
<clipPath id="clip0_1_2577">
<rect width="112" height="202" fill="white" transform="translate(0.5)"/>
</clipPath>
</defs>
</svg>
