<svg xmlns="http://www.w3.org/2000/svg" width="113" height="202" fill="none"><g clip-path="url(#a)"><path fill="#FAC497" d="M112.03 120.18c-.17-.28-1.03.04-1.32.04-2.4 0-4.77-.44-7-1.32 3.88 1.1 7.08.85 7.97-.71.17-.31.26-.66.25-1.02-2.72.15-5.44-.02-8.12-.5.86-.13 1.7-.43 2.43-.9 1.27-.82 2.44-2.25 2.14-2.75-.08-.12-.3-.24-.9-.15-1.45.66-2.95 1.2-4.48 1.63-1.98.55-2.83.56-3.6.25-.7-.3-1.3-.8-1.7-1.44-2.95-4.16-7.39-7.06-10.7-10.94-3.6-4.25-10.25-11.96-19.15-18.85a98.56 98.56 0 0 0-6.51-4.6v-3.36l-4.54-.11-5.1.1v3.36c-1.54 1-3.85 2.55-6.52 4.61-8.9 6.89-15.52 14.6-19.15 18.85-3.31 3.88-7.75 6.78-10.7 10.94a3.82 3.82 0 0 1-1.7 1.44c-.78.31-1.63.3-3.6-.25a29.91 29.91 0 0 1-4.48-1.63c-.63-.09-.84.03-.9.15-.3.49.87 1.93 2.14 2.75.74.47 1.57.77 2.43.9-2.68.48-5.4.65-8.12.5 0 .36.08.71.25 1.02.9 1.56 4.1 1.8 7.97.71-2.23.88-4.6 1.32-7 1.32-.3 0-1.15-.32-1.32-.04-.17.27.32.83.6 1.11 1.44 1.41 4.04 1.13 7.06.76 1.12-.13 2.02-.3 2.54-.4a30.7 30.7 0 0 0-3.4 1.73c-2.6 1.53-2.62 2.08-2.59 2.29.08.48.76.72.86.75 1.07.37 2.13-.38 3.7-1.34a69.5 69.5 0 0 1 4.17-2.4l1.47 2.14c1.15 1.67 1.49 2.17 2.13 2.3a1.48 1.48 0 0 0 1.58-.62c.23-.47-.2-1.23-.36-1.47-.57-.95-1.09-2.74-.7-6.4L43.84 96.8a161.28 161.28 0 0 0-5.35 25.22 11.5 11.5 0 0 0-2.03 6.3c-.2 2.88.27 3.65.3 6.62 0 1.6-.1 3.2-.33 4.78-.38 3.18-1.27 20.26-2.44 32.53-.32 3.39-.9 8.54-1.83 14.83.06.6.03 1.43-.5 1.93-.42.39-.9.34-2.04.4a14.8 14.8 0 0 0-4.26.71c-.94.36-1.5.56-1.82 1.12-.6 1.06.05 2.7.9 3.66 1.09 1.26 1.86.71 4.48 2.44a16.2 16.2 0 0 1 2.34 1.84c.97.93.98 1.2 1.62 1.62 1.03.63 2.25.88 3.45.71a5.72 5.72 0 0 0 3.35-1.52 5.96 5.96 0 0 0 1.73-3.66c.19-1.84-.62-2.4-.9-5.09a16.73 16.73 0 0 1 0-3.35c.33-4.55 2.62-8.73 2.85-9.15 1.62-3.03 5.08-12.96 13.2-44.03-.46.66.44.66 0 0 8.1 31.07 11.56 41 13.19 44.03.23.42 2.51 4.6 2.84 9.15.11 1.12.11 2.24 0 3.35-.3 2.7-1.1 3.25-.9 5.09a5.94 5.94 0 0 0 1.73 3.66 5.7 5.7 0 0 0 3.35 1.52c1.2.17 2.42-.08 3.45-.7.64-.43.65-.7 1.63-1.63.7-.68 1.45-1.3 2.27-1.84 2.6-1.73 3.37-1.18 4.48-2.44.86-.98 1.5-2.6.9-3.66-.32-.56-.9-.76-1.83-1.12a14.8 14.8 0 0 0-4.26-.7c-1.14-.07-1.62 0-2.03-.41-.54-.5-.56-1.35-.5-1.93-.96-6.33-1.51-11.46-1.84-14.83-1.17-12.27-2.06-29.35-2.43-32.53a32.76 32.76 0 0 1-.34-4.78c.03-2.97.5-3.73.3-6.61a12.65 12.65 0 0 0-.94-4.34c-.3-.69-.67-1.34-1.09-1.96a161.24 161.24 0 0 0-5.35-25.21l25.79 21.78c.38 3.67-.13 5.46-.7 6.4-.16.25-.61.95-.36 1.48.25.54.96.73 1.57.61.61-.1.98-.62 2.13-2.29l1.47-2.13c1.8.94 3.18 1.8 4.17 2.39 1.58.98 2.64 1.74 3.7 1.35.1-.03.79-.28.86-.76.04-.21 0-.76-2.58-2.29a30.95 30.95 0 0 0-3.4-1.73c.52.1 1.41.27 2.53.4 3 .37 5.63.65 7.06-.76.28-.27.77-.87.6-1.1Z"/><path fill="#F9F5F2" d="M38.27 121.38c5.25.05 11.26 1.52 16.7 1.46 6.14-.06 13.55-1.7 19.46-1.91.08.86 1.69 3.8 1.69 4.66-.05 7.12.27 14.24.97 21.33-1.25-.62-6.34-2.13-10.18-1.85-2.55.13-5 1.04-7.02 2.61-1.3-4.46-2.13-7.64-3.44-12.09-1.22 4.55-2.44 8.28-3.65 12.82a30.6 30.6 0 0 0-9.1-2.4c-2.62-.2-5.25.05-7.79.75.61-6.67.65-13.4.63-19.94.2-1.98 1.1-3.65 1.73-5.44Z"/><path fill="#EE779A" d="m45.3 83.2-10.26 9.12c.3.17.63.32.96.44 1.47.53 3.2.5 7.86-1.4 4.85-1.97 5.3-2.89 5.48-3.33.04-.1.74-2.03-.45-3.56a3.73 3.73 0 0 0-3.59-1.28ZM52.44 90.28a1.3 1.3 0 0 0-1.58-.94c-.17.05-.32.12-.45.22a118.65 118.65 0 0 1-3.88 2.81 1.3 1.3 0 0 0-.56.98 53.7 53.7 0 0 1-.5 4.44c-.18 1.22-.44 2.7-.77 4.49-.67 3.67-.9 4.6-.34 5.78.38.8 1 1.5 1.75 1.97a5.4 5.4 0 0 0 4.27.6c.85-.24 1.61-.7 2.22-1.34 1.1-1.2 1.23-2.72 1.23-5.58 0-4.5 0-6.88-.73-10.6-.2-1.06-.44-2-.66-2.83Z"/><path fill="#EE779A" d="M51.57 76.06c.07 1 .04 2.01-.07 3.01l-4.89 3.22c.98-.12 1.97.01 2.88.37.45.2 2.24 1 3.86 4.68 1.61 3.69 1.8 7.26 1.87 11.23.04 1.9 0 3.48-.08 4.5a2.88 2.88 0 0 0 .71 2.37c.1.1.73.72 1.22.6.59-.13 1.18-1.34 1.12-6.28-.34-6.65-.51-11.83-.48-16.04.1-1.95-.34-3.88-1.28-5.59-1.38-2.32-3.92-3.4-4.56-2.95-.18.12-.32.34-.3.88ZM67.61 83.2l10.25 9.12c-.3.17-.62.32-.95.44-1.48.53-3.2.5-7.86-1.4-4.85-1.95-5.3-2.89-5.48-3.33-.04-.1-.75-2.03.45-3.56a3.73 3.73 0 0 1 3.6-1.28ZM60.48 90.28a1.3 1.3 0 0 1 1.57-.94c.16.05.32.12.45.22a111.53 111.53 0 0 0 3.88 2.81 1.32 1.32 0 0 1 .56.98c.07 1.12.22 2.64.5 4.44.18 1.22.44 2.7.77 4.49.67 3.67.9 4.6.34 5.78-.39.8-1 1.5-1.75 1.97a5.4 5.4 0 0 1-4.28.6c-.84-.24-1.6-.7-2.2-1.34-1.12-1.2-1.25-2.72-1.25-5.58 0-4.5 0-6.88.74-10.6.22-1.06.45-2 .67-2.83Z"/><path fill="#EE779A" d="M61.34 76.06c-.06 1-.03 2.01.08 3.01l4.9 3.22a5.87 5.87 0 0 0-2.87.37c-.45.2-2.22 1-3.86 4.68-1.64 3.69-1.8 7.26-1.87 11.23-.04 1.9 0 3.48.08 4.5a2.9 2.9 0 0 1-.71 2.37c-.11.1-.73.72-1.22.6-.59-.13-1.18-1.34-1.12-6.28.34-6.65.5-11.83.48-16.04-.11-1.95.33-3.88 1.28-5.59 1.38-2.32 3.92-3.4 4.56-2.95.16.12.29.34.27.88Z"/><path stroke="#000" stroke-linecap="round" stroke-linejoin="round" d="M61.32 75.54v3.36c1.54.99 3.84 2.54 6.52 4.6 8.9 6.89 15.54 14.6 19.15 18.85 3.3 3.88 7.74 6.78 10.69 10.95a3.77 3.77 0 0 0 1.71 1.44c.78.3 1.63.29 3.59-.26 1.54-.42 3.04-.97 4.49-1.63.62-.09.83.03.9.16.3.48-.88 1.92-2.14 2.74-.74.47-1.57.78-2.44.9 2.68.48 5.4.66 8.13.5 0 .36-.09.71-.26 1.02-.9 1.56-4.09 1.8-7.97.72 2.23.87 4.61 1.32 7 1.32.3 0 1.15-.33 1.33-.05.17.28-.33.83-.61 1.12-1.43 1.4-4.04 1.12-7.06.76-1.12-.14-2.01-.3-2.54-.4 1.17.5 2.3 1.08 3.4 1.72 2.6 1.53 2.63 2.08 2.6 2.29-.08.48-.77.73-.87.76-1.06.37-2.12-.39-3.7-1.35a69.58 69.58 0 0 0-4.17-2.4l-1.47 2.14c-1.15 1.67-1.48 2.17-2.13 2.3a1.48 1.48 0 0 1-1.57-.62c-.23-.45.2-1.23.35-1.47.57-.95 1.09-2.74.7-6.4L69.18 96.78a161.28 161.28 0 0 1 5.35 25.22c.42.62.78 1.28 1.08 1.97.57 1.38.9 2.84.95 4.33.2 2.88-.27 3.64-.3 6.61-.01 1.6.1 3.2.33 4.78.38 3.18 1.27 20.27 2.44 32.54.32 3.38.9 8.53 1.83 14.82-.06.6-.03 1.43.5 1.93.42.39.9.34 2.04.4 1.44.03 2.88.27 4.26.72.94.35 1.5.55 1.82 1.12.6 1.05-.05 2.7-.9 3.66-1.09 1.25-1.86.7-4.48 2.44-.83.53-1.62 1.15-2.34 1.83-.97.94-.98 1.2-1.62 1.63a5.22 5.22 0 0 1-3.45.7 5.7 5.7 0 0 1-3.35-1.52 5.94 5.94 0 0 1-1.73-3.66c-.19-1.84.62-2.4.9-5.08.11-1.12.11-2.24 0-3.36-.33-4.54-2.62-8.72-2.85-9.15-1.62-3.03-5.08-12.96-13.19-44.03a8.53 8.53 0 0 0 2.94 2.75c1.51.9 3.27 1.26 5.01 1.05 3.48-.49 5.31-3.32 5.59-3.76"/><path stroke="#000" stroke-linecap="round" stroke-linejoin="round" d="M51.68 75.54v3.36a92.1 92.1 0 0 0-6.52 4.6c-8.9 6.89-15.54 14.6-19.15 18.85-3.3 3.88-7.74 6.78-10.7 10.95a3.82 3.82 0 0 1-1.72 1.44c-.78.3-1.62.29-3.59-.26a29.91 29.91 0 0 1-4.48-1.63c-.63-.09-.84.03-.9.16-.3.48.87 1.92 2.13 2.74.74.47 1.57.78 2.44.9-2.67.48-5.4.65-8.1.5-.01.36.08.7.25 1.01.9 1.57 4.09 1.8 7.97.72a19.27 19.27 0 0 1-7.01 1.33c-.3 0-1.15-.33-1.32-.05-.17.28.32.83.6 1.12 1.43 1.4 4.04 1.12 7.06.76 1.12-.14 2.01-.3 2.54-.4-1.17.5-2.3 1.07-3.4 1.72-2.6 1.53-2.63 2.08-2.6 2.29.08.48.77.73.87.76 1.06.37 2.12-.39 3.7-1.35 1-.61 2.4-1.45 4.17-2.4l1.47 2.14c1.15 1.67 1.48 2.17 2.13 2.3a1.48 1.48 0 0 0 1.57-.62c.23-.45-.2-1.23-.35-1.47-.57-.95-1.09-2.74-.7-6.4l25.78-21.82a161.24 161.24 0 0 0-5.34 25.22 11.52 11.52 0 0 0-2.03 6.3c-.2 2.88.27 3.64.3 6.61 0 1.6-.11 3.2-.33 4.78-.38 3.18-1.27 20.27-2.44 32.54-.32 3.38-.9 8.53-1.83 14.82.05.6.03 1.43-.5 1.93-.42.39-.9.34-2.04.4a14.8 14.8 0 0 0-4.26.72c-.95.35-1.51.55-1.83 1.12-.59 1.05.05 2.7.9 3.66 1.1 1.25 1.87.7 4.49 2.44a16.2 16.2 0 0 1 2.33 1.83c.98.94.99 1.2 1.63 1.63 1.03.63 2.25.88 3.45.7a5.71 5.71 0 0 0 3.35-1.52 5.96 5.96 0 0 0 1.72-3.66c.2-1.84-.61-2.4-.9-5.08a16.75 16.75 0 0 1 0-3.36c.33-4.56 2.63-8.72 2.85-9.15 1.63-3.03 5.09-12.96 13.2-44.03a8.62 8.62 0 0 1-2.95 2.75 7.95 7.95 0 0 1-5 1.05c-3.49-.49-5.32-3.32-5.59-3.76"/><path fill="#FAC497" stroke="#000" stroke-linecap="round" stroke-linejoin="round" d="M62.13 75.45c3.24.25 12.22.32 20.52-4.84a32.2 32.2 0 0 0 9.36-8.84 7.1 7.1 0 0 0 9.92 1.52l.13-.1c4.18-2.88 5.3-9.5 3.05-13.03a5.1 5.1 0 0 0-1.56-1.59c-2.8-1.75-6.53.18-7.04.45.6-2.24 4.46-17.39-6.28-31C83.17 9.1 73.27 6.42 69.1 5.31c-3.63-.97-11.48-2.99-21.12-.41a37.73 37.73 0 0 0-17.49 10.27c-8.12 8.71-9.22 18.84-9.54 22.17-.35 3.84-.14 7.7.63 11.48-2.37-1.38-5.15-1.57-7.2-.3-3.45 2.12-2.84 6.94-2.75 7.73a9.44 9.44 0 0 0 5.02 7.14c.9.45 3.45 1.75 5.92.58A5.62 5.62 0 0 0 25 61.63c1.95 2.39 4.94 6.25 9.95 9.05a37.77 37.77 0 0 0 17.27 4.73l9.9.04Z"/><path fill="#FAC497" d="M25 61.71a27.7 27.7 0 0 1-3-10.33l3 10.33Z"/><path stroke="#000" stroke-linecap="round" stroke-linejoin="round" d="M25 61.71a27.7 27.7 0 0 1-3-10.33"/><path fill="#FAC497" d="M92.05 61.71a27.5 27.5 0 0 0 3-10.33l-3 10.33Z"/><path stroke="#000" stroke-linecap="round" stroke-linejoin="round" d="M92.05 61.71a27.5 27.5 0 0 0 3-10.33"/><path fill="#683B13" stroke="#000" stroke-linecap="round" stroke-linejoin="round" d="M56.3 1.35a31.94 31.94 0 0 0-18.7 1.9c-9.68 4.2-13.97 12.16-15.8 15.58-5.18 9.64-4.63 18.61-4.25 24.55.55 9.06 1.3 21.21 8.93 25.35 6.58 3.56 12.88-1.73 21.99 2.85a22.83 22.83 0 0 1 7.83 6.64 20.03 20.03 0 0 1 8.52-6.95c3.27-1.35 6.18-1.46 11.84-1.59 7.21-.16 7.89.7 10.04.27 8.05-1.6 13.74-16.66 13.74-29.01 0-13.24-6.52-31.5-22.96-38.1C68.76-.65 60.52.44 56.3 1.34Z"/><path fill="#683B13" d="M53.06 6.78a26.88 26.88 0 0 0-13 3.25c-10.3 5.7-14.5 17.62-14.44 27.05a33.18 33.18 0 0 0 5.48 17.7"/><path stroke="#000" stroke-linecap="round" stroke-linejoin="round" d="M53.06 6.78a26.88 26.88 0 0 0-13 3.25c-10.3 5.7-14.5 17.62-14.44 27.05a33.18 33.18 0 0 0 5.48 17.7"/><path fill="#683B13" d="M50.43 15.93c-2.57 2.04-7.4 6.43-9.75 13.62-5.08 15.56 6.31 29.18 7.1 30.1"/><path stroke="#000" stroke-linecap="round" stroke-linejoin="round" d="M50.43 15.93c-2.57 2.04-7.4 6.43-9.75 13.62-5.08 15.56 6.31 29.18 7.1 30.1"/><path fill="#683B13" d="M59.94 6.78a26.88 26.88 0 0 1 13 3.25c10.3 5.71 14.5 17.62 14.42 27.05a33.18 33.18 0 0 1-5.48 17.7"/><path stroke="#000" stroke-linecap="round" stroke-linejoin="round" d="M59.94 6.78a26.88 26.88 0 0 1 13 3.25c10.3 5.71 14.5 17.62 14.42 27.05a33.18 33.18 0 0 1-5.48 17.7"/><path fill="#683B13" d="M62.58 15.93a28.97 28.97 0 0 1 9.75 13.62c5.07 15.56-6.32 29.18-7.11 30.1"/><path stroke="#000" stroke-linecap="round" stroke-linejoin="round" d="M62.58 15.93a28.97 28.97 0 0 1 9.75 13.62c5.07 15.56-6.32 29.18-7.11 30.1"/></g><defs><clipPath id="a"><path fill="#fff" d="M.5 0h112v202H.5z"/></clipPath></defs></svg>