<svg width="122" height="247" viewBox="0 0 122 247" fill="none" xmlns="http://www.w3.org/2000/svg">
<path d="M121.971 1.23797C122.103 0.701554 121.774 0.160157 121.238 0.0287282C120.702 -0.102701 120.16 0.225608 120.029 0.762027L121.971 1.23797ZM38.6213 231.076L39.0181 231.994L38.6213 231.076ZM0.0105612 241.996L10.6473 246.49L9.22051 235.032L0.0105612 241.996ZM120.029 0.762027C115.352 19.8492 111.529 42.206 107.515 65.3542C103.497 88.5187 99.2864 112.488 93.8301 134.863C88.3725 157.244 81.6817 177.975 72.7265 194.672C63.7701 211.371 52.599 223.944 38.2245 230.158L39.0181 231.994C53.9648 225.532 65.4183 212.53 74.489 195.617C83.5609 178.702 90.2996 157.783 95.7731 135.337C101.248 112.886 105.469 88.8516 109.485 65.6959C113.504 42.5238 117.315 20.2438 121.971 1.23797L120.029 0.762027ZM38.2245 230.158C24.8531 235.939 15.065 238.642 8.74697 239.904L9.1385 241.865C15.6061 240.574 25.5287 237.826 39.0181 231.994L38.2245 230.158Z" fill="#F7A81A"/>
</svg>
