<svg width="155" height="52" viewBox="0 0 155 52" fill="none" xmlns="http://www.w3.org/2000/svg">
<path d="M154.513 1.85846C154.987 1.5752 155.142 0.961226 154.858 0.487113C154.575 0.013001 153.961 -0.141716 153.487 0.141544L154.513 1.85846ZM41.8685 44.4477L41.9317 45.4457L41.8685 44.4477ZM0.0236429 45.8959L9.98505 51.7358L10.0618 40.189L0.0236429 45.8959ZM153.487 0.141544C129.651 14.3827 96.4306 39.9926 41.8054 43.4497L41.9317 45.4457C97.1496 41.9511 130.838 16.0031 154.513 1.85846L153.487 0.141544ZM41.8054 43.4497C25.7631 44.465 15.3969 44.8405 9.00565 44.9559L9.04176 46.9556C15.4705 46.8395 25.8677 46.4623 41.9317 45.4457L41.8054 43.4497Z" fill="#F7A81A"/>
</svg>
