<svg width="115" height="205" viewBox="0 0 115 205" fill="none" xmlns="http://www.w3.org/2000/svg">
<g clip-path="url(#clip0_1_2638)">
<path d="M113.461 121.734C113.288 121.457 112.42 121.784 112.128 121.784C109.713 121.784 107.319 121.334 105.069 120.458C108.981 121.552 112.21 121.311 113.102 119.741C113.274 119.428 113.362 119.076 113.357 118.719C112.096 118.792 110.833 118.792 109.572 118.719C108.097 118.644 106.627 118.474 105.173 118.211C106.046 118.083 106.881 117.774 107.625 117.303C108.899 116.481 110.086 115.033 109.777 114.543C109.699 114.421 109.486 114.303 108.867 114.389C107.414 115.055 105.91 115.601 104.368 116.023C102.372 116.577 101.516 116.59 100.729 116.282C100.024 115.98 99.4225 115.478 99.0009 114.838C96.0398 110.648 91.5639 107.739 88.2297 103.839C84.5907 99.5812 77.8951 91.8279 68.9251 84.9143C66.2368 82.8398 63.9216 81.2828 62.3614 80.2886V76.9158L57.7854 76.8069L52.6409 76.9158V80.2886C51.0898 81.2828 48.7699 82.8398 46.0771 84.9143C37.1071 91.8324 30.4115 99.5812 26.7725 103.839C23.4384 107.739 18.9625 110.648 16.0013 114.838C15.5797 115.478 14.9785 115.98 14.2728 116.282C13.4904 116.59 12.6353 116.577 10.6339 116.023C9.09203 115.602 7.58744 115.055 6.13521 114.389C5.50295 114.303 5.28916 114.421 5.22548 114.543C4.91617 115.029 6.10337 116.481 7.377 117.303C8.1207 117.775 8.95635 118.085 9.82874 118.211C8.3748 118.473 6.90566 118.643 5.43017 118.719C4.16972 118.792 2.90612 118.792 1.64567 118.719C1.64036 119.076 1.72814 119.428 1.9004 119.741C2.81013 121.311 6.02149 121.557 9.93335 120.458C7.67952 121.339 5.28062 121.791 2.86017 121.793C2.56905 121.793 1.70025 121.466 1.5274 121.743C1.35455 122.02 1.85946 122.587 2.14148 122.864C3.58341 124.28 6.23528 123.994 9.2556 123.631C10.3837 123.495 11.2843 123.327 11.812 123.223C10.6394 123.733 9.49996 124.317 8.40045 124.97C5.78951 126.505 5.75312 127.054 5.78951 127.267C5.86684 127.748 6.55824 127.998 6.65831 128.03C7.72725 128.402 8.79619 127.644 10.3928 126.668C11.3844 126.051 12.799 125.211 14.5866 124.267L16.0741 126.409C17.2249 128.084 17.5706 128.588 18.221 128.711C18.5167 128.778 18.8257 128.755 19.1085 128.646C19.3913 128.537 19.635 128.346 19.8085 128.098C20.0587 127.562 19.5993 126.863 19.4492 126.614C18.867 125.66 18.353 123.867 18.7305 120.181L44.708 98.2602C43.3843 102.704 42.1425 107.571 41.069 112.832C40.3185 116.581 39.7408 120.177 39.295 123.586C38.867 124.207 38.5014 124.868 38.2034 125.56C37.63 126.945 37.3066 128.421 37.2481 129.918C37.0526 132.805 37.5211 133.572 37.5575 136.555C37.5577 138.16 37.4437 139.764 37.2163 141.353C37.8941 135.615 36.7978 152.761 34.76 174.037C34.4325 177.432 33.8503 182.594 32.9405 188.944C32.9951 189.544 32.9405 190.383 32.4311 190.883C32.0126 191.273 31.5214 191.228 30.3842 191.291C28.9238 191.318 27.4753 191.559 26.0857 192.009C25.1305 192.358 24.5619 192.562 24.2435 193.13C23.6476 194.187 24.2981 195.817 25.1532 196.807C26.254 198.064 27.0318 197.515 29.6519 199.258C30.4925 199.797 31.2812 200.412 32.0081 201.096C32.9906 202.032 32.9997 202.299 33.641 202.731C34.6833 203.363 35.9132 203.615 37.1208 203.443C38.385 203.317 39.5726 202.78 40.5004 201.914C41.4926 200.928 42.1074 199.627 42.238 198.237C42.4336 196.389 41.6194 195.831 41.3283 193.13C41.21 192.01 41.21 190.881 41.3283 189.762C41.6558 185.199 43.962 180.996 44.1894 180.569C45.836 177.528 49.3203 167.559 57.4943 136.36C57.0394 137.022 57.9492 137.022 57.4943 136.36C65.6819 167.559 69.1525 177.528 70.7946 180.569C71.022 180.996 73.3282 185.199 73.6603 189.762C73.7695 190.882 73.7695 192.01 73.6603 193.13C73.3555 195.853 72.5459 196.389 72.7505 198.237C72.8793 199.628 73.4944 200.929 74.4881 201.914C75.416 202.78 76.6036 203.317 77.8678 203.443C79.0661 203.6 80.2819 203.34 81.3111 202.708C81.9525 202.277 81.9616 202.009 82.9441 201.074C83.671 200.396 84.4598 199.788 85.3003 199.258C87.9249 197.515 88.6982 198.064 89.8035 196.807C90.6678 195.817 91.3182 194.187 90.7133 193.13C90.3949 192.562 89.8263 192.358 88.8938 192.009C87.5041 191.56 86.0557 191.318 84.5953 191.291C83.4445 191.228 82.9669 191.291 82.5529 190.883C82.0162 190.383 81.9844 189.544 82.0389 188.944C81.0837 182.589 80.5242 177.432 80.2195 174.037C79.0368 161.712 78.1407 144.531 77.7632 141.353C77.5313 139.764 77.4173 138.16 77.422 136.555C77.4584 133.572 77.9269 132.805 77.7313 129.918C77.6729 128.421 77.3495 126.945 76.7761 125.56C76.4762 124.869 76.1107 124.208 75.6844 123.586C75.2296 120.177 74.661 116.581 73.9105 112.832C72.9423 107.917 71.7278 103.054 70.2715 98.2602L96.2626 120.163C96.6402 123.849 96.1262 125.642 95.5439 126.595C95.3938 126.845 94.9344 127.544 95.1846 128.08C95.3581 128.328 95.6018 128.519 95.8846 128.628C96.1674 128.737 96.4764 128.76 96.7721 128.693C97.4226 128.57 97.7682 128.066 98.9236 126.391C99.7014 125.261 100.288 124.444 100.406 124.248C102.194 125.193 103.591 126.032 104.6 126.65C106.197 127.639 107.266 128.398 108.335 128.012C108.435 127.98 109.126 127.73 109.204 127.249C109.24 127.036 109.204 126.486 106.597 124.952C105.491 124.303 104.346 123.722 103.168 123.213C103.695 123.318 104.596 123.486 105.724 123.622C108.749 123.985 111.396 124.271 112.838 122.855C113.129 122.578 113.62 121.997 113.461 121.734Z" fill="#FAC497"/>
<path d="M39.1713 122.941C44.4614 122.996 50.5157 124.471 56.0014 124.412C62.1921 124.349 69.6474 122.696 75.6107 122.492C75.6971 123.354 77.3165 126.305 77.3165 127.177C77.2622 134.322 77.5901 141.465 78.299 148.576C77.0435 147.958 71.9308 146.437 68.0417 146.723C65.4682 146.851 62.9967 147.767 60.964 149.347C59.6403 144.871 58.8125 141.685 57.4933 137.209C56.2697 141.771 55.0416 145.511 53.818 150.074C50.9013 148.808 47.8069 147.998 44.6433 147.672C42.0041 147.468 39.3495 147.722 36.7969 148.421C37.4291 141.739 37.4291 134.98 37.4291 128.411C37.6293 126.419 38.5208 124.743 39.1713 122.941Z" fill="#F9F5F2"/>
<path d="M48.5014 119.396C48.081 119.112 47.5707 118.992 47.0675 119.059C46.5643 119.126 46.1033 119.375 45.7722 119.759C45.199 120.417 44.5668 121.203 43.9163 122.106C42.256 124.412 40.7322 126.509 40.1455 129.46C39.7861 131.244 39.2903 133.663 40.5366 135.879C42.5244 139.424 47.4415 139.733 49.4566 139.86C51.7309 140 54.4192 140.168 56.1067 138.421C58.3538 136.092 57.2758 131.957 56.83 130.25C55.3972 124.721 51.2351 121.203 48.5014 119.396Z" fill="#EE779A"/>
<path d="M42.1081 109.781C41.1984 114.566 40.2886 119.348 39.3789 124.126C40.8047 123.233 42.0958 122.141 43.2134 120.885C44.4598 119.487 45.4878 118.334 45.7743 116.827C46.4339 113.295 42.522 110.113 42.1081 109.781Z" fill="#EE779A"/>
<path d="M72.8778 110.158L75.607 124.498C74.1821 123.609 72.891 122.522 71.7725 121.271C70.5262 119.877 69.4982 118.72 69.2116 117.212C68.552 113.667 72.4548 110.485 72.8778 110.158Z" fill="#EE779A"/>
<path d="M66.4817 119.768C66.9024 119.485 67.4125 119.366 67.9154 119.433C68.4183 119.5 68.8792 119.748 69.2109 120.131C69.7795 120.79 70.4118 121.575 71.0622 122.478C72.7225 124.784 74.2463 126.882 74.8331 129.832C75.197 131.616 75.6882 134.036 74.4464 136.251C72.4541 139.796 67.537 140.105 65.5219 140.232C63.2476 140.373 60.5593 140.545 58.8718 138.793C56.6247 136.464 57.7028 132.329 58.1485 130.622C59.5859 125.084 63.7479 121.575 66.4817 119.768Z" fill="#EE779A"/>
<path d="M62.3528 76.907V80.2798C63.9039 81.2739 66.2283 82.8309 68.9165 84.9055C77.8865 91.819 84.5822 99.5724 88.2211 103.83C91.5553 107.73 96.0312 110.639 98.9924 114.829C99.4139 115.47 100.015 115.972 100.721 116.273C101.503 116.582 102.358 116.568 104.36 116.014C105.901 115.592 107.406 115.046 108.858 114.38C109.491 114.294 109.704 114.412 109.768 114.534C110.077 115.02 108.89 116.473 107.617 117.294C106.872 117.765 106.037 118.075 105.165 118.202C106.619 118.465 108.088 118.635 109.563 118.711C110.824 118.783 112.088 118.783 113.348 118.711C113.353 119.067 113.266 119.419 113.093 119.732C112.184 121.303 108.972 121.548 105.06 120.449C107.309 121.331 109.703 121.787 112.12 121.793C112.411 121.793 113.28 121.466 113.453 121.743C113.625 122.02 113.121 122.587 112.839 122.864C111.397 124.28 108.745 123.994 105.724 123.631C104.596 123.495 103.696 123.327 103.168 123.223C104.346 123.731 105.492 124.312 106.598 124.961C109.209 126.496 109.241 127.045 109.204 127.258C109.127 127.74 108.435 127.989 108.335 128.021C107.266 128.393 106.197 127.635 104.601 126.659C103.609 126.042 102.195 125.202 100.407 124.258C100.271 124.453 99.702 125.27 98.9241 126.4C97.7688 128.075 97.4231 128.579 96.7726 128.702C96.4769 128.769 96.1679 128.746 95.8851 128.637C95.6023 128.528 95.3586 128.337 95.1851 128.089C94.9349 127.553 95.3944 126.854 95.5445 126.605C96.1267 125.651 96.6407 123.858 96.2632 120.172L70.272 98.2514C71.5957 102.695 72.8375 107.562 73.911 112.823C74.6615 116.573 75.2392 120.168 75.685 123.577C76.1112 124.199 76.4767 124.86 76.7766 125.552C77.35 126.937 77.6734 128.412 77.7319 129.909C77.9275 132.796 77.4589 133.564 77.4226 136.546C77.4178 138.152 77.5318 139.755 77.7637 141.344C78.1412 144.522 79.0373 161.694 80.22 174.028C80.5475 177.424 81.1297 182.585 82.0395 188.936C81.9849 189.535 82.0395 190.375 82.5535 190.874C82.9674 191.264 83.4632 191.219 84.5958 191.282C86.0562 191.309 87.5046 191.551 88.8943 192C89.8495 192.349 90.4181 192.554 90.7138 193.121C91.3097 194.179 90.6592 195.808 89.804 196.798C88.6987 198.055 87.9254 197.506 85.3009 199.249C84.4594 199.787 83.6705 200.402 82.9446 201.088C81.9621 202.023 81.953 202.291 81.3117 202.722C80.2701 203.356 79.0396 203.608 77.8319 203.435C76.5827 203.298 75.413 202.755 74.5023 201.891C73.5033 200.91 72.8859 199.607 72.7602 198.214C72.5691 196.367 73.3788 195.808 73.6699 193.107C73.7791 191.987 73.7791 190.859 73.6699 189.739C73.3378 185.177 71.0317 180.973 70.8042 180.547C69.1622 177.505 65.6779 167.537 57.5039 136.337C58.2555 137.481 59.273 138.426 60.4696 139.093C61.981 139.969 63.7383 140.328 65.4732 140.114C68.9757 139.624 70.8224 136.778 71.0999 136.337" stroke="black" stroke-linecap="round" stroke-linejoin="round"/>
<path d="M52.6318 76.907V80.2798C51.0807 81.2739 48.7608 82.8309 46.068 84.9055C37.098 91.8326 30.4024 99.5724 26.7635 103.83C23.4293 107.73 18.9534 110.639 15.9922 114.829C15.5706 115.47 14.9694 115.972 14.2637 116.273C13.4813 116.582 12.6262 116.568 10.6248 116.014C9.08294 115.593 7.57834 115.047 6.12611 114.38C5.49385 114.294 5.28006 114.412 5.21638 114.534C4.90707 115.02 6.09427 116.473 7.3679 117.294C8.11161 117.767 8.94725 118.076 9.81964 118.202C8.3657 118.464 6.89656 118.634 5.42107 118.711C4.16062 118.783 2.89702 118.783 1.63657 118.711C1.63126 119.067 1.71904 119.419 1.8913 119.732C2.80103 121.303 6.0124 121.548 9.92426 120.449C7.67387 121.332 5.27813 121.788 2.86017 121.793C2.56905 121.793 1.70025 121.466 1.5274 121.743C1.35455 122.02 1.85946 122.587 2.14148 122.864C3.58341 124.28 6.23528 123.994 9.2556 123.631C10.3837 123.495 11.2843 123.327 11.812 123.223C10.6349 123.73 9.49096 124.311 8.38681 124.961C5.77587 126.496 5.73948 127.045 5.77587 127.258C5.85319 127.74 6.54459 127.989 6.64466 128.021C7.7136 128.393 8.78254 127.635 10.3791 126.659C11.3707 126.042 12.7854 125.202 14.573 124.258L16.0513 126.382C17.2021 128.057 17.5478 128.561 18.1983 128.684C18.494 128.751 18.803 128.728 19.0858 128.619C19.3686 128.51 19.6123 128.319 19.7858 128.071C20.036 127.535 19.5765 126.836 19.4264 126.587C18.8442 125.633 18.3302 123.84 18.7077 120.154L44.708 98.2514C43.3843 102.695 42.1425 107.562 41.069 112.823C40.3185 116.573 39.7408 120.168 39.295 123.577C38.867 124.198 38.5014 124.859 38.2034 125.552C37.63 126.937 37.3066 128.412 37.2481 129.909C37.0526 132.796 37.5211 133.564 37.5575 136.546C37.5577 138.151 37.4437 139.755 37.2163 141.344C37.8941 135.606 36.7978 152.752 34.76 174.028C34.4325 177.424 33.8503 182.585 32.9405 188.936C32.9951 189.535 32.9406 190.375 32.4311 190.874C32.0126 191.264 31.5214 191.219 30.3842 191.282C28.9238 191.309 27.4753 191.551 26.0857 192C25.1305 192.349 24.5619 192.554 24.2662 193.121C23.6704 194.179 24.3208 195.808 25.176 196.798C26.2767 198.055 27.0546 197.506 29.6746 199.249C30.5152 199.788 31.304 200.404 32.0308 201.088C33.0133 202.023 33.0224 202.291 33.6638 202.722C34.706 203.354 35.9359 203.606 37.1435 203.435C38.4077 203.308 39.5953 202.771 40.5232 201.905C41.5153 200.92 42.1301 199.618 42.2608 198.228C42.4564 196.38 41.6422 195.822 41.3511 193.121C41.2328 192.001 41.2328 190.872 41.3511 189.753C41.6786 185.213 43.9847 180.987 44.2122 180.56C45.8588 177.519 49.3431 167.55 57.517 136.351C56.7599 137.491 55.7418 138.436 54.5468 139.106C53.035 139.982 51.278 140.34 49.5432 140.128C46.0407 139.637 44.194 136.791 43.9165 136.351" stroke="black" stroke-linecap="round" stroke-linejoin="round"/>
<path d="M63.3876 76.8251C66.649 77.0657 75.7008 77.1383 84.0704 71.9634C87.7737 69.6633 90.9745 66.6419 93.4816 63.0797C94.0381 63.8359 94.7384 64.4753 95.5426 64.9613C96.3468 65.4472 97.2391 65.7703 98.1684 65.9119C99.0978 66.0536 100.046 66.011 100.959 65.7868C101.872 65.5625 102.731 65.1609 103.489 64.605L103.616 64.5096C107.824 61.6135 108.952 54.9768 106.686 51.4406C106.283 50.8014 105.748 50.2552 105.117 49.8382C102.297 48.0814 98.5352 50.0152 98.0212 50.2921C98.6353 48.0497 102.52 32.8244 91.6758 19.138C84.5708 10.1817 74.5864 7.50347 70.4107 6.37769C66.7718 5.40171 58.848 3.38167 49.1275 5.96914C42.4248 7.73833 36.3353 11.3051 31.5196 16.2827C23.332 25.0347 22.2221 35.1985 21.9037 38.5259C21.5388 42.3835 21.7488 46.2736 22.5268 50.0697C20.1342 48.6806 17.3277 48.4945 15.249 49.7656C11.7692 51.8991 12.3833 56.7381 12.4834 57.5235C12.6915 59.0404 13.2628 60.485 14.1487 61.7351C15.0347 62.9851 16.2094 64.0037 17.5733 64.7048C18.4831 65.1588 21.0531 66.4571 23.5367 65.2859C24.5768 64.7708 25.434 63.9502 25.9929 62.9345C27.9489 65.3313 30.9965 69.2079 36 72.0133C41.3361 74.9647 47.3047 76.5932 53.4032 76.7616L63.3876 76.8251Z" fill="#FAC497" stroke="black" stroke-linecap="round" stroke-linejoin="round"/>
<path d="M25.9617 63.0209C24.2771 59.7904 23.2506 56.2588 22.9414 52.6301L25.9617 63.0209Z" fill="#FAC497"/>
<path d="M25.9617 63.0209C24.2771 59.7904 23.2506 56.2588 22.9414 52.6301" stroke="black" stroke-linecap="round" stroke-linejoin="round"/>
<path d="M93.543 63.0209C94.1688 61.8095 94.7069 60.5549 95.1532 59.2668C95.8921 57.1201 96.3656 54.8914 96.5633 52.6301" fill="#FAC497"/>
<path d="M93.543 63.0209C94.1688 61.8095 94.7069 60.5549 95.1532 59.2668C95.8921 57.1201 96.3656 54.8914 96.5633 52.6301" stroke="black" stroke-linecap="round" stroke-linejoin="round"/>
<path d="M57.6712 2.40579C54.5918 1.80659 47.0228 0.76706 38.8306 4.31236C29.0646 8.53857 24.7297 16.537 22.9103 19.9689C17.6975 29.6424 18.2479 38.6577 18.6163 44.6225C19.1758 53.7014 19.9263 65.926 27.6227 70.0796C34.2456 73.6522 40.6001 68.341 49.7884 72.9395C52.8901 74.537 55.586 76.8191 57.6712 79.6124C60.8553 75.2773 64.2987 73.4388 66.2455 72.6262C69.5387 71.2644 72.4681 71.16 78.1767 71.0329C85.4545 70.874 86.1232 71.7365 88.2884 71.3053C96.4077 69.6938 102.144 54.5775 102.144 42.1712C102.144 28.8798 95.5662 10.5359 79.0091 3.91289C70.2301 0.394827 61.9424 1.49791 57.6712 2.40579Z" fill="#683B13" stroke="black" stroke-linecap="round" stroke-linejoin="round"/>
<path d="M55.8517 7.85309C51.2803 7.82399 46.7756 8.94826 42.7561 11.1215C32.3851 16.8593 28.1503 28.8298 28.2276 38.2673C28.2913 46.4382 31.5754 52.6845 33.7497 56.0346" fill="#683B13"/>
<path d="M55.8517 7.85309C51.2803 7.82399 46.7756 8.94826 42.7561 11.1215C32.3851 16.8593 28.1503 28.8298 28.2276 38.2673C28.2913 46.4382 31.5754 52.6845 33.7497 56.0346" stroke="black" stroke-linecap="round" stroke-linejoin="round"/>
<path d="M53.1688 17.0454C50.5806 19.07 45.7135 23.4914 43.3482 30.7545C38.2309 46.3792 49.7118 60.0565 50.5078 60.9644" fill="#683B13"/>
<path d="M53.1688 17.0454C50.5806 19.07 45.7135 23.4914 43.3482 30.7545C38.2309 46.3792 49.7118 60.0565 50.5078 60.9644" stroke="black" stroke-linecap="round" stroke-linejoin="round"/>
<path d="M62.7578 7.85291C67.3338 7.8221 71.8433 8.9464 75.8671 11.1213C86.2381 16.8546 90.4729 28.8251 90.3956 38.2807C90.3319 46.4517 87.0477 52.6979 84.8735 56.048" fill="#683B13"/>
<path d="M62.7578 7.85291C67.3338 7.8221 71.8433 8.9464 75.8671 11.1213C86.2381 16.8546 90.4729 28.8251 90.3956 38.2807C90.3319 46.4517 87.0477 52.6979 84.8735 56.048" stroke="black" stroke-linecap="round" stroke-linejoin="round"/>
<path d="M65.4062 17.0454C67.999 19.07 72.8615 23.505 75.2268 30.7318C80.3486 46.3565 68.8587 60.0293 68.0672 60.9553" fill="#683B13"/>
<path d="M65.4062 17.0454C67.999 19.07 72.8615 23.505 75.2268 30.7318C80.3486 46.3565 68.8587 60.0293 68.0672 60.9553" stroke="black" stroke-linecap="round" stroke-linejoin="round"/>
</g>
<defs>
<clipPath id="clip0_1_2638">
<rect width="114" height="204" fill="white" transform="translate(0.5 0.5)"/>
</clipPath>
</defs>
</svg>
