<svg width="112" height="202" viewBox="0 0 112 202" fill="none" xmlns="http://www.w3.org/2000/svg">
<g clip-path="url(#clip0_1_2703)">
<path d="M17.6935 60.1705C11.7019 48.5709 15.9338 32.7287 23.9768 22.9427C27.1812 19.0806 31.1407 15.8778 35.6254 13.5204C46.8627 7.61798 57.99 8.9607 62.6427 9.58544C66.6403 10.1216 75.0755 11.2592 82.626 16.7233C98.7886 28.4301 97.3158 50.24 97.1293 52.5058C95.9912 56.2962 93.6959 61.8303 88.6846 66.6137C70.9344 83.4537 28.5626 81.3603 17.6935 60.1705Z" fill="#572318"/>
<path d="M50.1343 78.1762C48.5404 78.0457 46.9464 77.853 45.3525 77.5981C31.9203 75.4395 21.6298 69.1688 17.1397 60.4038C14.2706 54.8465 13.539 48.0536 14.9926 40.7572C16.3024 34.1197 19.2244 27.8847 23.5139 22.5746C26.761 18.6453 30.7817 15.3893 35.3393 12.9984C46.9974 6.89088 58.4212 8.42942 62.7249 9.00753C66.8133 9.55767 75.3202 10.6999 82.9855 16.2526C99.2676 28.048 97.9287 50.0584 97.7231 52.5294C97.7175 52.5671 97.7095 52.6045 97.6992 52.6413C95.9777 58.3804 93.0895 63.2058 89.0919 66.9869C80.5085 75.1598 65.2927 79.4257 50.1343 78.1762ZM18.206 59.9143C22.5431 68.3483 32.518 74.3905 45.5629 76.4932C61.8593 79.118 79.0357 74.9779 88.2646 66.199C92.0901 62.5671 94.8731 57.9235 96.542 52.3895C96.7523 49.7274 97.9335 28.5003 82.2682 17.1524C74.842 11.7816 66.5455 10.6626 62.5671 10.1311C58.3734 9.56233 47.2317 8.06576 35.9227 13.9868C31.4972 16.3009 27.5944 19.4593 24.4463 23.2739C14.3136 35.5915 13.6346 51.0281 18.1965 59.9096L18.206 59.9143Z" fill="#1D1E1C"/>
<path d="M106.981 121.871C105.642 121.824 104.367 121.745 103.156 121.633C104.355 121.517 105.482 121.017 106.36 120.211C107.058 119.53 107.971 118.216 107.541 117.633C107.297 117.302 106.704 117.311 106.288 117.358C105.756 117.735 105.199 118.076 104.619 118.379C103.433 118.989 101.865 119.777 99.8898 119.665C99.2465 119.62 98.6135 119.483 98.0105 119.26L80.6142 101.893C76.2867 96.6201 70.9741 90.5779 63.677 85.8644C62.9024 85.3655 62.1755 85.0485 61.4056 84.5916V81.4912C67.625 81.3181 73.7114 79.6955 79.1558 76.7591C84.2962 73.9617 87.3853 70.0874 89.3841 67.7004C89.9571 68.7075 90.8311 69.5206 91.8898 70.0315C94.4242 71.1971 97.035 69.9149 97.9723 69.4534C99.3645 68.7564 100.563 67.7416 101.467 66.4956C102.37 65.2495 102.951 63.8091 103.161 62.2969C103.266 61.5136 103.892 56.7022 100.344 54.5622C98.2353 53.2988 95.371 53.4853 92.9322 54.87C93.7232 51.0938 93.9391 47.2245 93.573 43.3869C93.2526 40.0534 92.1098 29.9224 83.7655 21.1994C78.8508 16.2489 72.6418 12.7022 65.8097 10.9425C59.4281 9.25484 52.7006 9.25484 46.319 10.9425C39.4878 12.7012 33.2802 16.2482 28.368 21.1994C20.0093 29.9178 18.8808 40.0488 18.5748 43.3869C18.2015 47.2284 18.4126 51.1026 19.2012 54.8839C16.7625 53.4853 13.8982 53.3128 11.7894 54.5762C8.24605 56.7069 8.86769 61.5276 8.97289 62.3109C9.18305 63.8228 9.76447 65.2629 10.6677 66.5089C11.571 67.7548 12.7694 68.7697 14.1612 69.4674C15.1175 69.9336 17.7141 71.211 20.2437 70.0455C21.3013 69.5332 22.1749 68.7204 22.7493 67.7144C24.7481 70.1014 27.8372 73.9617 32.9777 76.7731C38.4233 79.7064 44.509 81.3289 50.7278 81.5052V84.6056C49.9579 85.0718 49.2311 85.3795 48.4564 85.8784C41.1594 90.5919 35.8659 96.6341 31.5192 101.907L14.1277 119.26C13.5246 119.483 12.8916 119.619 12.2484 119.665C10.2688 119.796 8.70032 118.989 7.51443 118.379C6.93419 118.077 6.37651 117.736 5.84557 117.358C5.42955 117.311 4.8366 117.302 4.59273 117.633C4.16237 118.216 5.07091 119.53 5.77384 120.211C6.65233 121.016 7.77839 121.515 8.97767 121.633C7.76308 121.745 6.48793 121.824 5.1522 121.871C3.52638 121.927 1.98663 121.922 0.542521 121.871C0.481862 122.252 0.541915 122.642 0.714667 122.99C1.54192 124.565 5.06613 124.799 9.47976 123.67C7.18765 124.74 4.68096 125.302 2.13965 125.316C1.80924 125.323 1.47872 125.31 1.14981 125.279C1.04617 125.416 0.975234 125.575 0.942152 125.743C0.90907 125.91 0.914668 126.083 0.95854 126.249C1.38572 127.355 4.5736 127.456 10.5222 126.552C9.10612 127.237 7.75548 128.043 6.48633 128.962C5.40564 129.741 4.32973 130.528 4.50188 130.962C4.72662 131.526 6.89279 131.181 7.1271 131.149C8.62381 130.915 11.2777 130.123 14.1899 126.953C14.2008 127.854 14.4285 128.74 14.8545 129.54C15.218 130.221 15.8922 131.461 17.2455 131.755C17.4667 131.794 17.6945 131.779 17.9081 131.71C18.1216 131.641 18.3141 131.521 18.4678 131.361C18.6215 131.201 18.7316 131.006 18.7878 130.794C18.8441 130.581 18.8449 130.359 18.79 130.146C18.7028 129.804 18.6484 129.454 18.6274 129.102C18.5605 127.95 18.5939 127.456 18.5318 126.388C18.6089 125.457 18.3973 124.525 17.9245 123.712L44.9514 102.341C41.6997 112.882 39.3949 121.684 38.735 128.071C37.353 141.154 36.3441 151.569 35.426 163.551C35.249 165.882 35.2634 173.845 33.7236 181.934C33.3537 184.043 32.8588 186.129 32.2413 188.181C31.8022 189.573 31.1579 190.896 30.3285 192.107C30.0271 192.667 29.5495 193.118 28.9657 193.394C28.1009 193.617 27.2148 193.753 26.3214 193.799C24.9298 193.879 22.2712 194.429 20.4732 195.809C18.8323 197.232 17.7672 199.18 17.4702 201.301C21.3913 201.301 37.6447 201.832 38.6585 201.301C40.3273 200.434 39.9448 197.152 40.093 196.317C40.3417 195.044 40.5138 192.839 40.7194 192.121C41.4606 189.482 47.9544 173.635 56.0213 143.037C64.0739 173.635 70.5676 189.482 71.3232 192.121C71.5288 192.848 71.6961 195.054 71.9496 196.317C72.1122 197.152 71.7296 200.434 73.3841 201.301C74.3979 201.832 90.6513 201.301 94.5724 201.301C94.2818 199.199 93.2384 197.266 91.6268 195.841C89.8288 194.443 87.1701 193.911 85.7834 193.832C84.89 193.786 84.0039 193.65 83.1391 193.426C82.5533 193.154 82.0748 192.702 81.7762 192.14C80.9394 190.933 80.2945 189.609 79.8635 188.214C79.2394 186.163 78.7428 184.076 78.3763 181.967C76.8366 173.878 76.8509 165.924 76.674 163.584C75.7559 151.602 74.7613 141.205 73.3698 128.104C72.6955 121.722 70.3907 112.915 67.1247 102.373L94.1373 123.722C93.6644 124.534 93.4528 125.467 93.53 126.398C93.4678 127.465 93.5013 127.96 93.4343 129.111C93.411 129.463 93.3566 129.813 93.2717 130.155C93.1843 130.49 93.2356 130.844 93.4147 131.142C93.5938 131.44 93.8861 131.657 94.2281 131.745C94.4159 131.782 94.6094 131.782 94.7971 131.745H94.8258C96.1839 131.452 96.8581 130.211 97.2168 129.531C97.6413 128.73 97.8674 127.844 97.8766 126.943C100.789 130.109 103.447 130.901 104.939 131.139C105.15 131.172 107.33 131.517 107.565 130.953C107.737 130.519 106.661 129.731 105.58 128.953C104.31 128.035 102.96 127.228 101.544 126.542C107.518 127.447 110.706 127.346 111.108 126.239C111.153 126.075 111.16 125.903 111.129 125.735C111.099 125.568 111.031 125.409 110.931 125.269C110.611 125.269 110.281 125.302 109.941 125.307C107.4 125.295 104.893 124.732 102.601 123.661C107.02 124.789 110.539 124.556 111.366 122.98C111.539 122.633 111.6 122.243 111.543 121.861C110.142 121.922 108.602 121.927 106.981 121.871Z" fill="#FAC497"/>
<path d="M38.4521 130.57C43.8508 130.626 50.0242 132.095 55.6189 132.039C61.9357 131.973 67.5209 130.328 73.589 130.123C73.6799 130.985 73.7659 131.848 73.8568 132.71C74.6506 140.449 75.4013 148.162 76.109 155.849C73.5429 154.611 70.6813 154.072 67.827 154.29C64.9726 154.507 62.2316 155.473 59.8939 157.084C58.5454 152.618 57.1953 148.156 55.8436 143.699L52.1234 157.341C47.1058 155.02 41.3988 154.538 36.0469 155.984C36.6845 149.298 37.3077 142.616 37.9166 135.936C38.5573 134.155 37.7779 132.379 38.4521 130.57Z" fill="#F9F5F2"/>
<path d="M37.7509 94.7643C41.5155 90.7589 45.8777 87.3294 50.6905 84.5913C50.8443 85.1374 51.1644 85.6251 51.6086 85.99C51.7823 86.1085 51.9627 86.2175 52.149 86.3163C52.7865 86.6469 53.3874 87.0406 53.9422 87.4912C54.1624 87.6772 54.3656 87.8816 54.5494 88.102C55.2503 89.0199 55.7262 90.082 55.941 91.207C56.0175 91.5753 56.094 92.1068 55.941 94.6151C55.6923 98.7598 55.3289 99.7435 55.0898 100.261C54.7981 100.923 54.4108 101.767 53.6552 102.126C52.828 102.546 52.0246 102.168 51.4126 101.869C50.7787 101.595 50.1623 101.284 49.5668 100.937C48.8734 100.545 48.2996 100.21 47.8979 99.9673C46.9416 100.76 45.9613 101.554 44.9571 102.35C44.1155 103.021 43.2835 103.683 42.4514 104.331C42.479 102.49 42.0685 100.668 41.252 99.0085C40.4356 97.3485 39.2355 95.8957 37.7461 94.7643H37.7509Z" fill="#EE779A"/>
<path d="M36.265 96.1724C35.2608 97.4498 33.7497 99.3054 31.7844 101.45C28.6475 104.886 26.2566 106.993 26.5244 107.301C26.7013 107.511 27.9972 106.742 29.2644 105.982C31.4066 104.7 33.3241 103.506 35.2464 101.399C36.0785 100.466 38.3259 98.0139 37.5943 96.8158C37.4369 96.6176 37.2356 96.4568 37.0053 96.3454C36.7751 96.2339 36.522 96.1748 36.265 96.1724Z" fill="#EE779A"/>
<path d="M31.8801 112.108C31.6875 112.213 31.4748 112.278 31.2552 112.3C31.0355 112.321 30.8137 112.299 30.6034 112.234C29.647 111.833 29.7235 110.205 29.7379 109.972C29.7938 109.325 30.0193 108.702 30.393 108.163C31.6216 106.354 33.2202 104.811 35.0887 103.632C37.2167 102.233 38.2974 101.538 39.3254 101.93C39.7234 102.111 40.0788 102.37 40.3693 102.69C40.6598 103.011 40.8791 103.387 41.0134 103.795C41.124 104.132 41.1757 104.485 41.1664 104.839L31.8801 112.108Z" fill="#EE779A"/>
<path d="M24.9161 108.84L14.5156 118.915C14.7713 119.156 15.0856 119.329 15.429 119.418C16.097 119.529 16.7829 119.382 17.3417 119.008C19.7756 117.642 22.5348 114.812 22.5348 114.812C25.1648 112.122 25.772 111.329 25.6429 110.299C25.5522 109.754 25.2995 109.247 24.9161 108.84Z" fill="#EE779A"/>
<path d="M29.7336 113.716C28.788 113.787 27.8558 113.977 26.9601 114.28C26.1281 114.565 25.4299 114.91 23.5507 116.145C21.2171 117.684 19.3761 119.064 18.2906 120.696C17.8125 121.404 17.6212 122.001 17.8507 122.449C17.9825 122.659 18.1804 122.823 18.415 122.915L29.7336 113.716Z" fill="#EE779A"/>
<path d="M74.2971 94.7643C70.5339 90.7592 66.1733 87.3298 61.3622 84.5913C61.2085 85.1374 60.8883 85.6251 60.4441 85.99C60.2704 86.1085 60.09 86.2175 59.9038 86.3163C59.2663 86.6469 58.6654 87.0406 58.1106 87.4912C57.8892 87.676 57.6859 87.8805 57.5033 88.102C56.8013 89.0192 56.3252 90.0816 56.1118 91.207C56.0353 91.5753 55.9588 92.1068 56.1118 94.6151C56.3604 98.7598 56.7239 99.7435 56.963 100.261C57.2546 100.923 57.642 101.767 58.3975 102.126C59.153 102.485 60.0233 102.168 60.6354 101.869C61.2688 101.594 61.8851 101.283 62.4812 100.937C63.1745 100.545 63.7484 100.21 64.15 99.9673C65.1064 100.76 66.0867 101.554 67.0909 102.35C67.9325 103.021 68.7645 103.683 69.5965 104.331C69.5678 102.49 69.9779 100.668 70.7944 99.0078C71.6109 97.3477 72.8116 95.895 74.3019 94.7643H74.2971Z" fill="#EE779A"/>
<path d="M75.7588 96.1724C76.7629 97.4498 78.274 99.3054 80.2393 101.45C83.3762 104.886 85.7671 106.993 85.4993 107.301C85.3224 107.511 84.0265 106.742 82.7594 105.982C80.6171 104.7 78.6996 103.506 76.7773 101.399C75.9453 100.466 73.6978 98.0139 74.4294 96.8158C74.5868 96.6176 74.7882 96.4568 75.0184 96.3454C75.2486 96.2339 75.5017 96.1748 75.7588 96.1724Z" fill="#EE779A"/>
<path d="M80.1636 112.108C80.3561 112.213 80.5688 112.279 80.7885 112.301C81.0082 112.322 81.23 112.3 81.4403 112.234C82.3967 111.833 82.3202 110.206 82.3058 109.973C82.2496 109.318 82.0242 108.688 81.6507 108.14C80.4207 106.332 78.8223 104.789 76.955 103.609C74.827 102.21 73.7464 101.515 72.7183 101.907C72.3203 102.088 71.9649 102.347 71.6744 102.668C71.3839 102.988 71.1646 103.364 71.0303 103.772C70.915 104.108 70.8632 104.462 70.8773 104.816L80.1636 112.108Z" fill="#EE779A"/>
<path d="M87.1302 108.84L97.5498 118.915C97.2933 119.155 96.9793 119.328 96.6364 119.418C95.9684 119.53 95.2821 119.383 94.7237 119.008C92.2898 117.642 89.5306 114.812 89.5306 114.812C86.9006 112.122 86.2933 111.329 86.4224 110.299C86.5036 109.755 86.7501 109.246 87.1302 108.84Z" fill="#EE779A"/>
<path d="M82.3125 113.716C83.258 113.788 84.1901 113.977 85.086 114.28C85.918 114.565 86.6161 114.91 88.4954 116.145C90.8289 117.684 92.6699 119.064 93.7315 120.696C94.2097 121.404 94.401 122.001 94.1714 122.449C94.0386 122.658 93.8411 122.822 93.6072 122.915L82.3125 113.716Z" fill="#EE779A"/>
<path d="M46.4098 64.6047C45.3769 65.8729 46.9645 68.8007 48.3225 70.3859C49.5653 71.7575 51.1927 72.7445 53.0039 73.2252C54.813 73.7253 56.726 73.7462 58.5461 73.2858C59.4642 73.0713 62.9549 72.2508 64.8724 69.2157C65.5748 68.1005 65.9578 66.8223 65.9818 65.5139C65.9818 64.6747 65.8192 63.1408 65.2119 63.0103C64.839 62.9263 64.4995 63.4299 64.1169 63.7982C63.6387 64.2411 62.6202 65.0057 58.4122 64.9684C56.1695 64.9684 55.5957 64.7259 52.1193 64.4089C47.2179 63.9753 46.6871 64.2644 46.4098 64.6047Z" fill="#461C19"/>
<mask id="mask0_1_2703" style="mask-type:luminance" maskUnits="userSpaceOnUse" x="46" y="63" width="20" height="11">
<path d="M46.4098 64.6047C45.3769 65.8729 46.9645 68.8007 48.3225 70.3859C49.5653 71.7575 51.1927 72.7445 53.0039 73.2252C54.813 73.7253 56.726 73.7462 58.5461 73.2858C59.4642 73.0713 62.9549 72.2508 64.8724 69.2157C65.5748 68.1005 65.9578 66.8223 65.9818 65.5139C65.9818 64.6747 65.8192 63.1408 65.2119 63.0103C64.839 62.9263 64.4995 63.4299 64.1169 63.7982C63.6387 64.2411 62.6202 65.0057 58.4122 64.9684C56.1695 64.9684 55.5957 64.7259 52.1193 64.4089C47.2179 63.9753 46.6871 64.2644 46.4098 64.6047Z" fill="white"/>
</mask>
<g mask="url(#mask0_1_2703)">
<path d="M59.9504 72.9038C60.1417 72.1019 59.1184 71.0949 58.3915 70.6473C58.0873 70.4234 57.7373 70.2659 57.3652 70.1855C56.9932 70.105 56.6077 70.1035 56.2349 70.1811C55.8047 70.3113 55.4237 70.5627 55.1399 70.9037C54.7776 70.7076 54.3557 70.6432 53.9492 70.7219C52.6964 71.0016 51.8309 72.9784 52.3473 73.8782C53.2989 75.5566 59.5296 74.6242 59.9504 72.9038Z" fill="#BD1823"/>
<path d="M53.1567 74.9084C52.6788 74.7839 52.2659 74.4895 51.9995 74.0832C51.85 73.7507 51.78 73.3895 51.7949 73.0268C51.8099 72.6641 51.9092 72.3095 52.0856 71.9898C52.2334 71.6023 52.4708 71.2531 52.7792 70.9693C53.0877 70.6856 53.459 70.4748 53.8644 70.3534C54.2557 70.2696 54.6638 70.3021 55.036 70.4466C55.3378 70.1512 55.7111 69.9347 56.1214 69.8172C56.548 69.7211 56.9908 69.7155 57.4198 69.8008C57.8488 69.886 58.254 70.0602 58.608 70.3114C59.44 70.8289 60.5924 71.9619 60.3438 72.9922C60.0617 74.1531 58.1298 74.8198 56.4227 75.0529C55.336 75.2337 54.2221 75.1844 53.1567 74.9084ZM54.7108 71.1786C54.4969 71.1005 54.2644 71.0844 54.0413 71.132C53.7608 71.2281 53.506 71.3844 53.2958 71.5893C53.0856 71.7943 52.9253 72.0427 52.8267 72.3162C52.7066 72.5278 52.6335 72.7617 52.612 73.0026C52.5906 73.2436 52.6214 73.4862 52.7024 73.7149C53.0324 74.293 54.553 74.5354 56.3079 74.293C58.0629 74.0505 59.4113 73.4305 59.5548 72.829C59.6791 72.3255 58.9284 71.463 58.1776 70.9968C57.9197 70.8075 57.6236 70.6735 57.3088 70.6036C56.994 70.5337 56.6676 70.5294 56.351 70.5912C55.9954 70.6951 55.6815 70.9035 55.452 71.1879L55.2464 71.4257L54.9642 71.2905C54.8832 71.2436 54.7984 71.2031 54.7108 71.1693V71.1786Z" fill="#1D1E1C"/>
</g>
<path d="M52.382 73.6912C50.6345 73.1466 49.0755 72.1414 47.8775 70.7867C46.4429 69.1269 44.6067 65.8867 45.9361 64.2596C46.4143 63.6395 47.2176 63.4017 52.1525 63.854C53.4961 63.9752 54.4143 64.0871 55.1507 64.1757C56.2253 64.3203 57.308 64.3997 58.3927 64.4134C62.6007 64.4507 63.3993 63.6721 63.6528 63.4157C63.734 63.3411 63.8058 63.2572 63.8823 63.1779C64.2361 62.8003 64.6761 62.3294 65.3168 62.4646C66.4406 62.7117 66.5601 64.7025 66.5553 65.5463C66.5341 66.9648 66.1211 68.3515 65.3599 69.5605C64.4035 71.0384 62.4908 72.9919 58.6653 73.8964C56.7404 74.3778 54.7189 74.3521 52.8076 73.8218L52.382 73.6912ZM46.8637 64.9962C46.1895 65.8214 47.3419 68.3763 48.7765 70.0221C49.9297 71.3096 51.4466 72.2372 53.1375 72.6889C54.8427 73.1665 56.6485 73.1858 58.364 72.7448C61.1279 72.0968 63.1459 70.8193 64.3174 68.9404C64.9632 67.917 65.315 66.7431 65.336 65.5417C65.3578 64.9078 65.2589 64.2755 65.0443 63.6768C64.9582 63.7514 64.853 63.8679 64.7717 63.9519C64.6904 64.0358 64.5948 64.143 64.5039 64.2316C63.844 64.875 62.5434 65.6303 58.3688 65.5697C57.2375 65.5621 56.1079 65.4795 54.9881 65.3226C54.2612 65.2386 53.3527 65.1267 52.0281 65.0055C48.0305 64.6419 47.012 64.7864 46.859 64.9729L46.8637 64.9962Z" fill="#1D1E1C"/>
<path d="M54.5831 57.8394C54.5086 57.8386 54.4357 57.8176 54.3727 57.7788C54.0214 57.5638 53.7181 57.2822 53.4807 56.9506C53.2432 56.619 53.0766 56.2442 52.9908 55.8486C52.9206 55.5415 52.915 55.2238 52.9741 54.9145C53.0333 54.6052 53.1561 54.3108 53.335 54.049C53.6363 53.6687 54.0418 53.3794 54.5047 53.2144C54.9676 53.0494 55.4689 53.0155 55.9507 53.1166C56.001 53.1245 56.0491 53.142 56.0924 53.1681C56.1357 53.1942 56.1733 53.2283 56.2031 53.2686C56.2328 53.3089 56.2542 53.3545 56.2658 53.4028C56.2775 53.4511 56.2793 53.5012 56.2711 53.5502C56.2524 53.6489 56.195 53.7367 56.1112 53.795C56.0273 53.8533 55.9235 53.8775 55.8216 53.8625C55.4858 53.787 55.1351 53.8036 54.8085 53.9106C54.4818 54.0176 54.1919 54.2108 53.971 54.4686C53.8527 54.6468 53.7727 54.8464 53.7357 55.0556C53.6987 55.2647 53.7056 55.479 53.7559 55.6855C53.8202 55.9814 53.9453 56.2616 54.1236 56.5092C54.302 56.7568 54.5298 56.9666 54.7935 57.1261C54.8368 57.1518 54.8745 57.1857 54.9042 57.2258C54.934 57.2659 54.9552 57.3113 54.9668 57.3595C54.9784 57.4076 54.98 57.4575 54.9716 57.5063C54.9632 57.5551 54.9449 57.6018 54.9178 57.6436C54.882 57.6987 54.8326 57.7442 54.7741 57.7759C54.7157 57.8077 54.65 57.8247 54.5831 57.8254V57.8394Z" fill="#1D1E1C"/>
<path d="M39.9505 54.5203C41.6289 54.5203 42.987 52.1892 42.987 49.3219C42.987 46.4546 41.6289 44.1235 39.9505 44.1235C38.2721 44.1235 36.9141 46.4546 36.9141 49.3219C36.9141 52.1892 38.2578 54.5203 39.9505 54.5203Z" fill="#000100"/>
<path d="M68.52 54.52C70.1984 54.52 71.5564 52.1889 71.5564 49.3217C71.5564 46.4544 70.1984 44.1233 68.52 44.1233C66.8415 44.1233 65.4883 46.4544 65.4883 49.3217C65.4883 52.1889 66.8463 54.52 68.52 54.52Z" fill="#000100"/>
<path d="M40.0925 33.1953C38.285 32.5985 36.4345 33.9086 35.6215 34.4821C34.6377 35.2638 33.8217 36.227 33.2203 37.3166C32.6188 38.4063 32.2437 39.6009 32.1165 40.832C32.0782 41.2516 31.9634 42.3892 32.4034 42.5757C32.8433 42.7622 33.3597 42.1095 33.7997 41.7039C35.4111 40.128 37.3813 38.9485 39.1266 37.5079C41.2211 35.7922 41.8236 35.3492 41.7375 34.6826C41.6466 33.9226 40.7094 33.3958 40.0925 33.1953Z" fill="#572318"/>
<path d="M32.5479 43.2327C32.4115 43.2326 32.2765 43.2057 32.151 43.1535C31.2807 42.7852 31.4098 41.4751 31.4815 40.7711C31.614 39.4506 32.0155 38.1691 32.6626 37.0019C33.3096 35.8346 34.1891 34.8051 35.2496 33.9736C36.1247 33.3535 38.1809 31.8942 40.304 32.5749C41.1791 32.864 42.255 33.568 42.3793 34.5936C42.5037 35.6193 41.8533 36.0856 39.9358 37.6567L39.5437 37.9784C38.8503 38.5426 38.1092 39.0787 37.411 39.5915C36.2993 40.3601 35.2461 41.2062 34.2598 42.1231L34.1833 42.1977C33.7194 42.6779 33.1552 43.2327 32.5479 43.2327ZM39.1373 33.6752C37.8701 33.6752 36.6077 34.5703 36.0099 34.9946C34.18 36.4716 33.0161 38.5887 32.7679 40.8923C32.728 41.2015 32.7168 41.5136 32.7344 41.8248C32.9209 41.6756 33.1408 41.4564 33.2699 41.3306L33.3465 41.256C34.3784 40.2962 35.4794 39.4097 36.6411 38.6032C37.3345 38.0996 38.0518 37.5775 38.7165 37.0367L39.1086 36.715C40.457 35.61 41.1265 35.0552 41.1265 34.7708C41.0787 34.3745 40.4666 33.9736 39.9167 33.7918C39.6664 33.7065 39.4022 33.667 39.1373 33.6752Z" fill="#1D1E1C"/>
<path d="M106.937 121.87C105.599 121.824 104.323 121.745 103.112 121.633C104.31 121.514 105.434 121.014 106.311 120.211C107.009 119.53 107.927 118.215 107.492 117.632C107.253 117.301 106.66 117.311 106.239 117.357C105.708 117.735 105.15 118.076 104.57 118.378C103.389 118.989 101.816 119.777 99.8412 119.665C99.1979 119.62 98.5648 119.483 97.9619 119.26L80.5656 101.893C76.262 96.6198 70.9302 90.5776 63.6284 85.8641C62.8537 85.3652 62.1269 85.0482 61.3618 84.5913V81.4909C67.5812 81.3178 73.6676 79.6952 79.1119 76.7588C84.2524 73.9615 87.3463 70.0872 89.3403 67.7001C89.9133 68.7072 90.7873 69.5204 91.846 70.0312C94.3803 71.1968 96.9912 69.9147 97.9284 69.4531C99.3208 68.7557 100.52 67.7409 101.424 66.495C102.328 65.2491 102.91 63.8089 103.122 62.2966C103.222 61.5133 103.848 56.7019 100.3 54.562C98.1914 53.2985 95.3271 53.485 92.8932 54.8697C93.6794 51.0929 93.8953 47.2243 93.5339 43.3866C93.2088 40.0531 92.0659 29.9221 83.7216 21.1991C78.8094 16.2479 72.6018 12.7009 65.7706 10.9422C59.3874 9.25461 52.6584 9.25461 46.2751 10.9422C39.444 12.7009 33.2363 16.2479 28.3241 21.1991C19.9751 29.9221 18.837 40.0531 18.5118 43.3866C18.1403 47.2278 18.3481 51.1013 19.1287 54.8837C16.69 53.485 13.8304 53.3125 11.7168 54.5759C8.17351 56.7066 8.79993 61.5273 8.90035 62.3106C9.11151 63.8234 9.69438 65.2641 10.5994 66.5102C11.5044 67.7562 12.7047 68.7706 14.0982 69.4671C15.0546 69.9333 17.6511 71.2108 20.1807 70.0452C21.2383 69.5329 22.1119 68.7201 22.6864 67.7141C24.6852 70.1011 27.779 73.9615 32.9147 76.7728C38.3675 79.7097 44.4618 81.3323 50.6888 81.5049V84.6053C49.9189 85.0715 49.192 85.3792 48.4174 85.8781C41.1394 90.5776 35.8125 96.6012 31.5088 101.893L14.0886 119.26C13.4855 119.482 12.8526 119.619 12.2094 119.665C10.2345 119.796 8.66126 118.989 7.47537 118.378C6.89512 118.077 6.33745 117.736 5.80651 117.357C5.39049 117.311 4.79754 117.301 4.55367 117.632C4.1233 118.215 5.03185 119.53 5.73956 120.211C6.61618 121.015 7.74073 121.515 8.93861 121.633C7.7288 121.745 6.44727 121.824 5.11314 121.87C3.48732 121.926 1.94757 121.922 0.503459 121.87C0.4428 122.252 0.502852 122.642 0.675605 122.989C1.50286 124.565 5.02707 124.798 9.44548 123.67C7.15191 124.741 4.64351 125.303 2.10059 125.316C1.77018 125.322 1.43967 125.31 1.11075 125.279C1.01478 125.42 0.951388 125.58 0.924968 125.747C0.898549 125.914 0.909728 126.085 0.957733 126.248C1.37853 127.355 4.56642 127.456 10.5214 126.551C9.10531 127.236 7.75467 128.043 6.48553 128.962C5.38571 129.74 4.30501 130.542 4.48194 130.962C4.70669 131.526 6.87286 131.181 7.11195 131.148C8.60388 130.915 11.2578 130.123 14.1747 126.952C14.1763 127.853 14.3993 128.74 14.825 129.54C15.1932 130.22 15.8627 131.461 17.216 131.754H17.2446C17.4186 131.785 17.597 131.781 17.7695 131.744C17.9421 131.707 18.1054 131.637 18.2502 131.538C18.395 131.439 18.5184 131.314 18.6134 131.168C18.7083 131.023 18.7729 130.861 18.8035 130.691C18.8418 130.511 18.8418 130.326 18.8035 130.146C18.7179 129.803 18.6651 129.454 18.6457 129.102C18.5788 127.95 18.6075 127.456 18.5501 126.388C18.5118 125.754 18.6362 124.808 17.938 123.712L44.9506 102.34C41.6654 112.882 39.3654 121.684 38.6911 128.071C37.3092 141.153 36.3002 151.569 35.3869 163.551C35.2052 165.882 35.2195 173.845 33.6798 181.934C33.3127 184.043 32.8177 186.129 32.1974 188.181C31.7623 189.575 31.1177 190.898 30.2847 192.107C29.9833 192.667 29.5056 193.118 28.9219 193.394C28.0571 193.617 27.1709 193.753 26.2775 193.799C24.8669 193.878 22.2273 194.415 20.4293 195.813C18.7896 197.236 17.7261 199.184 17.4311 201.305C21.3475 201.305 37.6009 201.837 38.6194 201.305C40.2835 200.438 39.9057 197.156 40.054 196.321C40.3026 195.049 40.4748 192.843 40.6804 192.125C41.4264 189.487 47.9153 173.64 55.9822 143.042C64.0348 173.64 70.5286 189.487 71.2841 192.125C71.4897 192.853 71.6619 195.058 71.9105 196.321C72.0731 197.156 71.6906 200.438 73.3451 201.305C74.3636 201.837 90.617 201.305 94.5333 201.305C94.2385 199.202 93.19 197.268 91.5734 195.846C89.7802 194.447 87.1167 193.916 85.73 193.836C84.8366 193.79 83.9505 193.654 83.0856 193.431C82.4999 193.158 82.0214 192.706 81.7228 192.144C80.8859 190.937 80.2411 189.614 79.8101 188.218C79.186 186.167 78.6894 184.081 78.3229 181.971C76.788 173.882 76.8023 165.928 76.6206 163.588C75.7025 151.606 74.7079 141.209 73.3164 128.108C72.6421 121.726 70.3373 112.919 67.0713 102.378L94.0743 123.749C93.3809 124.845 93.5053 125.791 93.467 126.425C93.4048 127.493 93.4383 127.987 93.3714 129.139C93.352 129.491 93.2991 129.841 93.2136 130.183C93.1249 130.517 93.1758 130.872 93.3552 131.169C93.5345 131.466 93.8276 131.682 94.1699 131.768C94.3586 131.818 94.5563 131.826 94.7485 131.792H94.7772C96.14 131.498 96.8095 130.258 97.1681 129.577C97.5927 128.777 97.8187 127.891 97.828 126.99C100.745 130.155 103.399 130.948 104.891 131.186C105.101 131.218 107.282 131.563 107.516 130.999C107.688 130.565 106.617 129.778 105.536 128.999C104.266 128.081 102.916 127.275 101.5 126.589C107.468 127.493 110.656 127.392 111.064 126.286C111.109 126.121 111.117 125.95 111.088 125.782C111.058 125.615 110.991 125.456 110.892 125.316C110.567 125.339 110.237 125.348 109.897 125.353C107.356 125.339 104.85 124.777 102.557 123.707C106.976 124.836 110.5 124.602 111.327 123.027C111.495 122.678 111.555 122.289 111.499 121.908C110.098 121.922 108.549 121.926 106.937 121.87Z" stroke="black" stroke-linecap="round" stroke-linejoin="round"/>
<path d="M57.4102 6.90492C50.7021 6.40152 43.966 7.4312 37.7378 9.91205C27.0982 14.1547 21.0014 21.3951 18.3666 24.5747C14.8256 28.885 11.9781 33.6955 9.92188 38.8411L11.0839 39.629C12.2983 36.4784 13.8279 33.4521 15.6505 30.5937C16.2195 29.6985 16.7169 28.9899 16.9559 28.6588C18.6352 26.2764 20.5335 24.048 22.6272 22.0012C21.1926 24.1505 19.2799 27.2229 17.0803 31.0086C11.7342 40.2584 11.8203 41.9602 12.112 42.9952C13.5848 48.0024 23.3923 48.6504 24.5112 48.7157C25.5643 41.8703 27.7119 35.2284 30.8759 29.0318C35.2417 20.5699 38.3594 19.4043 40.1096 19.1666C41.3194 19.0234 42.5466 19.1938 43.6672 19.6607C48.2435 21.6842 50.0845 30.1181 48.7838 40.4496L49.9745 40.3424C50.0574 37.1068 50.1371 33.8728 50.2136 30.6403C50.2534 33.5092 51.0646 36.3177 52.5662 38.7852C54.8137 42.3798 57.941 43.9136 60.0402 44.9113C68.6475 48.9954 77.8382 46.6783 81.0803 45.6992C80.6882 40.4651 80.2992 35.2295 79.9135 29.9922L82.8161 44.7855L83.7294 44.7062L81.5345 29.9736C83.1086 33.0681 84.1322 36.4008 84.5614 39.8295C84.8379 42.0043 84.878 44.2016 84.681 46.3846C86.697 46.7944 88.7695 46.87 90.8113 46.6084C93.7613 46.2124 96.5767 45.1543 99.036 43.5173C99.1956 41.7725 99.1683 40.0163 98.9548 38.277C97.8071 28.9526 91.4903 22.915 88.7503 20.6165C91.4153 22.2772 93.9869 24.0763 96.4539 26.006C97.1329 26.5422 97.7928 27.0737 98.4383 27.6098L99.0647 26.6401C97.4338 24.6446 95.6618 22.7627 93.7617 21.0081C88.7093 16.3296 82.7715 12.6543 76.2793 10.1871C71.789 8.50302 67.0798 7.43755 62.2877 7.02147C64.9271 5.66214 67.9408 5.15446 70.895 5.57152C72.8305 5.79604 74.7074 6.36493 76.4323 7.24992C76.6475 7.24992 76.9105 7.20796 76.944 7.08208C77.0779 6.61586 74.2566 5.34307 72.6882 4.81624C70.9763 4.24279 67.6912 3.56677 62.8185 5.09597C63.8702 4.33246 64.9905 3.66305 66.1657 3.09588C67.5679 2.40672 69.0431 1.86893 70.565 1.49208L70.149 0.643555C67.5847 1.16958 65.1111 2.05198 62.8041 3.26372C60.8676 4.26971 59.0575 5.49163 57.4102 6.90492Z" fill="#683B13"/>
<path d="M19.8614 48.6923C16.5141 47.965 12.4974 46.4265 11.5458 43.1816C11.1441 41.8156 11.2445 39.918 16.5715 30.7102C17.0783 29.8181 17.598 28.937 18.1303 28.0667C17.896 28.3837 17.6522 28.7007 17.437 28.9991C17.1357 29.428 16.6671 30.1041 16.1459 30.9153C14.3518 33.7414 12.8418 36.7298 11.6366 39.8388C11.6035 39.9227 11.5521 39.9986 11.4861 40.0613C11.4201 40.1241 11.3409 40.1722 11.2541 40.2024C11.1698 40.2295 11.0802 40.2372 10.9923 40.2251C10.9044 40.213 10.8205 40.1813 10.7472 40.1325L9.56609 39.3259C9.45279 39.2461 9.3704 39.1314 9.33222 39.0002C9.29405 38.8691 9.30231 38.7293 9.35569 38.6033C11.431 33.3888 14.3127 28.5147 17.9008 24.1504C20.2583 21.2925 26.5081 13.6977 37.5063 9.31057C43.7382 6.81606 50.4793 5.76746 57.1979 6.24749C58.8196 4.87232 60.5935 3.67764 62.4866 2.68555C64.8495 1.44127 67.3846 0.536757 70.0132 0.000116177C70.1399 -0.0270149 70.2723 -0.0107665 70.3881 0.0461265C70.5039 0.103019 70.5961 0.197083 70.6492 0.312485L71.0604 1.16101C71.0984 1.24472 71.118 1.33523 71.118 1.42676C71.118 1.51828 71.0984 1.60879 71.0604 1.6925C71.0204 1.77346 70.9636 1.84548 70.8936 1.90405C70.8237 1.96261 70.7421 2.00646 70.654 2.03284C69.1783 2.41119 67.7496 2.94587 66.3933 3.62732L66.2834 3.67861C68.4891 3.35233 70.7426 3.53436 72.8632 4.2101C74.0443 4.60639 77.865 5.99107 77.4872 7.22656C77.315 7.79069 76.6456 7.81866 76.4256 7.82798C76.3263 7.83175 76.2276 7.8109 76.1387 7.76737C74.476 6.91431 72.6675 6.36447 70.8022 6.14492C69.0113 5.89912 67.1884 5.99892 65.437 6.43864C65.1931 6.50391 64.9588 6.56918 64.7149 6.64844C68.7524 7.17944 72.7119 8.17154 76.5117 9.60429C83.0803 12.0982 89.0893 15.813 94.2045 20.5419C96.1258 22.3132 97.9156 24.2155 99.5601 26.2344C99.6396 26.3367 99.6853 26.4602 99.6913 26.5883C99.6972 26.7165 99.6632 26.8435 99.5936 26.9524L98.9719 27.9222C98.9255 27.9923 98.8653 28.0527 98.7947 28.1C98.7241 28.1472 98.6445 28.1803 98.5607 28.1972C98.4764 28.2111 98.39 28.207 98.3075 28.1853C98.225 28.1636 98.1482 28.1247 98.0825 28.0713C97.4322 27.5305 96.7723 26.9944 96.1124 26.4769C95.2517 25.8055 94.3814 25.1481 93.492 24.5094C96.7923 28.4195 98.9013 33.1538 99.5792 38.1744C99.7992 39.9569 99.828 41.7569 99.6653 43.5452C99.6571 43.6381 99.6279 43.7279 99.58 43.8085C99.532 43.8891 99.4665 43.9584 99.388 44.0115C96.8503 45.6946 93.9494 46.7857 90.9098 47.2004C88.8042 47.4708 86.6668 47.3919 84.5882 46.9673C84.4433 46.9343 84.3153 46.8517 84.2276 46.7345C84.1398 46.6173 84.0981 46.4732 84.11 46.3286C84.1483 45.9137 84.177 45.4941 84.1961 45.0745C84.0933 45.1998 83.9437 45.2803 83.7801 45.2982L82.8667 45.3775C82.7225 45.3879 82.5793 45.3462 82.4646 45.2602C82.3499 45.1741 82.2718 45.0499 82.2451 44.9113L81.2648 39.9041L81.6904 45.6339C81.7013 45.773 81.6644 45.9117 81.5857 46.0281C81.5069 46.1446 81.3907 46.2323 81.2553 46.2773C76.7412 47.634 67.957 49.3357 59.7896 45.4568C57.8004 44.5243 54.4531 42.9205 52.0622 39.1208C51.4986 38.2201 51.0307 37.2656 50.6659 36.2722L50.5655 40.3423C50.5631 40.491 50.5057 40.6338 50.4037 40.7443C50.3018 40.8549 50.1622 40.9257 50.0108 40.9437L48.8249 41.0556C48.7365 41.0653 48.647 41.0543 48.5638 41.0234C48.4807 40.9926 48.4062 40.9429 48.3467 40.8785C48.2855 40.812 48.2396 40.7335 48.2124 40.6482C48.1852 40.5629 48.1772 40.4729 48.1889 40.3843C49.4752 30.1554 47.5577 22.0524 43.4071 20.2155C42.3834 19.7922 41.2656 19.6317 40.1602 19.7493C39.1321 19.8891 36.0144 20.3134 31.3856 29.2835C28.2576 35.4235 26.1312 42.0018 25.0831 48.7809C25.061 48.9287 24.984 49.0635 24.8668 49.1597C24.7496 49.2559 24.6003 49.3069 24.4471 49.3031C22.9052 49.2102 21.3724 49.0061 19.8614 48.6923ZM22.7639 21.4044C22.8571 21.4234 22.943 21.4669 23.0126 21.5302C23.1255 21.6295 23.1986 21.7646 23.2187 21.9115C23.2389 22.0584 23.2048 22.2075 23.1226 22.3322C21.2098 25.2414 19.3545 28.2625 17.5948 31.3116C12.1005 40.8179 12.4782 42.1139 12.6838 42.8086C13.8984 46.9393 21.7167 47.8811 24.0216 48.0723C25.1157 41.3581 27.2505 34.8452 30.3527 28.7567C34.7663 20.2015 38.0036 18.8401 40.0455 18.5604C41.364 18.416 42.6985 18.6072 43.9188 19.1152C47.0556 20.5139 49.0544 24.7099 49.6235 30.6449C49.6208 30.4885 49.6807 30.3373 49.7905 30.2232C49.9004 30.1092 50.0514 30.0414 50.2116 30.0341C50.2889 30.0335 50.3655 30.0477 50.4371 30.076C50.5087 30.1043 50.5739 30.146 50.6289 30.1988C50.684 30.2516 50.7279 30.3145 50.758 30.3838C50.7881 30.4532 50.804 30.5276 50.8046 30.6029C50.8411 33.3683 51.6264 36.0751 53.0807 38.4494C55.2852 41.9741 58.4316 43.466 60.3109 44.3611C67.8518 47.9417 75.9953 46.5337 80.4663 45.2563L79.3378 30.0528C79.3183 29.8958 79.3615 29.7375 79.4586 29.6107C79.5556 29.484 79.699 29.3985 79.859 29.3721C79.934 29.3601 80.0108 29.3627 80.0848 29.3796C80.1588 29.3966 80.2287 29.4276 80.2904 29.4709C80.3522 29.5142 80.4045 29.5689 80.4446 29.632C80.4846 29.695 80.5115 29.7651 80.5237 29.8383L82.2499 38.6639L80.9684 30.0761C80.9445 29.9349 80.9714 29.7899 81.0446 29.6659C81.1178 29.5418 81.2328 29.4462 81.37 29.3954C81.5038 29.3483 81.6508 29.3513 81.7825 29.4038C81.9141 29.4564 82.021 29.5547 82.0825 29.6798C83.6918 32.8368 84.7396 36.2372 85.1812 39.7362C85.4401 41.7744 85.4961 43.8323 85.3485 45.881C87.142 46.1939 88.9743 46.2348 90.7807 46.0022C93.5407 45.6298 96.1808 44.6614 98.5081 43.1676C98.631 41.5673 98.5958 39.9592 98.4029 38.3655C97.3318 29.7358 91.6701 23.8334 88.3898 21.0827C88.2741 20.9807 88.2007 20.8411 88.1831 20.69C88.1655 20.539 88.2049 20.3868 88.2941 20.2621C88.3766 20.136 88.507 20.0471 88.6568 20.0147C88.8065 19.9824 88.9633 20.0093 89.0927 20.0896C91.7763 21.7612 94.3655 23.5728 96.8488 25.5164C97.327 25.9081 97.8434 26.3044 98.336 26.71C96.8062 24.8605 95.1529 23.1115 93.3868 21.4743C88.3888 16.8407 82.5145 13.1988 76.0909 10.7512C71.6504 9.08293 66.9924 8.02838 62.2523 7.61818C62.1138 7.61306 61.9816 7.56083 61.8785 7.47056C61.7754 7.38028 61.708 7.25766 61.688 7.12399C61.6651 6.99451 61.6847 6.86128 61.7439 6.74326C61.8032 6.62525 61.8991 6.52844 62.018 6.46662C64.5964 5.14593 67.5182 4.59922 70.4149 4.89545C67.9008 4.5842 65.3469 4.84757 62.9552 5.66471C62.8204 5.70738 62.6742 5.69949 62.5451 5.64258C62.4159 5.58567 62.3133 5.48384 62.2571 5.35701C62.1961 5.22634 62.1828 5.07927 62.2193 4.9402C62.2558 4.80113 62.34 4.67841 62.4579 4.5924C63.5402 3.81324 64.6907 3.12837 65.896 2.54569L66.2738 2.36852C65.1601 2.77481 64.0754 3.25297 63.0269 3.79983C61.1382 4.78658 59.3731 5.98343 57.7669 7.36642C57.7093 7.41809 57.6413 7.4576 57.5672 7.48247C57.4932 7.50734 57.4146 7.51704 57.3366 7.51095C50.7165 7.00761 44.0675 8.02312 37.9223 10.4761C27.211 14.7467 21.0999 22.1643 18.795 24.957C15.4026 29.0893 12.6582 33.6898 10.6516 38.608L10.8094 38.7199C11.9915 35.7928 13.4431 32.9762 15.1465 30.3045C15.6821 29.4747 16.1602 28.78 16.4711 28.3464C18.172 25.9312 20.0924 23.6702 22.2092 21.5909C22.2785 21.5181 22.3664 21.4647 22.4639 21.436C22.5614 21.4073 22.6649 21.4045 22.7639 21.4277V21.4044ZM82.8524 34.7663L84.22 43.9276C84.2304 42.5891 84.1522 41.2513 83.9857 39.9227C83.7618 38.1751 83.3826 36.4499 82.8524 34.7663Z" fill="#1D1E1C"/>
<path d="M94.6299 46.254C94.5098 46.225 94.4018 46.1607 94.3206 46.0698C94.2393 45.9789 94.1887 45.8658 94.1756 45.7458C93.4775 39.685 91.756 35.5682 90.3502 32.272C88.4757 27.8149 85.9174 21.7168 79.8014 16.8867C76.2986 14.1231 72.1901 12.1832 67.7943 11.2174C67.6412 11.1738 67.5109 11.0748 67.4301 10.9407C67.3493 10.8066 67.324 10.6475 67.3594 10.4958C67.3947 10.3441 67.4881 10.2114 67.6205 10.1245C67.7529 10.0377 67.9142 10.0034 68.0716 10.0286C72.6403 11.0261 76.9112 13.038 80.5522 15.9076C86.9072 20.9242 89.5372 27.1855 91.4548 31.7592C92.8893 35.1346 94.6347 39.326 95.3519 45.5733C95.3704 45.7307 95.3268 45.889 95.23 46.0163C95.1333 46.1435 94.9905 46.2302 94.8307 46.2587C94.7639 46.2664 94.6963 46.2649 94.6299 46.254Z" fill="#1D1E1C"/>
<path d="M80.9473 45.1955C80.8147 45.1683 80.6953 45.0983 80.6086 44.9968C80.5218 44.8952 80.4727 44.7682 80.4691 44.6361C80.2587 39.1253 78.9437 30.9431 73.8558 23.2784C71.7184 20.0615 68.1177 14.6766 61.3275 12.1357C59.5741 11.4839 57.7391 11.0637 55.8714 10.8863C55.7198 10.8568 55.5856 10.7716 55.4966 10.6484C55.4076 10.5252 55.3706 10.3733 55.3932 10.2242C55.4066 10.0666 55.4836 9.92062 55.6074 9.81834C55.7311 9.71606 55.8914 9.66585 56.0531 9.67875C58.0173 9.86622 59.947 10.3084 61.7913 10.9935C68.964 13.6649 72.6604 19.2456 74.8744 22.5838C80.1344 30.4769 81.4733 38.9015 81.6885 44.5615C81.6957 44.6414 81.6867 44.7219 81.662 44.7984C81.6373 44.8749 81.5974 44.9459 81.5446 45.0074C81.4918 45.0689 81.427 45.1196 81.3541 45.1567C81.2811 45.1938 81.2014 45.2165 81.1194 45.2235C81.0611 45.2213 81.0032 45.2119 80.9473 45.1955Z" fill="#1D1E1C"/>
<path d="M69.0401 45.1586C68.9525 45.1397 68.8707 45.1013 68.8009 45.0462C68.7312 44.9912 68.6756 44.9212 68.6384 44.8416C67.0696 41.5754 65.7898 38.1845 64.813 34.7059C64.2577 32.7407 63.8155 30.7469 63.4884 28.7336C63.1931 26.7274 62.662 24.761 61.9056 22.8732C60.6002 19.5817 58.6253 14.5465 54.0347 12.7655C52.7121 12.2601 51.2927 12.0406 49.8745 12.1221C49.7967 12.1246 49.719 12.1121 49.6461 12.0853C49.5732 12.0586 49.5064 12.018 49.4496 11.9661C49.3927 11.9141 49.3469 11.8517 49.3148 11.7825C49.2827 11.7133 49.2649 11.6386 49.2625 11.5627C49.2546 11.4042 49.3107 11.249 49.4189 11.1304C49.5271 11.0118 49.6787 10.9394 49.8411 10.9286C51.422 10.8354 53.0047 11.0788 54.4794 11.6419C59.5386 13.5907 61.6091 18.8917 63.0102 22.421C63.7894 24.3916 64.3365 26.4421 64.6408 28.5331C64.9578 30.506 65.3905 32.4596 65.9367 34.3842C66.9043 37.7842 68.1648 41.0984 69.7048 44.2914C69.7736 44.4358 69.7838 44.6003 69.7332 44.7517C69.6826 44.9031 69.5751 45.0302 69.4322 45.1073C69.3123 45.1704 69.1728 45.1886 69.0401 45.1586Z" fill="#1D1E1C"/>
<path d="M18.1995 46.7341H18.1709C18.0156 46.6888 17.8852 46.5853 17.8081 46.4464C17.731 46.3074 17.7136 46.1443 17.7596 45.9929C19.089 41.118 20.9803 36.4055 23.3974 31.9456C26.9312 25.4185 31.3257 17.3528 40.1816 13.7163C42.5975 12.7235 45.168 12.1355 47.7847 11.9773C47.94 11.9697 48.092 12.0223 48.2076 12.1236C48.3232 12.2249 48.3929 12.3668 48.4016 12.5181V12.5461C48.4083 12.706 48.3513 12.8623 48.2426 12.9822C48.1339 13.1021 47.9818 13.1764 47.8182 13.1895C45.33 13.3387 42.8856 13.8967 40.5881 14.8399C32.1529 18.3132 27.8732 26.1877 24.4351 32.5144C22.0653 36.8919 20.2109 41.5167 18.9073 46.3006C18.8666 46.4462 18.7713 46.5717 18.6402 46.652C18.5091 46.7324 18.3518 46.7617 18.1995 46.7341Z" fill="#1D1E1C"/>
<path d="M59.5598 43.853C59.477 43.835 59.3993 43.7994 59.3323 43.7486C59.2653 43.6978 59.2107 43.6331 59.1725 43.5593C57.8104 41.026 56.7299 38.3581 55.9495 35.6009C55.6243 34.4447 55.1749 32.1462 54.2807 27.5632L54.1324 26.8079C53.3386 22.7472 52.98 20.8916 51.8084 18.5045C51.28 17.4325 50.6644 16.4036 49.9674 15.4275C49.8755 15.2958 49.8381 15.135 49.863 14.9775C49.8878 14.82 49.973 14.6776 50.1013 14.5789C50.2162 14.4858 50.3642 14.4408 50.5131 14.4539C50.6619 14.467 50.7993 14.5371 50.8951 14.6489C50.9074 14.6636 50.9186 14.6792 50.9286 14.6955C51.668 15.7295 52.319 16.821 52.8748 17.9591C54.1181 20.5139 54.515 22.5187 55.304 26.5748L55.4474 27.3255C56.3368 31.8758 56.7863 34.1603 57.0972 35.2512C57.8534 37.9242 58.9001 40.5109 60.2197 42.9672C60.2933 43.1097 60.3096 43.2738 60.2654 43.4274C60.2211 43.581 60.1195 43.7128 59.9806 43.7971C59.8515 43.8637 59.7024 43.8835 59.5598 43.853Z" fill="#1D1E1C"/>
</g>
<defs>
<clipPath id="clip0_1_2703">
<rect width="112" height="202" fill="white"/>
</clipPath>
</defs>
</svg>
