<svg width="190" height="379" viewBox="0 0 190 379" fill="none" xmlns="http://www.w3.org/2000/svg">
<path d="M189.949 1.24055C190.082 0.704478 189.755 0.162212 189.219 0.0293623C188.683 -0.103488 188.14 0.223385 188.008 0.759454L189.949 1.24055ZM93.9995 343.5L94.6575 344.253L93.9995 343.5ZM0.00726738 373.137L10.4371 378.092L9.5133 366.582L0.00726738 373.137ZM188.008 0.759454C180.7 30.2471 177.05 61.2335 174.199 92.3834C171.345 123.558 169.292 154.863 165.182 185.107C156.964 245.575 140.554 301.488 93.3415 342.747L94.6575 344.253C142.423 302.512 158.925 245.997 167.164 185.376C171.282 155.075 173.343 123.67 176.19 92.5658C179.04 61.4366 182.679 30.5746 189.949 1.24055L188.008 0.759454ZM93.3415 342.747C81.6902 352.929 65.2455 359.642 49.3206 364.04C33.4148 368.434 18.1302 370.492 8.88162 371.422L9.08177 373.412C18.3927 372.476 33.7989 370.403 49.8531 365.968C65.8883 361.539 82.6727 354.726 94.6575 344.253L93.3415 342.747Z" fill="#F7A81A"/>
</svg>
