<svg width="151" height="132" viewBox="0 0 151 132" fill="none" xmlns="http://www.w3.org/2000/svg">
<path d="M150.862 130.494C151.142 130.97 150.982 131.583 150.506 131.862C150.03 132.142 149.417 131.982 149.138 131.506L150.862 130.494ZM40.781 10.312L40.6034 11.2961L40.781 10.312ZM0.0230288 6.28905L9.92279 0.345306L10.1203 11.8906L0.0230288 6.28905ZM149.138 131.506C137.521 111.714 123.654 84.0674 105.969 60.0859C88.2844 36.1039 66.9619 16.0534 40.6034 11.2961L40.9587 9.32788C68.0952 14.2256 89.8129 34.8068 107.579 58.8988C125.345 82.9914 139.34 110.862 150.862 130.494L149.138 131.506ZM40.6034 11.2961C25.1887 8.51395 15.1766 7.46614 8.96778 7.13364L9.07473 5.13651C15.3878 5.47459 25.4855 6.5352 40.9587 9.32788L40.6034 11.2961Z" fill="#F7A81A"/>
</svg>
