<svg width="112" height="202" viewBox="0 0 112 202" fill="none" xmlns="http://www.w3.org/2000/svg">
<g clip-path="url(#clip0_1_2664)">
<path d="M17.5162 60.1328C11.5415 48.5166 15.7645 32.6817 23.8034 22.8952C27.0064 19.0314 30.9614 15.8247 35.4404 13.4599C46.6844 7.56857 57.7864 8.90855 62.426 9.53695C66.4171 10.0729 74.8584 11.2096 82.3907 16.6712C98.5442 28.3845 97.0671 50.1985 96.8825 52.4626C95.7462 56.2561 93.4548 61.8101 88.4459 66.5694C70.7206 83.43 28.4051 81.323 17.5162 60.1328Z" fill="#572318"/>
<path d="M49.9352 78.1532C48.3444 78.0192 46.7537 77.8298 45.1724 77.5756C31.7506 75.4132 21.4677 69.143 16.9653 60.3731C14.1247 54.8283 13.372 48.0221 14.8207 40.7261C16.1364 34.0907 19.0582 27.8584 23.3425 22.5486C26.594 18.6175 30.6181 15.3608 35.1783 12.97C46.8247 6.86156 58.2392 8.40023 62.5427 8.9778C66.6237 9.52766 75.1218 10.6736 82.782 16.2276C99.0491 28.024 97.714 50.0413 97.5057 52.5134C97.5105 52.5486 97.5105 52.5844 97.5057 52.6196C95.7824 58.3585 92.8945 63.187 88.9176 66.9436C80.2822 75.136 65.085 79.4054 49.9352 78.1532ZM18.0353 59.8879C22.3672 68.3252 32.3282 74.3643 45.3666 76.4667C61.6526 79.0912 78.8004 74.9511 88.0323 66.1719C91.9793 62.3534 94.8311 57.5913 96.3032 52.3609C96.5162 49.6994 97.6903 28.4676 82.0387 17.1194C74.6294 11.7456 66.3396 10.6505 62.3581 10.0914C58.1634 9.52766 47.0378 8.03058 35.7322 13.9542C31.3185 16.2759 27.4235 19.4333 24.2751 23.2417C14.1531 35.5788 13.4761 51.0024 18.0353 59.8879Z" fill="#1D1E1C"/>
<path d="M106.716 121.855C105.38 121.809 104.102 121.726 102.89 121.615C104.089 121.5 105.215 120.999 106.091 120.192C106.787 119.512 107.705 118.196 107.274 117.613C107.028 117.285 106.436 117.295 106.02 117.341C105.493 117.723 104.936 118.063 104.353 118.357C103.17 118.972 101.598 119.78 99.6188 119.646C98.9699 119.606 98.3312 119.469 97.7251 119.24L80.369 101.862C76.0466 96.571 70.7394 90.5642 63.4391 85.8327C62.6674 85.3337 61.9383 85.0148 61.1713 84.562V81.457C67.3891 81.28 73.4725 79.6494 78.9109 76.7023C84.0476 73.8976 87.1344 70.0348 89.1323 67.6459C89.7031 68.6575 90.5769 69.4749 91.6367 69.9886C94.1649 71.153 96.7735 69.873 97.7109 69.411C99.1075 68.7182 100.311 67.705 101.218 66.4584C102.125 65.2117 102.709 63.7688 102.919 62.2536C103.023 61.4681 103.648 56.6488 100.106 54.5187C97.9997 53.2526 95.1354 53.4375 92.702 54.8237C93.4845 51.0404 93.695 47.1657 93.3269 43.3229C93.005 39.9914 91.864 29.8584 83.5221 21.1439C78.6215 16.1883 72.427 12.6334 65.6074 10.863C59.2294 9.18108 52.5084 9.18108 46.1304 10.863C39.2888 12.6304 33.0736 16.1923 28.1589 21.1624C19.817 29.8861 18.6902 40.0192 18.3588 43.3414C17.9883 47.1841 18.1988 51.0592 18.9837 54.8421C16.5456 53.456 13.686 53.2711 11.5793 54.5372C8.03324 56.6673 8.65817 61.4681 8.73866 62.2721C8.95092 63.7866 9.5354 65.2285 10.4422 66.4748C11.349 67.7211 12.5513 68.7348 13.9464 69.4295C14.8933 69.8915 17.4972 71.1714 20.0253 70.007C21.0851 69.4933 21.9589 68.676 22.5298 67.6644C24.5229 70.0532 27.6144 73.93 32.7464 76.7023C38.185 79.6423 44.2667 81.2664 50.4812 81.4385V84.5574C49.7143 85.0195 48.9899 85.329 48.2135 85.8281C40.9416 90.5642 35.6438 96.5988 31.3214 101.862L13.9559 119.24C13.3497 119.469 12.711 119.606 12.0622 119.646C10.0879 119.78 8.52088 118.972 7.32783 118.357C6.75307 118.068 6.20223 117.736 5.68028 117.364C5.26366 117.318 4.67187 117.308 4.43042 117.636C3.99959 118.219 4.90385 119.536 5.614 120.215C6.48785 121.022 7.61213 121.523 8.80967 121.638C7.59768 121.749 6.32415 121.832 4.98433 121.878C3.36519 121.934 1.82654 121.924 0.382568 121.878C0.321756 122.259 0.381202 122.649 0.553004 122.996C1.38151 124.572 4.89912 124.803 9.31625 123.676C7.02556 124.749 4.51887 125.311 1.97804 125.321C1.63324 125.32 1.28873 125.301 0.945953 125.265C0.847408 125.404 0.780755 125.563 0.750527 125.729C0.7203 125.896 0.727208 126.067 0.770783 126.231C1.19372 127.334 4.38623 127.435 10.3483 126.536C8.93691 127.226 7.58759 128.032 6.31468 128.943C5.23525 129.724 4.1653 130.51 4.33573 130.944C4.55825 131.512 6.75024 131.166 6.95855 131.133C8.44986 130.898 11.1058 130.108 14.0174 126.942C14.0253 127.843 14.2507 128.73 14.6755 129.53C15.0448 130.209 15.7171 131.452 17.0758 131.743H17.1042C17.3255 131.783 17.5534 131.767 17.7669 131.698C17.9804 131.629 18.1727 131.509 18.326 131.348C18.4792 131.187 18.5886 130.992 18.644 130.779C18.6994 130.566 18.699 130.343 18.6429 130.131C18.5559 129.79 18.502 129.442 18.4819 129.091C18.4156 127.936 18.4488 127.446 18.3872 126.379C18.3541 125.746 18.4772 124.794 17.7812 123.699L44.7669 102.324C41.5002 112.868 39.1993 121.675 38.527 128.056C37.1494 141.142 36.1599 151.566 35.213 163.542C35.0331 165.89 35.0473 173.842 33.5087 181.932C33.141 184.041 32.6462 186.127 32.0268 188.18C31.6003 189.574 30.962 190.898 30.1331 192.107C29.7307 192.694 29.3235 193.221 28.7696 193.392C27.9065 193.619 27.0208 193.756 26.1278 193.798C24.7407 193.881 22.0847 194.431 20.2904 195.808C18.6528 197.233 17.5887 199.181 17.2889 201.302C21.2041 201.302 37.4429 201.834 38.4608 201.302C40.1273 200.434 39.7438 197.144 39.9095 196.317C40.1557 195.041 40.3261 192.842 40.5344 192.112C41.2777 189.469 47.7637 173.629 55.8121 143.018C63.8604 173.62 70.3465 189.469 71.0898 192.112C71.2933 192.842 71.4638 195.041 71.7147 196.317C71.8756 197.153 71.4969 200.434 73.1634 201.302C74.1765 201.834 90.4153 201.302 94.3306 201.302C94.0428 199.186 92.9941 197.239 91.3716 195.808C89.5773 194.422 86.9166 193.881 85.5294 193.798C84.6365 193.755 83.7508 193.619 82.8877 193.392C82.3026 193.121 81.8251 192.669 81.5289 192.107C80.6992 190.898 80.0608 189.574 79.6352 188.18C79.0008 186.129 78.4934 184.043 78.1155 181.932C76.5768 173.842 76.591 165.89 76.4111 163.542C75.4927 151.566 74.489 141.142 73.0971 128.056C72.4248 121.675 70.1239 112.868 66.862 102.324L93.8477 123.699C93.1517 124.794 93.2748 125.746 93.2369 126.379C93.1801 127.446 93.2085 127.936 93.1423 129.091C93.1245 129.442 93.0706 129.79 92.9813 130.131C92.938 130.298 92.9289 130.472 92.9545 130.642C92.9801 130.813 93.0398 130.977 93.1304 131.125C93.221 131.273 93.3406 131.402 93.4823 131.505C93.6241 131.608 93.7852 131.683 93.9566 131.725C94.1435 131.766 94.3377 131.766 94.5247 131.725H94.5531C95.9118 131.434 96.5841 130.191 96.9486 129.511C97.3749 128.712 97.602 127.825 97.6115 126.924C100.523 130.089 103.174 130.879 104.666 131.115C104.879 131.147 107.071 131.494 107.293 130.925C107.464 130.491 106.389 129.706 105.309 128.925C104.039 128.009 102.689 127.204 101.276 126.517C107.241 127.423 110.434 127.321 110.853 126.212C110.898 126.049 110.906 125.877 110.876 125.711C110.845 125.544 110.778 125.385 110.678 125.247C110.356 125.247 110.03 125.279 109.689 125.279C107.149 125.268 104.644 124.707 102.355 123.634C106.768 124.761 110.29 124.53 111.114 122.955C111.287 122.608 111.348 122.218 111.289 121.837C109.878 121.901 108.339 121.911 106.716 121.855Z" fill="#FAC497"/>
<path d="M38.6026 130.565C43.9997 130.62 50.1686 132.09 55.7598 132.03C62.0707 131.965 67.6524 130.32 73.7124 130.117C73.8023 130.981 73.8923 131.84 73.9775 132.704C74.7729 140.448 75.524 148.162 76.231 155.844C73.6628 154.616 70.803 154.084 67.9517 154.305C65.1004 154.526 62.3626 155.492 60.0254 157.101C58.6809 152.647 57.3332 148.18 55.9823 143.701L52.2469 157.346C47.2383 155.035 41.5452 154.56 36.207 156.006C36.8383 149.325 37.46 142.643 38.0724 135.962C38.7115 134.141 37.9445 132.358 38.6026 130.565Z" fill="#F9F5F2"/>
<path d="M55.8648 143.577L52.5981 139.663C52.0723 139.162 51.3807 138.861 50.6476 138.813C50.1235 138.804 49.605 138.919 49.1373 139.15C47.8022 139.867 47.717 142.089 47.575 144.778C47.4377 147.551 47.2436 150.323 47.13 153.095C46.9737 156.87 46.8932 158.756 46.8364 159.195C46.5841 161.425 46.535 163.674 46.6897 165.913C46.6935 166.616 46.9671 167.292 47.4566 167.807C47.876 168.131 48.3377 168.398 48.8296 168.602C51.3577 160.359 53.313 151.806 55.8648 143.577Z" fill="#EE779A"/>
<path d="M43.5545 140.499C41.9164 141.183 43.4882 144.931 42.3567 150.369C41.443 154.754 40.9838 156.944 39.464 158.959C39.3883 159.06 38.3657 160.405 37.1489 162.304C35.7286 164.513 35.402 165.358 35.5061 166.319C35.5061 166.481 35.7334 168.232 36.9832 168.713C37.4944 168.871 38.0413 168.882 38.5585 168.744C39.0758 168.606 39.5414 168.326 39.8996 167.937C40.0082 167.75 40.1737 167.602 40.373 167.512C40.5321 167.472 40.6977 167.463 40.8602 167.486C41.0227 167.509 41.1789 167.563 41.3199 167.646C41.9827 167.974 41.9448 168.389 42.4609 168.736C42.7522 168.918 43.084 169.029 43.4284 169.059C43.7728 169.09 44.1197 169.039 44.4398 168.912C45.3015 168.551 45.6092 167.595 45.756 167.123C46.5845 164.448 45.595 161.394 45.15 160.239C45.0116 159.892 44.9086 159.533 44.8422 159.167C44.3795 156.532 44.2065 153.857 44.3262 151.187C44.5866 145.707 46.0826 141.257 44.5487 140.499C44.3915 140.434 44.2224 140.4 44.0516 140.4C43.8808 140.4 43.7117 140.434 43.5545 140.499Z" fill="#EE779A"/>
<path d="M38.0996 132.173C37.5694 141.141 36.774 150.484 35.4531 159.351C36.1727 159.227 36.3006 159.162 37.3469 158.473C40.0454 156.658 40.6609 153.303 41.2811 149.292C41.6831 147.074 41.8213 144.818 41.693 142.569C41.5462 140.213 40.1827 136.516 38.0996 132.173Z" fill="#EE779A"/>
<path d="M35.1657 172.151C35.3408 172.031 37.5944 171.587 38.4797 171.92C38.6501 171.98 39.3224 172.266 39.7437 173.768C40.1651 175.27 39.9947 176.845 39.0857 179.655C38.5274 181.38 37.8602 183.07 37.0878 184.714C35.4213 188.337 34.143 190.111 32.3156 191.419C31.7071 191.803 30.989 191.987 30.2656 191.946C32.2398 188.522 33.0399 185.703 35.1657 172.151Z" fill="#EE779A"/>
<path d="M47.9845 171.818C47.6547 171.396 47.2078 171.075 46.6967 170.894C45.4374 170.483 44.2443 171.213 43.823 171.472C42.8335 172.082 41.9293 173.154 40.9209 176.554C40.3496 178.633 39.9632 180.755 39.7657 182.898C38.8188 190.753 37.2849 192.361 38.1655 193.498C38.6944 194.185 39.4092 194.715 40.2296 195.028C42.0429 187.209 45.9724 178.44 47.9845 171.818Z" fill="#EE779A"/>
<path d="M56.0234 143.577L59.2854 139.663C59.8123 139.164 60.5033 138.863 61.2359 138.813C61.7615 138.804 62.2815 138.919 62.7509 139.15C64.0813 139.867 64.1712 142.089 64.3085 144.778C64.4458 147.551 64.6399 150.323 64.7535 153.095C64.9145 156.87 64.9903 158.756 65.0518 159.195C65.3026 161.426 65.3501 163.674 65.1938 165.913C65.1938 166.617 64.9196 167.294 64.4269 167.807C64.0075 168.131 63.5458 168.398 63.0539 168.602C60.5258 160.359 58.5516 151.806 56.0234 143.577Z" fill="#EE779A"/>
<path d="M68.3284 140.499C69.9664 141.183 68.3946 144.931 69.5261 150.369C70.4399 154.754 70.8944 156.944 72.4188 158.959C72.4946 159.061 73.5124 160.405 74.7339 162.304C76.1542 164.513 76.4761 165.358 76.3767 166.32C76.3767 166.481 76.1495 168.232 74.8996 168.713C74.3885 168.871 73.8415 168.882 73.3243 168.744C72.8071 168.606 72.3415 168.326 71.9833 167.937C71.8734 167.751 71.7082 167.603 71.5098 167.512C71.3472 167.469 71.1773 167.459 71.0105 167.482C70.8438 167.505 70.6835 167.561 70.5393 167.646C69.8765 167.974 69.9144 168.39 69.3983 168.736C69.1078 168.918 68.7768 169.029 68.4332 169.059C68.0896 169.09 67.7434 169.039 67.4241 168.912C66.5625 168.551 66.25 167.595 66.1032 167.124C65.2795 164.448 66.2642 161.394 66.714 160.239C66.8507 159.892 66.9522 159.533 67.0169 159.167C67.482 156.533 67.655 153.857 67.533 151.187C67.2726 145.707 65.7766 141.257 67.3152 140.499C67.4755 140.433 67.6477 140.399 67.8218 140.399C67.9958 140.399 68.1681 140.433 68.3284 140.499Z" fill="#EE779A"/>
<path d="M73.7441 132.173C74.2743 141.141 75.0744 150.484 76.3906 159.351C75.6709 159.227 75.5431 159.162 74.4968 158.473C71.7983 156.658 71.2112 153.303 70.5673 149.292C70.1638 147.074 70.024 144.818 70.1507 142.569C70.3212 140.213 71.6846 136.516 73.7441 132.173Z" fill="#EE779A"/>
<path d="M76.6949 172.151C76.5244 172.031 74.2709 171.587 73.3808 171.92C73.2104 171.98 72.5334 172.266 72.112 173.768C71.6907 175.27 71.8659 176.845 72.7748 179.655C73.3336 181.379 73.9992 183.069 74.768 184.714C76.4345 188.337 77.7127 190.111 79.5402 191.419C80.1489 191.802 80.8669 191.987 81.5902 191.946C79.6302 188.522 78.8158 185.703 76.6949 172.151Z" fill="#EE779A"/>
<path d="M63.8828 171.818C64.2126 171.396 64.6595 171.075 65.1706 170.894C66.4251 170.483 67.6229 171.213 68.0443 171.472C69.0338 172.082 69.938 173.154 70.9464 176.554C71.5202 178.633 71.9114 180.755 72.1158 182.898C73.0627 190.753 74.5966 192.361 73.716 193.498C73.1871 194.185 72.4723 194.715 71.6518 195.028C69.8197 187.209 65.8902 178.44 63.8828 171.818Z" fill="#EE779A"/>
<path d="M106.897 121.855C105.562 121.809 104.284 121.726 103.072 121.615C104.271 121.5 105.396 120.999 106.272 120.192C106.968 119.512 107.882 118.196 107.456 117.613C107.21 117.285 106.618 117.295 106.201 117.341C105.675 117.723 105.117 118.063 104.535 118.357C103.351 118.972 101.779 119.78 99.8003 119.646C99.1515 119.606 98.5128 119.469 97.9066 119.24L80.5506 101.862C76.2234 96.571 70.9209 90.5642 63.6253 85.8327C62.8536 85.3337 62.1246 85.0148 61.3576 84.562V81.457C67.5737 81.2792 73.6555 79.6487 79.0924 76.7023C84.2291 73.8976 87.3159 70.0348 89.3138 67.6459C89.8841 68.6563 90.756 69.4734 91.8135 69.9886C94.3464 71.153 96.955 69.873 97.8924 69.411C99.2846 68.7154 100.483 67.7009 101.386 66.4544C102.289 65.208 102.869 63.7666 103.076 62.2536C103.181 61.4681 103.806 56.6488 100.264 54.5187C98.1528 53.2526 95.2933 53.4375 92.8598 54.8237C93.6453 51.044 93.8591 47.1723 93.4942 43.3322C93.1675 40.0007 92.0313 29.8676 83.6894 21.1531C78.7866 16.1937 72.5888 12.6356 65.7653 10.863C59.3873 9.18108 52.6662 9.18108 46.2882 10.863C39.4579 12.6343 33.2544 16.1961 28.3499 21.1624C20.008 29.8861 18.8812 40.0192 18.5498 43.3414C18.1714 47.1867 18.3788 51.0654 19.1653 54.8514C16.7271 53.4652 13.8675 53.2804 11.7608 54.5464C8.21475 56.6765 8.83969 61.4774 8.94384 62.2813C9.15572 63.7959 9.74005 65.238 10.6469 66.4844C11.5538 67.7307 12.7562 68.7444 14.1516 69.4387C15.0985 69.9008 17.7023 71.1807 20.2305 70.0163C21.2849 69.4984 22.1545 68.6819 22.7255 67.6736C24.7186 70.0625 27.8101 73.9253 32.9422 76.7301C38.3751 79.6672 44.4499 81.2912 50.658 81.4662V84.5574C49.891 85.0195 49.162 85.329 48.3903 85.8281C41.1041 90.5642 35.797 96.5988 31.4745 101.871L14.0948 119.24C13.4886 119.469 12.8499 119.606 12.2011 119.646C10.2268 119.78 8.65505 118.972 7.46673 118.357C6.88305 118.062 6.32424 117.722 5.79551 117.341C5.37889 117.295 4.7871 117.285 4.54565 117.613C4.11483 118.196 5.01908 119.512 5.72923 120.192C6.60309 120.999 7.72736 121.5 8.9249 121.615C7.71292 121.726 6.43938 121.809 5.09957 121.855C3.48043 121.911 1.94177 121.901 0.4978 121.855C0.433554 122.236 0.493155 122.627 0.668236 122.973C1.49674 124.549 5.01435 124.78 9.42674 123.653C7.13771 124.725 4.63258 125.287 2.09327 125.297C1.7631 125.303 1.43284 125.292 1.10379 125.265C1.00845 125.406 0.94516 125.565 0.918206 125.731C0.891253 125.898 0.901264 126.068 0.947561 126.231C1.37049 127.334 4.56301 127.435 10.5251 126.536C9.11369 127.226 7.76437 128.032 6.49146 128.943C5.41203 129.724 4.34207 130.51 4.51251 130.944C4.73502 131.512 6.92702 131.166 7.13533 131.133C8.62664 130.898 11.2779 130.108 14.1942 126.942C14.1999 127.844 14.4255 128.731 14.8523 129.53C15.2216 130.209 15.8938 131.452 17.2526 131.743H17.281C17.5022 131.783 17.7301 131.767 17.9437 131.698C18.1572 131.629 18.3494 131.509 18.5027 131.348C18.656 131.187 18.7654 130.992 18.8208 130.779C18.8762 130.566 18.8758 130.343 18.8196 130.131C18.7327 129.79 18.6788 129.442 18.6587 129.091C18.5924 127.936 18.6255 127.446 18.564 126.379C18.5309 125.746 18.6539 124.794 17.958 123.699L44.9437 102.324C41.677 112.868 39.3761 121.675 38.7038 128.056C37.3261 141.142 36.3367 151.566 35.3898 163.542C35.2099 165.89 35.2241 173.842 33.6854 181.933C33.3147 184.042 32.8167 186.128 32.1941 188.18C31.7676 189.574 31.1293 190.898 30.3004 192.107C29.898 192.694 29.4908 193.221 28.9369 193.392C28.0739 193.619 27.1882 193.756 26.2952 193.798C24.908 193.881 22.252 194.431 20.4577 195.808C18.8201 197.233 17.756 199.181 17.4562 201.302C21.3715 201.302 37.6102 201.834 38.6281 201.302C40.2946 200.434 39.9111 197.144 40.0768 196.317C40.323 195.041 40.4934 192.842 40.7017 192.112C41.445 189.469 47.931 173.629 55.9794 143.018C64.0277 173.62 70.509 189.469 71.2571 192.112C71.4606 192.842 71.6311 195.041 71.882 196.317C72.043 197.153 71.6642 200.434 73.3307 201.302C74.3439 201.834 90.5826 201.302 94.4979 201.302C94.2001 199.181 93.1376 197.233 91.5011 195.808C89.7067 194.422 87.046 193.881 85.6589 193.798C84.7659 193.755 83.8803 193.619 83.0171 193.392C82.4317 193.12 81.953 192.669 81.6537 192.107C80.8248 190.898 80.1864 189.574 79.7599 188.18C79.159 186.128 78.6847 184.044 78.3396 181.937C76.801 173.846 76.8152 165.894 76.6353 163.547C75.7168 151.57 74.7131 141.146 73.3212 128.061C72.6584 121.68 70.3386 112.873 67.0719 102.324L94.0576 123.699C93.3616 124.794 93.4847 125.746 93.4469 126.379C93.3901 127.446 93.4185 127.936 93.3522 129.091C93.3344 129.442 93.2805 129.79 93.1912 130.131C93.1479 130.298 93.1388 130.472 93.1644 130.642C93.19 130.813 93.2498 130.977 93.3403 131.125C93.4309 131.273 93.5505 131.402 93.6923 131.505C93.834 131.608 93.9952 131.683 94.1665 131.725C94.3535 131.766 94.5476 131.766 94.7346 131.725H94.763C96.1218 131.434 96.794 130.191 97.1586 129.511C97.5848 128.712 97.8119 127.825 97.8214 126.924C100.733 130.089 103.384 130.879 104.876 131.115C105.089 131.147 107.281 131.494 107.503 130.925C107.674 130.491 106.599 129.706 105.519 128.925C104.249 128.009 102.899 127.204 101.486 126.517C107.451 127.423 110.644 127.321 111.063 126.212C111.108 126.049 111.116 125.877 111.085 125.711C111.055 125.544 110.988 125.385 110.888 125.247C110.566 125.247 110.24 125.279 109.899 125.279C107.359 125.268 104.854 124.707 102.565 123.634C106.978 124.761 110.5 124.53 111.324 122.955C111.497 122.608 111.558 122.218 111.499 121.837C110.064 121.901 108.516 121.911 106.897 121.855Z" stroke="black" stroke-linecap="round" stroke-linejoin="round"/>
<path d="M46.6223 64.5779C45.595 65.844 47.1763 68.792 48.5492 70.3584C49.7816 71.731 51.3972 72.7233 53.1983 73.2139C55.0038 73.7207 56.9161 73.7415 58.7327 73.274C59.6796 73.0614 63.1404 72.239 65.0531 69.2078C65.7571 68.0957 66.1399 66.8184 66.1609 65.5113C66.1609 64.675 65.9999 63.1409 65.3987 63.0116C65.0199 62.9284 64.6838 63.432 64.3003 63.8017C63.8269 64.2638 62.809 65.0077 58.6191 64.9707C56.3798 64.9707 55.8022 64.7258 52.3367 64.407C47.4082 63.9726 46.8685 64.2268 46.6223 64.5779Z" fill="#461C19"/>
<mask id="mask0_1_2664" style="mask-type:luminance" maskUnits="userSpaceOnUse" x="46" y="63" width="21" height="11">
<path d="M46.6223 64.5779C45.595 65.844 47.1763 68.792 48.5492 70.3584C49.7816 71.731 51.3972 72.7233 53.1983 73.2139C55.0038 73.7207 56.9161 73.7415 58.7327 73.274C59.6796 73.0614 63.1404 72.239 65.0531 69.2078C65.7571 68.0957 66.1399 66.8184 66.1609 65.5113C66.1609 64.675 65.9999 63.1409 65.3987 63.0116C65.0199 62.9284 64.6838 63.432 64.3003 63.8017C63.8269 64.2638 62.809 65.0077 58.6191 64.9707C56.3798 64.9707 55.8022 64.7258 52.3367 64.407C47.4082 63.9726 46.8685 64.2268 46.6223 64.5779Z" fill="white"/>
</mask>
<g mask="url(#mask0_1_2664)">
<path d="M60.1229 72.8764C60.317 72.0771 59.2896 71.0698 58.5653 70.6216C58.2611 70.3984 57.9113 70.2417 57.5397 70.162C57.168 70.0823 56.7832 70.0814 56.4112 70.1595C55.9829 70.2916 55.6031 70.542 55.3175 70.8803C54.9538 70.6904 54.5348 70.6269 54.1292 70.7001C52.8746 70.982 52.0082 72.955 52.529 73.856C53.4948 75.524 59.711 74.5999 60.1229 72.8764Z" fill="#BD1823"/>
<path d="M53.344 74.8818C52.8659 74.7607 52.4529 74.4667 52.1888 74.0593C52.0408 73.7259 51.9716 73.3641 51.9863 73.001C52.0011 72.6378 52.0994 72.2826 52.274 71.9616C52.4234 71.5754 52.6609 71.2274 52.9685 70.944C53.2761 70.6606 53.6457 70.4492 54.0494 70.3259C54.4418 70.2474 54.849 70.2794 55.2235 70.4183C55.5275 70.1263 55.8995 69.9107 56.3077 69.7899C56.7336 69.6934 57.1758 69.6881 57.604 69.7743C58.0323 69.8604 58.4363 70.036 58.7884 70.2889C59.6217 70.8018 60.7721 71.9385 60.5259 72.9689C60.2419 74.1287 58.315 74.8171 56.6059 75.0297C55.5206 75.2142 54.4071 75.1638 53.344 74.8818ZM54.9158 71.1576C54.7002 71.0829 54.4682 71.0654 54.2435 71.1068C53.9632 71.207 53.7089 71.3661 53.4986 71.5729C53.2884 71.7797 53.1273 72.0292 53.0268 72.3035C52.91 72.514 52.8389 72.7457 52.8177 72.9841C52.7965 73.2226 52.8258 73.4627 52.9037 73.6897C53.2351 74.2673 54.7501 74.5075 56.5065 74.2673C58.2629 74.027 59.6075 73.4032 59.7543 72.8072C59.8773 72.2989 59.1246 71.421 58.3718 70.9589C58.1147 70.7694 57.8193 70.6351 57.5051 70.565C57.1909 70.495 56.8651 70.4906 56.5491 70.5523C56.1971 70.6631 55.885 70.8699 55.6496 71.1483L55.446 71.384L55.162 71.25L54.9158 71.1576Z" fill="#1D1E1C"/>
</g>
<path d="M52.5719 73.6479C50.8252 73.1029 49.267 72.0971 48.0696 70.7416C46.6162 69.0827 44.8029 65.8391 46.1285 64.2126C46.6304 63.5934 47.4115 63.3532 52.3542 63.806C53.694 63.9307 54.6077 64.0416 55.3463 64.1294C56.4187 64.2817 57.5008 64.3605 58.5845 64.3651C62.7886 64.402 63.5887 63.6258 63.8538 63.367L64.0811 63.1314C64.4314 62.7525 64.8717 62.2812 65.5014 62.4198C66.6282 62.6647 66.7465 64.6562 66.7418 65.5018C66.7259 66.9199 66.3169 68.3075 65.5582 69.5171C64.6113 70.9957 62.7176 72.9502 58.8639 73.8512C56.9435 74.3399 54.9237 74.3144 53.017 73.7773L52.5719 73.6479ZM47.0943 64.9473C46.422 65.7744 47.5678 68.3296 48.9881 69.9745C50.1415 71.263 51.6579 72.1918 53.3484 72.6452C55.0468 73.1255 56.8473 73.1447 58.5561 72.7007C61.321 72.0538 63.3189 70.7739 64.5024 68.8979C65.1653 67.8794 65.5303 66.7034 65.5582 65.4971C65.5856 64.8686 65.4875 64.2409 65.2694 63.6489C65.1842 63.7274 65.08 63.8383 64.9995 63.9261L64.7297 64.2034C64.0669 64.8456 62.7744 65.5896 58.5987 65.5433C57.4693 65.5334 56.3417 65.4516 55.2232 65.2985C54.4941 65.2107 53.5851 65.0998 52.2642 64.9796C48.2684 64.6146 47.2506 64.7578 47.0991 64.9427L47.0943 64.9473Z" fill="#1D1E1C"/>
<path d="M54.7708 57.8176C54.6971 57.8162 54.6252 57.7954 54.5625 57.7576C54.2108 57.5419 53.9072 57.2593 53.6697 56.9267C53.4322 56.5941 53.2657 56.2182 53.1801 55.8215C53.1086 55.5151 53.102 55.1976 53.1606 54.8885C53.2192 54.5795 53.3419 54.2853 53.521 54.0241C53.8259 53.6475 54.2326 53.3614 54.6951 53.1981C55.1577 53.0349 55.6578 53.0009 56.139 53.1C56.1894 53.1079 56.2377 53.1253 56.2811 53.1514C56.3246 53.1775 56.3623 53.2117 56.3922 53.252C56.4221 53.2924 56.4436 53.3381 56.4554 53.3865C56.4672 53.4349 56.4691 53.4852 56.461 53.5343C56.4632 53.5434 56.4632 53.5529 56.461 53.562C56.4526 53.6137 56.4334 53.6632 56.4046 53.7074C56.3759 53.7516 56.3382 53.7896 56.2938 53.819C56.2495 53.8485 56.1994 53.8687 56.1468 53.8786C56.0941 53.8884 56.0399 53.8876 55.9875 53.8762C55.6525 53.8045 55.3037 53.8229 54.9785 53.9295C54.6533 54.0361 54.3639 54.2269 54.1411 54.4816C54.0235 54.6596 53.9435 54.8589 53.9061 55.0676C53.8687 55.2764 53.8746 55.4903 53.9234 55.6968C53.9885 55.9926 54.1138 56.2726 54.2919 56.5203C54.47 56.7679 54.6973 56.9781 54.9602 57.1384C55.0458 57.1956 55.105 57.2832 55.1254 57.3825C55.1457 57.4818 55.1255 57.5848 55.0691 57.6698C55.0351 57.7219 54.9882 57.7648 54.9328 57.7947C54.8774 57.8246 54.8152 57.8404 54.7519 57.8407L54.7708 57.8176Z" fill="#1D1E1C"/>
<path d="M40.1519 54.4912C41.8278 54.4912 43.1866 52.1809 43.1866 49.293C43.1866 46.4051 41.8278 44.104 40.1519 44.104C38.4759 44.104 37.1172 46.4143 37.1172 49.3022C37.1172 52.1901 38.4759 54.5235 40.1519 54.5235V54.4912Z" fill="#000100"/>
<path d="M68.6988 54.4909C70.3747 54.4909 71.7335 52.1806 71.7335 49.2927C71.7335 46.4048 70.3747 44.1038 68.6988 44.1038C67.0228 44.1038 65.6641 46.4141 65.6641 49.302C65.6641 52.1899 67.0276 54.5233 68.6988 54.5233V54.4909Z" fill="#000100"/>
<path d="M40.2966 33.1623C38.4881 32.5616 36.6417 33.8785 35.8321 34.4515C33.8487 36.0312 32.5887 38.3146 32.3287 40.8002C32.2861 41.2207 32.1772 42.3573 32.6175 42.5422C33.0578 42.727 33.5644 42.0801 34.0094 41.6689C35.6191 40.0979 37.5886 38.8965 39.3308 37.5103C41.4234 35.7914 42.0246 35.3525 41.9394 34.6825C41.8447 33.8924 40.9073 33.361 40.2966 33.1623Z" fill="#572318"/>
<path d="M32.7509 43.2029C32.6153 43.2029 32.4813 43.1746 32.3579 43.1197C31.4868 42.7547 31.6194 41.4424 31.6857 40.7401C31.8245 39.4188 32.2308 38.1377 32.8809 36.9709C33.5311 35.8041 34.4122 34.775 35.4731 33.9431C36.3537 33.3194 38.4037 31.8639 40.5294 32.557C41.41 32.8481 42.4799 33.555 42.6077 34.5808C42.7356 35.6066 42.0822 36.0733 40.1601 37.6443L39.7719 37.9631C39.0807 38.5314 38.3516 39.0628 37.6414 39.5803C36.5309 40.3511 35.4772 41.1972 34.4884 42.1124L34.4174 42.1817C33.925 42.6484 33.3663 43.2029 32.7509 43.2029ZM39.3411 33.6428C38.0723 33.6428 36.8082 34.5392 36.2117 34.9597C34.3852 36.4431 33.2235 38.5633 32.9734 40.8695C32.9364 41.1761 32.9253 41.4852 32.9402 41.7936C33.1288 41.6396 33.3075 41.4745 33.4752 41.2992L33.551 41.2253C34.5893 40.265 35.6968 39.3787 36.865 38.573C37.5562 38.0694 38.2853 37.5472 38.9386 37.002L39.3269 36.6832C40.6761 35.5788 41.3531 35.0197 41.32 34.7379C41.2727 34.3451 40.6619 33.9385 40.108 33.7583C39.8607 33.6784 39.6015 33.6394 39.3411 33.6428Z" fill="#1D1E1C"/>
<path d="M57.5099 6.87085C50.8139 6.37335 44.0911 7.40154 37.8719 9.87426C27.2197 14.1206 21.1172 21.3611 18.4991 24.5401C14.9622 28.8532 12.1176 33.6659 10.0625 38.8133L11.2224 39.6172C12.4413 36.4687 13.9681 33.4421 15.7816 30.5793C16.3544 29.6783 16.8515 28.9713 17.0882 28.6479C18.7752 26.2635 20.6764 24.0307 22.7694 21.9757C21.3491 24.1197 19.4081 27.1924 17.2255 30.9582C11.8852 40.1994 11.9515 41.9091 12.264 42.9718C13.7316 47.9806 23.5317 48.6321 24.6537 48.6922C25.7049 41.8484 27.8454 35.207 30.9977 29.0083C35.377 20.5387 38.4921 19.3696 40.2391 19.1525C41.439 19.0102 42.6563 19.1693 43.7757 19.6145C48.3443 21.643 50.1859 30.0756 48.884 40.4074L50.0723 40.2965L50.3138 30.5932C50.3567 33.4642 51.1731 36.2737 52.6809 38.7393C54.925 42.3342 58.0496 43.8682 60.1422 44.8663C68.7398 48.9555 77.9291 46.6314 81.1721 45.6518L80.0075 29.9416L82.9001 44.7277L83.8139 44.6491C83.0848 39.7389 82.3541 34.8272 81.6219 29.9139C83.1943 33.0092 84.2203 36.3412 84.6566 39.7697C84.9303 41.9453 84.9699 44.1428 84.7749 46.3264C86.7874 46.741 88.8576 46.8175 90.8964 46.5528C93.8463 46.1565 96.6615 45.0967 99.1199 43.457C99.2763 41.7137 99.2477 39.9594 99.0347 38.2218C97.8796 28.8558 91.5687 22.8536 88.8275 20.5525C91.494 22.2114 94.0654 24.0115 96.5303 25.9448C97.212 26.4808 97.8748 27.0122 98.5187 27.5482L99.1389 26.5824C97.5137 24.6021 95.7465 22.7368 93.8506 21.0007C88.8008 16.3195 82.8678 12.6396 76.381 10.1654C71.8933 8.48334 67.1883 7.4166 62.4005 6.99561C65.0421 5.63672 68.0567 5.12884 71.0122 5.54473C72.941 5.77652 74.8111 6.3463 76.5325 7.22664C76.7503 7.22664 77.0059 7.18505 77.0438 7.0603C77.1763 6.59823 74.3594 5.31832 72.7829 4.79619C71.0738 4.22323 67.7882 3.53938 62.9213 5.07343C65.2355 3.39572 67.8609 2.17177 70.6524 1.46934L70.2453 0.619141C67.6742 1.14257 65.1934 2.02331 62.8787 3.23442C60.953 4.24307 59.1518 5.46313 57.5099 6.87085Z" fill="#683B13"/>
<path d="M20.0067 48.6644C16.6501 47.9343 12.6543 46.3956 11.698 43.152C11.3003 41.7658 11.3997 39.9175 16.7258 30.6763C17.2324 29.7937 17.7532 28.9112 18.2787 28.0333C18.042 28.3475 17.8052 28.6663 17.5875 28.9851C17.2845 29.4102 16.8158 30.0895 16.2997 30.8981C14.5083 33.7278 12.999 36.7188 11.7926 39.8297C11.7611 39.9143 11.7101 39.9908 11.6436 40.0532C11.5772 40.1157 11.497 40.1625 11.4092 40.1901C11.3231 40.2222 11.2301 40.2323 11.1389 40.2193C11.0478 40.2064 10.9615 40.1709 10.8884 40.1162L9.72848 39.3168C9.61553 39.2362 9.53361 39.1208 9.49584 38.9893C9.45807 38.8577 9.46664 38.7176 9.52017 38.5914C11.5946 33.386 14.4681 28.5188 18.042 24.1566C20.4091 21.2964 26.649 13.6955 37.6421 9.31049C43.8686 6.81999 50.6017 5.77141 57.3132 6.24701C58.9363 4.87324 60.7098 3.6785 62.6014 2.68451C64.9626 1.44611 67.4925 0.542174 70.1148 -7.53328e-05C70.2419 -0.0239635 70.3735 -0.0055238 70.4885 0.0522876C70.6035 0.110099 70.6954 0.203934 70.7492 0.318748L71.1611 1.16432C71.2009 1.24752 71.2215 1.33821 71.2215 1.43001C71.2215 1.52181 71.2009 1.6125 71.1611 1.6957C71.1265 1.77905 71.0732 1.85381 71.0052 1.91456C70.9373 1.97531 70.8563 2.0205 70.7682 2.04686C69.2952 2.41656 67.8668 2.93856 66.5073 3.60401L66.3984 3.65484C68.6044 3.33645 70.856 3.52473 72.9744 4.2047C74.1532 4.59745 77.9738 5.98364 77.5951 7.21735C77.4246 7.78106 76.7571 7.80879 76.5346 7.81803C76.4358 7.82757 76.3364 7.80656 76.2505 7.75796C74.588 6.91044 72.7819 6.36407 70.9197 6.14536C69.129 5.90111 67.3067 6.00157 65.5557 6.44108C65.3158 6.50577 65.0743 6.57508 64.8313 6.64901C68.8593 7.18119 72.8104 8.16735 76.6056 9.58773C83.1577 12.0923 89.1511 15.811 94.2552 20.5386C96.1721 22.3122 97.9598 24.2144 99.605 26.2312C99.6863 26.3332 99.7332 26.4574 99.7392 26.5865C99.7451 26.7156 99.7098 26.8434 99.6381 26.952L99.0179 27.9224C98.9729 27.9937 98.913 28.0549 98.842 28.1019C98.771 28.1489 98.6905 28.1806 98.606 28.195C98.5226 28.2107 98.4366 28.2076 98.3545 28.186C98.2725 28.1644 98.1966 28.1248 98.1326 28.0702C97.484 27.5296 96.8212 26.9936 96.1631 26.4761C95.3062 25.8061 94.4303 25.15 93.545 24.5077C96.8453 28.412 98.9593 33.1404 99.6476 38.1571C99.8653 39.9392 99.8938 41.7384 99.7328 43.5262C99.7251 43.6189 99.6959 43.7086 99.6475 43.7886C99.5991 43.8686 99.5328 43.9369 99.4535 43.9883C96.9223 45.6787 94.0224 46.7703 90.9837 47.1765C88.8803 47.4489 86.7448 47.3708 84.6682 46.9455C84.5243 46.9118 84.3975 46.829 84.3107 46.7121C84.2239 46.5952 84.1827 46.4518 84.1947 46.3079C84.2326 45.892 84.261 45.4715 84.2799 45.051C84.2308 45.1153 84.1683 45.1688 84.0965 45.2078C84.0247 45.2468 83.9452 45.2705 83.8633 45.2775L82.9496 45.356C82.8065 45.3674 82.6642 45.3264 82.5504 45.241C82.4367 45.1556 82.3595 45.0318 82.3341 44.8939L81.3494 39.8852L81.7755 45.6194C81.787 45.7586 81.7504 45.8975 81.6714 46.014C81.5924 46.1304 81.4757 46.2176 81.3399 46.2617C76.8328 47.6201 68.0507 49.3205 59.8934 45.4438C57.905 44.5197 54.572 42.9071 52.1859 39.0997C51.6256 38.1971 51.1594 37.242 50.794 36.2487L50.6946 40.3195C50.6924 40.4686 50.6352 40.6119 50.5334 40.7231C50.4317 40.8343 50.2922 40.9059 50.1407 40.9248L48.9524 41.0357C48.8646 41.0426 48.7765 41.0299 48.6945 40.9987C48.6125 40.9675 48.5388 40.9185 48.479 40.8555C48.4178 40.79 48.372 40.7122 48.345 40.6276C48.318 40.5429 48.3104 40.4536 48.3227 40.3657C49.6105 30.131 47.6931 22.0265 43.5553 20.1921C42.5302 19.7722 41.4127 19.6132 40.3075 19.73C39.2944 19.8686 36.165 20.2937 31.5395 29.2716C28.4193 35.4141 26.2951 41.9921 25.2429 48.7707C25.2231 48.9176 25.1483 49.0522 25.0329 49.1486C24.9176 49.245 24.7698 49.2963 24.6179 49.2928C23.0664 49.2017 21.5245 48.9915 20.0067 48.6644ZM22.9088 21.3703C23.0014 21.3919 23.0874 21.4347 23.1598 21.4951C23.2712 21.5948 23.3428 21.7298 23.3618 21.8762C23.3809 22.0225 23.3462 22.1707 23.2639 22.2945C21.3702 25.2055 19.5049 28.2273 17.7437 31.277C12.2519 40.7862 12.6354 42.08 12.8389 42.7777C14.0509 46.9363 21.8626 47.8604 24.1634 48.0406C25.2623 41.3261 27.3964 34.8127 30.4932 28.7217C34.9009 20.1643 38.1344 18.8059 40.1797 18.5286C41.4885 18.3819 42.8141 18.5665 44.0287 19.0646C47.1628 20.4508 49.1607 24.6787 49.7099 30.6162C49.7182 30.4613 49.7863 30.3151 49.9004 30.2071C50.0146 30.0991 50.1664 30.0373 50.3253 30.034C50.4024 30.0334 50.4789 30.0476 50.5504 30.0758C50.6218 30.1041 50.6869 30.1458 50.7418 30.1985C50.7968 30.2513 50.8406 30.3141 50.8706 30.3834C50.9007 30.4527 50.9165 30.5271 50.9171 30.6023C50.9494 33.3695 51.7301 36.0793 53.1801 38.4574C55.3911 41.9737 58.5252 43.4662 60.4 44.358C67.9323 47.9389 76.0753 46.5343 80.5398 45.2544L79.4083 30.034C79.3949 29.8817 79.4398 29.7299 79.5342 29.6079C79.6286 29.486 79.7659 29.4024 79.9196 29.3733C80.0708 29.3491 80.2256 29.3841 80.3506 29.4705C80.4755 29.557 80.5605 29.6881 80.5872 29.8353L82.3105 38.6469L81.0322 30.0571C81.0095 29.916 81.037 29.7716 81.1103 29.648C81.1835 29.5244 81.298 29.429 81.4346 29.3779C81.5678 29.332 81.7136 29.3353 81.8445 29.3872C81.9754 29.4392 82.0822 29.5361 82.1448 29.6597C84.6942 34.687 85.8204 40.288 85.4067 45.8828C87.1978 46.1976 89.0283 46.2382 90.8322 46.0029C93.5892 45.6337 96.2262 44.6658 98.5492 43.1705C98.6755 41.5692 98.6406 39.9596 98.445 38.365C97.3798 29.7337 91.7223 23.8285 88.4462 21.0792C88.3297 20.9785 88.2552 20.8396 88.2369 20.6888C88.2186 20.538 88.2577 20.3859 88.3467 20.2614C88.4294 20.1363 88.5589 20.0479 88.7077 20.015C88.8564 19.9822 89.0124 20.0076 89.1421 20.0858C91.8225 21.7599 94.4095 23.5722 96.8922 25.515C97.3893 25.9032 97.8864 26.3052 98.3835 26.7118C96.8499 24.8631 95.1941 23.1143 93.4267 21.4766C88.4408 16.8351 82.5784 13.1834 76.1653 10.7244C71.7268 9.06633 67.0746 8.0152 62.3411 7.60086C62.2104 7.58846 62.0879 7.53334 61.9933 7.44443C61.8988 7.35553 61.8378 7.23805 61.8203 7.11107C61.798 6.98213 61.8175 6.84962 61.8761 6.73201C61.9346 6.6144 62.0293 6.51754 62.147 6.45494C63.1451 5.94712 64.1978 5.54886 65.2858 5.26744C66.9995 4.8312 68.7799 4.70127 70.5409 4.88393C68.0312 4.57463 65.4821 4.83717 63.0938 5.65095C62.9586 5.69561 62.811 5.68848 62.6809 5.63101C62.5509 5.57354 62.448 5.47002 62.3931 5.34137C62.3315 5.21133 62.3177 5.06456 62.3539 4.92572C62.3901 4.78688 62.4742 4.66444 62.592 4.57897C63.6745 3.79876 64.8227 3.10937 66.0244 2.51817L66.4031 2.33796C63.2894 3.49084 60.4163 5.18644 57.9239 7.3421C57.8051 7.4431 57.6504 7.49454 57.4931 7.48534C50.8741 6.97745 44.2255 7.99353 38.0824 10.4518C27.3639 14.7212 21.2566 22.142 18.9367 24.9513C15.5606 29.0737 12.8248 33.6588 10.8174 38.5591L10.9736 38.67C12.1589 35.7401 13.6103 32.9195 15.3103 30.2419C15.8405 29.4102 16.3234 28.7125 16.6311 28.2782C18.3354 25.8652 20.2556 23.6046 22.3691 21.5228C22.4393 21.4561 22.5253 21.4073 22.6194 21.3807C22.7136 21.3541 22.813 21.3505 22.9088 21.3703ZM82.9496 34.7332L84.3131 43.8959C84.3458 40.7913 83.8859 37.7004 82.9496 34.7332Z" fill="#1D1E1C"/>
<path d="M94.7169 46.2062C94.5923 46.1828 94.4789 46.1207 94.3935 46.029C94.3082 45.9374 94.2555 45.8212 94.2435 45.698C93.5428 39.6218 91.8195 35.5326 90.456 32.2196C88.586 27.7607 86.0247 21.6615 79.9127 16.8283C76.414 14.0701 72.3127 12.1336 67.9254 11.168C67.7729 11.1243 67.6433 11.0256 67.5628 10.892C67.4823 10.7583 67.4569 10.5998 67.4919 10.4486C67.5269 10.2973 67.6195 10.1648 67.751 10.0778C67.8826 9.99089 68.0431 9.95609 68.1999 9.98052C72.7658 10.9866 77.0329 13.0056 80.6702 15.8811C87.0189 20.8991 89.6654 27.16 91.5591 31.7344C92.9794 35.1075 94.7359 39.2984 95.4555 45.5455C95.4762 45.7036 95.4336 45.8634 95.3366 45.9917C95.2396 46.1199 95.0956 46.2067 94.9347 46.234C94.8609 46.2415 94.7863 46.232 94.7169 46.2062Z" fill="#1D1E1C"/>
<path d="M81.0457 45.1619C80.9143 45.135 80.7962 45.0656 80.7103 44.965C80.6244 44.8643 80.5757 44.7384 80.5722 44.6075C80.3639 39.0904 79.0478 30.9119 73.9442 23.2463C71.809 20.0119 68.2393 14.6381 61.4266 12.1014C59.6858 11.4499 57.8649 11.0242 56.0105 10.8353C55.9319 10.8262 55.856 10.8019 55.7871 10.7639C55.7182 10.7258 55.6578 10.6748 55.6093 10.6137C55.5608 10.5526 55.5253 10.4828 55.5048 10.4082C55.4843 10.3336 55.4791 10.2557 55.4898 10.1792C55.5042 10.0222 55.5813 9.87708 55.7044 9.77508C55.8275 9.67308 55.9868 9.62239 56.1478 9.63394C58.113 9.82228 60.044 10.2635 61.8906 10.9462C69.0489 13.6169 72.7511 19.2033 74.9668 22.5394C80.2029 30.436 81.557 38.8548 81.7747 44.5243C81.7827 44.6828 81.7275 44.8382 81.6208 44.958C81.514 45.0777 81.3639 45.1524 81.2019 45.1666C81.15 45.1743 81.097 45.1728 81.0457 45.1619Z" fill="#1D1E1C"/>
<path d="M69.148 45.1296C69.06 45.111 68.9777 45.0725 68.9077 45.0171C68.8378 44.9617 68.7823 44.891 68.7456 44.8107C67.1716 41.5463 65.8871 38.1562 64.9061 34.6777C64.3506 32.7118 63.908 30.7172 63.5804 28.7032C63.2954 26.699 62.771 24.7342 62.0181 22.8489C60.7114 19.5313 58.742 14.5318 54.1544 12.739C52.8321 12.2363 51.4144 12.0172 49.9977 12.0967C49.8427 12.103 49.6915 12.0491 49.5771 11.947C49.4627 11.8448 49.3943 11.7026 49.3869 11.5515C49.3828 11.3933 49.4408 11.2396 49.5491 11.1219C49.6574 11.0042 49.8077 10.9314 49.9693 10.9184C51.5474 10.8311 53.1263 11.0753 54.5994 11.6346C59.6557 13.5984 61.7435 18.8983 63.1212 22.4053C63.9007 24.3759 64.4471 26.4269 64.7498 28.5184C65.0682 30.482 65.4965 32.4271 66.0328 34.345C67.0015 37.7592 68.2687 41.0859 69.8203 44.2886C69.8897 44.4334 69.9 44.5987 69.849 44.7506C69.7979 44.9026 69.6895 45.0298 69.5457 45.1065C69.4207 45.162 69.2789 45.1703 69.148 45.1296Z" fill="#1D1E1C"/>
<path d="M18.3535 46.7006H18.3251C18.1716 46.6536 18.0428 46.5502 17.966 46.4123C17.8891 46.2743 17.8702 46.1126 17.9132 45.9613C19.2435 41.0841 21.1334 36.369 23.547 31.9054C27.0741 25.4134 31.4723 17.3042 40.3113 13.6678C42.7197 12.6816 45.2798 12.0944 47.8862 11.9304C48.0437 11.9216 48.1984 11.974 48.3164 12.0761C48.4344 12.1783 48.5061 12.322 48.5159 12.4756C48.5252 12.6342 48.4713 12.7902 48.3653 12.9108C48.2594 13.0314 48.1098 13.1073 47.9478 13.1225C45.4579 13.2773 43.0125 13.8396 40.7137 14.786C32.2819 18.2699 28.0068 26.1435 24.5697 32.4737C22.2036 36.8506 20.3518 41.4744 19.0494 46.257C19.0153 46.4048 18.9236 46.5338 18.7936 46.6166C18.6637 46.6994 18.5058 46.7296 18.3535 46.7006Z" fill="#1D1E1C"/>
<path d="M59.6751 43.8312C59.5921 43.8144 59.5141 43.7794 59.4469 43.729C59.3797 43.6786 59.325 43.614 59.2869 43.5401C57.9349 41.0047 56.8636 38.3358 56.0912 35.5788C55.7645 34.4236 55.3148 32.1226 54.42 27.5389L54.2732 26.7996C53.4826 22.7335 53.1228 20.8806 51.9534 18.4825C51.4275 17.4089 50.8115 16.3796 50.1117 15.4051C50.0195 15.273 49.9823 15.1115 50.0079 14.9535C50.0334 14.7955 50.1196 14.653 50.249 14.5549C50.3081 14.5094 50.3758 14.4757 50.4482 14.4557C50.5206 14.4357 50.5963 14.4298 50.6711 14.4384C50.7458 14.447 50.8181 14.4699 50.8838 14.5057C50.9495 14.5416 51.0073 14.5897 51.0539 14.6474V14.6751C51.7868 15.7019 52.4358 16.7834 52.995 17.9095C54.2354 20.4416 54.6283 22.4701 55.4142 26.5178L55.561 27.2709C56.451 31.8222 56.896 34.1048 57.2085 35.2138C57.965 37.8867 59.0109 40.4734 60.3284 42.9302C60.4026 43.0731 60.4189 43.238 60.3742 43.3921C60.3294 43.5462 60.2269 43.6782 60.087 43.7619C59.9644 43.8371 59.8164 43.862 59.6751 43.8312Z" fill="#1D1E1C"/>
</g>
<defs>
<clipPath id="clip0_1_2664">
<rect width="112" height="202" fill="white"/>
</clipPath>
</defs>
</svg>
