<svg width="112" height="202" viewBox="0 0 112 202" fill="none" xmlns="http://www.w3.org/2000/svg">
<g clip-path="url(#clip0_1_2605)">
<path d="M17.1256 60.1472C11.1618 48.5343 15.3835 32.6944 23.4378 22.9082C26.6412 19.0427 30.6002 15.8362 35.0849 13.4748C46.3428 7.58012 57.4559 8.92144 62.103 9.54797C66.0984 10.0863 74.5464 11.2202 82.0894 16.6869C98.2523 28.397 96.7817 50.2198 96.569 52.4788C95.4333 56.2689 93.1346 61.8283 88.1256 66.5979C70.3971 83.4526 28.0215 81.3523 17.1256 60.1472Z" fill="#572318"/>
<path d="M49.5911 78.1712C47.9984 78.0388 46.4237 77.8491 44.8219 77.5932C31.3875 75.4312 21.0979 69.1615 16.5911 60.3856C13.7359 54.8306 12.9712 48.0314 14.4418 40.7336C15.754 34.0986 18.6772 27.8667 22.9667 22.5597C26.2148 18.6283 30.2363 15.37 34.7947 12.9763C46.4554 6.86982 57.8717 8.40968 62.1839 9.00533C66.2563 9.55245 74.7766 10.6996 82.4463 16.2546C98.7359 28.0485 97.3784 50.0698 97.1839 52.5407V52.651C95.4599 58.3868 92.5685 63.2403 88.5866 66.9995C79.9712 75.1533 64.7359 79.4199 49.5911 78.1712ZM17.6771 59.9046C22.0119 68.3408 31.9848 74.3855 45.0346 76.4857C61.3242 79.1331 78.5187 74.9724 87.745 66.192C91.5685 62.5564 94.3513 57.9103 96.021 52.3774C96.2337 49.7301 97.4146 28.4809 81.745 17.1326C74.306 11.7541 66.0119 10.6423 62.021 10.104C57.8264 9.53921 46.6861 8.03906 35.3739 13.9647C30.9545 16.2852 27.056 19.4446 23.9079 23.2568C13.7721 35.5801 13.0934 51.0184 17.6454 59.9046H17.6771Z" fill="#1D1E1C"/>
<path d="M106.91 121.874C105.552 121.83 104.294 121.746 103.082 121.64C104.281 121.52 105.406 121.02 106.285 120.215C106.982 119.536 107.901 118.216 107.466 117.634C107.226 117.307 106.634 117.316 106.213 117.365C105.684 117.745 105.126 118.084 104.543 118.38C103.362 118.993 101.787 119.8 99.8146 119.672C99.1701 119.625 98.5361 119.487 97.9323 119.262L80.5431 101.891C76.2173 96.5965 70.9051 90.5783 63.6065 85.8616C62.8327 85.3586 62.1042 85.0454 61.344 84.5865V81.4979C67.5617 81.3274 73.647 79.7071 79.0906 76.7725C84.2264 73.9663 87.3214 70.1012 89.3169 67.7142C89.8885 68.7246 90.7632 69.5405 91.8237 70.0527C94.3576 71.2219 96.9685 69.9379 97.9097 69.4791C99.3007 68.7793 100.498 67.7632 101.402 66.5168C102.305 65.2704 102.888 63.8302 103.1 62.3181C103.199 61.5371 103.828 56.7145 100.281 54.5834C98.1721 53.3171 95.3033 53.5024 92.8689 54.8879C93.6528 51.1041 93.8632 47.2286 93.4934 43.3852C93.1721 40.054 92.0318 29.9192 83.6834 21.1962C78.7722 16.2365 72.5632 12.6814 65.7287 10.9157C59.3443 9.23023 52.6152 9.23023 46.2309 10.9157C39.4011 12.6769 33.1954 16.2258 28.2852 21.1786C19.9368 29.9015 18.7829 40.0364 18.4753 43.3676C18.1009 47.2109 18.3113 51.087 19.0997 54.8702C16.6608 53.4848 13.7965 53.2995 11.6879 54.5658C8.14041 56.6969 8.76937 61.5194 8.86892 62.3004C9.08347 63.8096 9.66697 65.2463 10.5702 66.4895C11.4735 67.7327 12.67 68.7459 14.059 69.4438C15.0001 69.885 17.611 71.2087 20.1449 70.0174C21.2043 69.5052 22.0775 68.6892 22.6472 67.6789C24.6472 70.0659 27.7377 73.931 32.878 76.7372C38.3235 79.6762 44.4121 81.2997 50.6336 81.4715V84.56C49.8689 85.0012 49.1404 85.3322 48.3712 85.8352C41.0816 90.5783 35.7784 96.6274 31.4391 101.891L14.059 119.262C13.4566 119.486 12.8241 119.625 12.1811 119.672C10.2038 119.8 8.63363 118.993 7.44811 118.38C6.868 118.08 6.31008 117.741 5.77842 117.365C5.36213 117.316 4.76937 117.307 4.52955 117.634C4.07707 118.216 5.00919 119.536 5.71055 120.215C6.58886 121.018 7.71237 121.518 8.90965 121.64C7.7015 121.746 6.42096 121.83 5.08612 121.874C3.46168 121.931 1.9187 121.923 0.475256 121.874C0.41616 122.256 0.476063 122.646 0.647202 122.995C1.47526 124.57 5.00014 124.804 9.41643 123.674C7.11733 124.745 4.60236 125.303 2.05444 125.307C1.72438 125.325 1.39356 125.325 1.06349 125.307C0.968405 125.444 0.904984 125.599 0.877636 125.762C0.850288 125.925 0.859666 126.092 0.905121 126.251C1.32744 127.354 4.52201 127.457 10.4888 126.56C9.07295 127.245 7.72225 128.051 6.45263 128.969C5.37118 129.746 4.29879 130.535 4.47073 130.968C4.69245 131.532 6.88702 131.188 7.09969 131.157C8.58838 130.919 11.2445 130.129 14.163 126.966C14.1721 127.866 14.3984 128.752 14.8237 129.551C15.1902 130.231 15.8599 131.475 17.2219 131.757C17.3978 131.786 17.5777 131.78 17.7513 131.741C17.925 131.701 18.0889 131.629 18.2339 131.528C18.3789 131.427 18.502 131.299 18.5962 131.151C18.6904 131.003 18.7538 130.839 18.7829 130.668C18.8169 130.496 18.8169 130.319 18.7829 130.147C18.6989 129.805 18.6459 129.457 18.6246 129.106C18.5567 127.95 18.5884 127.46 18.5296 126.392C18.4934 125.757 18.6155 124.808 17.9187 123.71L44.9277 102.337C41.6291 112.882 39.3667 121.689 38.6698 128.073C37.3124 141.16 36.2807 151.582 35.3621 163.561C35.1857 165.904 35.1992 173.859 33.6608 181.951C33.2938 184.061 32.7967 186.147 32.1721 188.199C31.7443 189.594 31.1052 190.919 30.2762 192.13C29.8734 192.712 29.4662 193.242 28.9187 193.414C28.0525 193.635 27.1657 193.771 26.2716 193.82C24.8825 193.899 22.1992 194.451 20.4255 195.827C18.7855 197.253 17.7216 199.202 17.4255 201.325C21.344 201.325 37.5974 201.854 38.6155 201.325C40.2852 200.442 39.9006 197.173 40.0635 196.335C40.3169 195.064 40.4843 192.858 40.6925 192.13C41.4345 189.482 47.9323 173.638 55.982 143.035C64.0363 173.638 70.5296 189.491 71.2762 192.13C71.4798 192.858 71.6517 195.064 71.9006 196.335C72.068 197.173 71.6834 200.456 73.3531 201.325C74.3667 201.854 90.6246 201.325 94.5431 201.325C94.2451 199.203 93.1815 197.254 91.5431 195.827C89.7332 194.451 87.0861 193.899 85.697 193.82C84.8029 193.771 83.9161 193.635 83.0499 193.414C82.4979 193.242 82.0906 192.712 81.6925 192.13C80.8638 190.918 80.2234 189.593 79.792 188.199C79.1725 186.151 78.6784 184.069 78.3124 181.964C76.7739 173.872 76.7875 165.917 76.6065 163.574C75.7015 151.595 74.6834 141.173 73.3033 128.087C72.6291 121.702 70.3259 112.895 67.059 102.35L94.068 123.723C93.3712 124.821 93.4934 125.77 93.4572 126.405C93.3983 127.473 93.43 127.963 93.3621 129.119C93.3438 129.47 93.2938 129.818 93.2128 130.16C93.1718 130.329 93.1653 130.505 93.1939 130.676C93.2224 130.848 93.2853 131.013 93.379 131.16C93.4727 131.308 93.5953 131.437 93.74 131.539C93.8846 131.64 94.0483 131.713 94.2219 131.753C94.3967 131.786 94.5764 131.786 94.7513 131.753H94.783C96.1404 131.462 96.8146 130.218 97.1811 129.547C97.6064 128.748 97.8328 127.862 97.8418 126.961C100.76 130.125 103.412 130.932 104.905 131.153C105.118 131.184 107.312 131.528 107.534 130.963C107.706 130.522 106.629 129.741 105.548 128.965C104.278 128.047 102.927 127.24 101.511 126.555C107.484 127.456 110.68 127.353 111.1 126.247C111.144 126.083 111.152 125.912 111.122 125.745C111.093 125.578 111.026 125.42 110.928 125.28C110.602 125.28 110.272 125.316 109.932 125.316C107.391 125.304 104.884 124.742 102.593 123.67C107.009 124.799 110.534 124.552 111.362 122.99C111.533 122.642 111.593 122.252 111.534 121.87C110.073 121.923 108.534 121.931 106.91 121.874Z" fill="#FAC497"/>
<path d="M38.3682 130.601C43.7664 130.659 49.9428 132.124 55.5401 132.066C61.875 132 67.4406 130.354 73.5084 130.151C73.5989 131.034 73.6894 131.877 73.7754 132.741C74.5778 140.48 75.332 148.194 76.0379 155.883C73.4695 154.649 70.6076 154.113 67.7531 154.33C64.8986 154.548 62.1569 155.511 59.8161 157.119L55.7709 143.732L52.0379 157.366C47.0205 155.044 41.3133 154.561 35.9609 156.007C36.5793 149.327 37.2008 142.645 37.8252 135.962C38.4949 134.166 37.7075 132.366 38.3682 130.601Z" fill="#F9F5F2"/>
<path d="M43.9222 105.708C45.929 105.93 47.9132 106.315 49.8543 106.859C50.8951 107.128 51.8498 107.415 52.4064 108.276C53.1801 109.476 52.6326 110.967 52.5693 111.135C52.2466 111.893 51.7021 112.542 51.0037 113.001C50.5148 113.328 49.9896 113.601 49.438 113.813C48.2797 114.426 47.7548 115.798 47.1756 118.733C46.6236 121.556 46.8 121.861 46.343 124.57C45.7095 128.294 44.9856 129.948 44.4607 130.981C43.8046 132.256 43.3068 133.187 42.1982 133.867C40.3883 134.978 38.3204 134.581 37.6055 134.409C38.4607 124.866 40.9358 115.362 43.9222 105.708Z" fill="#EE779A"/>
<path d="M53.28 113.835C51.9723 113.588 51.0175 114.563 50.8411 114.718C50.3886 115.185 50.2302 115.648 49.832 117.025C49.289 118.922 49.013 119.871 48.9632 120.114C47.6058 126.586 46.3478 131.431 46.7008 132.869C46.892 133.574 47.25 134.226 47.746 134.771C48.9768 136.249 51.0582 137.335 53.0175 137.043C53.6736 136.994 54.2877 136.709 54.7415 136.245C55.0542 135.811 55.2346 135.3 55.2619 134.771C55.3343 134.286 55.2619 126.304 55.2257 122.995C55.1849 120.255 55.0854 117.59 54.9497 115.013C54.7657 114.718 54.5232 114.462 54.2365 114.26C53.9498 114.058 53.6246 113.913 53.28 113.835Z" fill="#EE779A"/>
<path d="M68.0781 105.708C66.0319 105.934 64.0074 106.319 62.0238 106.859C60.9876 107.128 60.0329 107.415 59.4763 108.276C58.7025 109.476 59.25 110.967 59.3134 111.135C59.6344 111.894 60.1793 112.544 60.879 113.001C61.3668 113.336 61.892 113.616 62.4446 113.835C63.5985 114.448 64.1279 115.821 64.7071 118.755C65.2636 121.578 65.0872 121.883 65.5442 124.592C66.1731 128.316 66.9016 129.971 67.422 131.003C68.0826 132.278 68.5804 133.209 69.6844 133.889C71.4944 135 73.5623 134.603 74.2772 134.431C73.3767 124.866 71.0419 115.362 68.0781 105.708Z" fill="#EE779A"/>
<path d="M58.5669 113.835C59.8746 113.588 60.8294 114.563 61.0013 114.718C61.4538 115.185 61.6167 115.648 62.0104 117.025C62.5579 118.922 62.8294 119.871 62.8837 120.114C64.2412 126.586 65.4945 131.431 65.1461 132.869C64.9547 133.573 64.5985 134.224 64.1054 134.771C62.8746 136.249 60.7932 137.335 58.8339 137.043C58.1779 136.994 57.5638 136.709 57.1099 136.245C56.7934 135.813 56.6125 135.301 56.5896 134.771C56.5172 134.286 56.5896 126.304 56.6258 122.995C56.668 120.256 56.76 117.596 56.9018 115.013C57.0849 114.719 57.3265 114.463 57.6124 114.26C57.8984 114.058 58.2229 113.913 58.5669 113.835Z" fill="#EE779A"/>
<path d="M106.91 121.874C105.552 121.83 104.294 121.746 103.082 121.64C104.281 121.52 105.406 121.02 106.285 120.215C106.982 119.536 107.901 118.216 107.466 117.634C107.226 117.307 106.634 117.316 106.213 117.365C105.684 117.745 105.126 118.084 104.543 118.38C103.362 118.993 101.787 119.8 99.8146 119.672C99.1701 119.625 98.5361 119.487 97.9323 119.262L80.5431 101.891C76.2173 96.5965 70.9051 90.5783 63.6065 85.8616C62.8327 85.3586 62.1042 85.0454 61.344 84.5865V81.4979C67.5617 81.3274 73.647 79.7071 79.0906 76.7725C84.2264 73.9663 87.3214 70.1012 89.3169 67.7142C89.8885 68.7246 90.7632 69.5405 91.8237 70.0527C94.3576 71.2219 96.9685 69.9379 97.9097 69.4791C99.3007 68.7793 100.498 67.7632 101.402 66.5168C102.305 65.2704 102.888 63.8302 103.1 62.3181C103.199 61.5371 103.828 56.7145 100.281 54.5834C98.1721 53.3171 95.3033 53.5024 92.8689 54.8879C93.6528 51.1041 93.8632 47.2286 93.4934 43.3852C93.1721 40.054 92.0318 29.9192 83.6834 21.1962C78.7722 16.2365 72.5632 12.6814 65.7287 10.9157C59.3443 9.23023 52.6152 9.23023 46.2309 10.9157C39.4011 12.6769 33.1954 16.2258 28.2852 21.1786C19.9368 29.9015 18.7829 40.0364 18.4753 43.3676C18.1009 47.2109 18.3113 51.087 19.0997 54.8702C16.6608 53.4848 13.7965 53.2995 11.6879 54.5658C8.14041 56.6969 8.76937 61.5194 8.86892 62.3004C9.08347 63.8095 9.66697 65.2463 10.5702 66.4895C11.4735 67.7327 12.67 68.7459 14.059 69.4438C15.0001 69.885 17.611 71.2087 20.1449 70.0174C21.2043 69.5052 22.0775 68.6892 22.6472 67.6789C24.6472 70.0659 27.7377 73.931 32.878 76.7372C38.3235 79.6762 44.4121 81.2997 50.6336 81.4715V84.56C49.8689 85.0012 49.1404 85.3322 48.3712 85.8351C41.0816 90.5783 35.7784 96.6274 31.4391 101.891L14.059 119.262C13.4566 119.486 12.8241 119.625 12.1811 119.672C10.2038 119.8 8.63363 118.993 7.44811 118.38C6.868 118.08 6.31008 117.741 5.77842 117.365C5.36213 117.316 4.76937 117.307 4.52955 117.634C4.07707 118.216 5.00919 119.536 5.71055 120.215C6.58886 121.018 7.71237 121.518 8.90965 121.64C7.7015 121.746 6.42096 121.83 5.08612 121.874C3.46168 121.931 1.9187 121.923 0.475256 121.874C0.41616 122.256 0.476063 122.646 0.647202 122.995C1.47526 124.57 5.00014 124.804 9.41643 123.674C7.11733 124.745 4.60236 125.303 2.05444 125.307C1.72438 125.325 1.39356 125.325 1.06349 125.307C0.968405 125.444 0.904984 125.599 0.877636 125.762C0.850288 125.925 0.859666 126.092 0.905121 126.251C1.32744 127.354 4.52201 127.457 10.4888 126.56C9.07295 127.245 7.72225 128.051 6.45263 128.969C5.37118 129.746 4.29879 130.535 4.47073 130.968C4.69245 131.532 6.88702 131.188 7.09969 131.157C8.58838 130.919 11.2445 130.129 14.163 126.966C14.1721 127.866 14.3984 128.752 14.8237 129.551C15.1902 130.231 15.8599 131.475 17.2219 131.757C17.3978 131.786 17.5777 131.78 17.7513 131.741C17.925 131.701 18.0889 131.629 18.2339 131.528C18.3789 131.427 18.502 131.299 18.5962 131.151C18.6904 131.003 18.7538 130.839 18.7829 130.668C18.8169 130.496 18.8169 130.319 18.7829 130.147C18.6989 129.805 18.6459 129.457 18.6246 129.106C18.5567 127.95 18.5884 127.46 18.5296 126.392C18.4934 125.757 18.6155 124.808 17.9187 123.71L44.9277 102.337C41.6291 112.882 39.3667 121.689 38.6698 128.073C37.3124 141.16 36.2807 151.582 35.3621 163.561C35.1857 165.904 35.1992 173.859 33.6608 181.951C33.2938 184.061 32.7967 186.147 32.1721 188.199C31.7443 189.594 31.1052 190.919 30.2762 192.13C29.8734 192.712 29.4662 193.242 28.9187 193.414C28.0525 193.635 27.1657 193.771 26.2716 193.82C24.8825 193.899 22.1992 194.451 20.4255 195.827C18.7855 197.253 17.7216 199.202 17.4255 201.325C21.344 201.325 37.5974 201.854 38.6155 201.325C40.2852 200.442 39.9006 197.173 40.0635 196.335C40.3169 195.064 40.4843 192.858 40.6925 192.13C41.4345 189.482 47.9323 173.638 55.982 143.035C64.0363 173.638 70.5296 189.491 71.2762 192.13C71.4798 192.858 71.6517 195.064 71.9006 196.335C72.068 197.173 71.6834 200.456 73.3531 201.325C74.3667 201.854 90.6246 201.325 94.5431 201.325C94.2451 199.203 93.1815 197.254 91.5431 195.827C89.7332 194.451 87.0861 193.899 85.697 193.82C84.8029 193.771 83.9161 193.635 83.0499 193.414C82.4979 193.242 82.0906 192.712 81.6925 192.13C80.8638 190.918 80.2234 189.593 79.792 188.199C79.1725 186.151 78.6784 184.069 78.3124 181.964C76.7739 173.872 76.7875 165.917 76.6065 163.574C75.7015 151.595 74.6834 141.173 73.3033 128.087C72.6291 121.702 70.3259 112.895 67.059 102.35L94.068 123.723C93.3712 124.821 93.4934 125.77 93.4572 126.405C93.3983 127.473 93.43 127.963 93.3621 129.119C93.3438 129.47 93.2938 129.818 93.2128 130.16C93.1718 130.329 93.1653 130.505 93.1939 130.676C93.2224 130.848 93.2853 131.013 93.379 131.16C93.4727 131.308 93.5953 131.437 93.74 131.539C93.8846 131.64 94.0483 131.713 94.2219 131.753C94.3967 131.786 94.5764 131.786 94.7513 131.753H94.783C96.1404 131.462 96.8146 130.218 97.1811 129.547C97.6064 128.748 97.8328 127.862 97.8418 126.961C100.76 130.125 103.412 130.932 104.905 131.153C105.118 131.184 107.312 131.528 107.534 130.963C107.706 130.522 106.629 129.741 105.548 128.965C104.278 128.047 102.927 127.24 101.511 126.555C107.484 127.456 110.68 127.353 111.1 126.247C111.144 126.083 111.152 125.912 111.122 125.745C111.093 125.578 111.026 125.42 110.928 125.28C110.602 125.28 110.272 125.316 109.932 125.316C107.391 125.304 104.884 124.742 102.593 123.67C107.009 124.799 110.534 124.552 111.362 122.99C111.533 122.642 111.593 122.252 111.534 121.87C110.073 121.923 108.534 121.931 106.91 121.874Z" stroke="black" stroke-linecap="round" stroke-linejoin="round"/>
<path d="M46.3308 64.5947C45.2991 65.861 46.8874 68.8084 48.2584 70.3747C49.4877 71.7561 51.1072 72.7537 52.9145 73.2427C54.7232 73.7452 56.6367 73.768 58.4575 73.3089C59.3625 73.0927 62.8647 72.272 64.7923 69.2364C65.4968 68.1206 65.8798 66.8403 65.9009 65.5301C65.9009 64.6918 65.738 63.1564 65.1317 63.024C64.7607 62.9446 64.4168 63.4652 64.0367 63.8182C63.5842 64.2594 62.5435 65.0227 58.3308 64.9874C56.0684 64.9874 55.5118 64.7448 52.0412 64.4271C47.1408 63.977 46.6068 64.255 46.3308 64.5947Z" fill="#461C19"/>
<mask id="mask0_1_2605" style="mask-type:luminance" maskUnits="userSpaceOnUse" x="46" y="63" width="20" height="11">
<path d="M46.3308 64.5947C45.2991 65.861 46.8874 68.8084 48.2584 70.3747C49.4877 71.7561 51.1072 72.7537 52.9145 73.2427C54.7232 73.7452 56.6367 73.768 58.4575 73.3089C59.3625 73.0927 62.8647 72.272 64.7923 69.2364C65.4968 68.1206 65.8798 66.8403 65.9009 65.5301C65.9009 64.6918 65.738 63.1564 65.1317 63.024C64.7607 62.9446 64.4168 63.4652 64.0367 63.8182C63.5842 64.2594 62.5435 65.0227 58.3308 64.9874C56.0684 64.9874 55.5118 64.7448 52.0412 64.4271C47.1408 63.977 46.6068 64.255 46.3308 64.5947Z" fill="white"/>
</mask>
<g mask="url(#mask0_1_2605)">
<path d="M59.8708 72.8943C60.0654 72.0957 59.0382 71.0853 58.3142 70.6396C58.0077 70.4199 57.6565 70.2668 57.2841 70.1907C56.9118 70.1146 56.5271 70.1172 56.1559 70.1984C55.7251 70.3279 55.3438 70.5798 55.0608 70.922C54.7 70.7271 54.28 70.663 53.8753 70.7411C52.6174 71.0235 51.7531 72.9957 52.269 73.8958C53.2237 75.5284 59.45 74.6327 59.8708 72.8943Z" fill="#BD1823"/>
<path d="M53.0758 74.9018C52.6008 74.7734 52.1903 74.4799 51.922 74.0767C51.7746 73.7433 51.7059 73.382 51.7207 73.0193C51.7356 72.6566 51.8338 72.3017 52.0079 71.9809C52.156 71.5935 52.3934 71.2445 52.7017 70.9607C53.01 70.6768 53.3811 70.4659 53.7862 70.344C54.1777 70.2618 54.5854 70.294 54.9582 70.4366C55.2626 70.1449 55.6353 69.9299 56.0441 69.8101C56.4702 69.7121 56.913 69.7056 57.3419 69.7909C57.7708 69.8763 58.1756 70.0514 58.5283 70.3043C59.3654 70.8205 60.5147 71.9544 60.2659 72.9869C59.9853 74.1473 58.0532 74.8091 56.3428 75.0474C55.2556 75.2266 54.1417 75.177 53.0758 74.9018ZM54.6369 71.1646C54.4233 71.0856 54.1911 71.0672 53.9672 71.1117C53.686 71.2087 53.4304 71.3655 53.2191 71.5708C53.0078 71.7761 52.846 72.0247 52.7455 72.2986C52.6293 72.51 52.5586 72.7423 52.5376 72.9812C52.5166 73.2202 52.5458 73.4608 52.6233 73.6884C52.9582 74.2664 54.474 74.5091 56.2432 74.2664C58.0125 74.0238 59.3473 73.384 59.4921 72.806C59.6143 72.2986 58.8631 71.4338 58.1346 70.9705C57.8796 70.7818 57.5863 70.6481 57.2743 70.5781C56.9623 70.5081 56.6386 70.5035 56.3247 70.5646C55.9687 70.6704 55.6534 70.8779 55.4197 71.1602L55.2161 71.3985L54.931 71.2617C54.8361 71.2208 54.7377 71.1883 54.6369 71.1646Z" fill="#1D1E1C"/>
</g>
<path d="M52.3015 73.6839C50.547 73.1426 48.9808 72.1376 47.7767 70.7806C46.3242 69.1217 44.5097 65.8787 45.8355 64.2506C46.3423 63.6329 47.1205 63.3946 52.0662 63.8446C53.4237 63.9682 54.3287 64.0785 55.0617 64.1667C56.137 64.3122 57.2206 64.3918 58.3061 64.405C62.5142 64.4403 63.3151 63.6637 63.5776 63.4078L63.8083 63.174C64.1613 62.7945 64.6002 62.3224 65.2337 62.4592C66.3604 62.7019 66.478 64.6962 66.478 65.5478C66.4562 66.967 66.042 68.3541 65.2789 69.5629C64.3423 71.0454 62.4237 73 58.5776 73.9001C56.6541 74.3844 54.633 74.36 52.7224 73.8295L52.3015 73.6839ZM46.8038 64.9874C46.1296 65.8169 47.2563 68.3716 48.7178 70.0129C49.8732 71.3021 51.3916 72.2319 53.0843 72.6867C54.7894 73.1651 56.5957 73.1834 58.3106 72.7397C61.0753 72.0911 63.0798 70.8115 64.2653 68.9363C64.9106 67.9132 65.2622 66.7399 65.2834 65.5389C65.3057 64.9105 65.2075 64.2835 64.9939 63.6902C64.9079 63.7696 64.7993 63.8844 64.7224 63.9682C64.6454 64.052 64.5459 64.1579 64.4509 64.2462C63.7902 64.8903 62.4916 65.6228 58.3151 65.5698C57.1842 65.5582 56.0551 65.4757 54.935 65.3227C54.2065 65.2345 53.297 65.1286 51.9712 65.0051C47.9758 64.6388 46.9577 64.7844 46.8038 64.9698V64.9874Z" fill="#1D1E1C"/>
<path d="M54.5054 57.7999C54.4321 57.7986 54.3604 57.7788 54.2972 57.7425C53.9456 57.5271 53.6419 57.2451 53.404 56.9131C53.1662 56.5812 52.9991 56.206 52.9126 55.81C52.8425 55.5028 52.8368 55.185 52.8959 54.8756C52.955 54.5663 53.0777 54.2718 53.2565 54.0098C53.5596 53.6322 53.9658 53.3457 54.4285 53.1833C54.8912 53.021 55.3915 52.9893 55.8719 53.0921C55.9688 53.1066 56.0565 53.1563 56.1175 53.2311C56.1784 53.306 56.2082 53.4005 56.2007 53.4959C56.1933 53.5912 56.1492 53.6803 56.0774 53.7453C56.0055 53.8103 55.9111 53.8465 55.8131 53.8465H55.7452C55.4088 53.7734 55.0583 53.791 54.7315 53.8975C54.4046 54.004 54.1137 54.1954 53.89 54.451C53.7734 54.6301 53.6945 54.83 53.658 55.039C53.6215 55.2481 53.6281 55.4622 53.6773 55.6688C53.7431 55.9643 53.8686 56.2441 54.0465 56.4919C54.2244 56.7396 54.4512 56.9503 54.7135 57.1116C54.7999 57.1666 54.8603 57.2528 54.8816 57.3513C54.9028 57.4497 54.883 57.5524 54.8266 57.6366C54.7911 57.6883 54.7434 57.7309 54.6875 57.7609C54.6316 57.7908 54.5691 57.8072 54.5054 57.8087V57.7999Z" fill="#1D1E1C"/>
<path d="M39.8721 54.5084C41.5463 54.5084 42.9083 52.1788 42.9083 49.3064C42.9083 46.4341 41.5509 44.1221 39.8721 44.1221C38.1934 44.1221 36.8359 46.4517 36.8359 49.3197C36.8359 52.1876 38.1934 54.5084 39.8721 54.5084Z" fill="#000100"/>
<path d="M68.4464 54.5084C70.1206 54.5084 71.4826 52.1788 71.4826 49.3064C71.4826 46.4341 70.1341 44.1221 68.4464 44.1221C66.7586 44.1221 65.4102 46.4517 65.4102 49.3197C65.4102 52.1876 66.7676 54.5084 68.4464 54.5084Z" fill="#000100"/>
<path d="M40.0198 33.1755C38.2098 32.5798 36.3591 33.8902 35.5492 34.4682C33.5652 36.0467 32.3054 38.3289 32.0469 40.813C32.0017 41.2542 31.8885 42.3705 32.332 42.5779C32.7754 42.7853 33.2958 42.1367 33.7256 41.6954C35.3365 40.1203 37.3094 38.9422 39.056 37.5083C41.151 35.7919 41.7709 35.3507 41.6668 34.6844C41.5718 33.9079 40.6352 33.3784 40.0198 33.1755Z" fill="#572318"/>
<path d="M32.4645 43.2397C32.3293 43.2381 32.1956 43.2111 32.0709 43.1603C31.2202 42.7676 31.3288 41.4748 31.3967 40.7512C31.5334 39.4345 31.937 38.1573 32.5841 36.9939C33.2311 35.8305 34.1087 34.804 35.1659 33.974C36.0437 33.3519 38.098 31.8959 40.2247 32.5974C41.1025 32.8842 42.1749 33.5902 42.3062 34.6182C42.4238 35.5801 41.7767 36.1096 39.8582 37.6803L39.4691 38.0024C38.7768 38.5672 38.0437 39.101 37.3333 39.6173C36.2157 40.3852 35.1571 41.2317 34.1659 42.1499L34.0935 42.2205C33.6365 42.6661 33.0618 43.2397 32.4645 43.2397ZM39.0573 33.6564C37.7903 33.6564 36.5234 34.5388 35.9261 34.98C34.0979 36.4587 32.9352 38.5758 32.6863 40.8792C32.6463 41.1879 32.6357 41.4995 32.6546 41.8101C32.8356 41.6645 33.0618 41.4483 33.1885 41.3204L33.2654 41.2454C34.2955 40.2854 35.3965 39.4006 36.5596 38.598C37.2564 38.095 37.9713 37.57 38.6365 37.0273L39.0256 36.7052C40.3831 35.6021 41.0573 35.0462 41.0211 34.7594C40.9713 34.3667 40.3605 33.9652 39.8084 33.7799C39.567 33.6976 39.313 33.6558 39.0573 33.6564Z" fill="#1D1E1C"/>
<path d="M56.8766 6.88302C50.1682 6.37965 43.4318 7.40846 37.2024 9.88774C26.5599 14.1323 20.4604 21.3595 17.8269 24.5539C14.2854 28.8669 11.4369 33.6797 9.37891 38.8275L10.5418 39.6305C11.7585 36.4793 13.2876 33.4514 15.1074 30.5898C15.6821 29.7074 16.1753 28.9882 16.4151 28.6529C18.096 26.2678 19.9935 24.0351 22.0848 21.9816C20.6775 24.1304 18.7273 27.2057 16.5373 30.9914C11.1934 40.257 11.2567 41.9248 11.5599 42.9793C13.0305 47.9872 22.8404 48.6402 23.9626 48.7152C25.0209 41.8617 27.1753 35.2126 30.3472 29.0103C34.7092 20.5476 37.8269 19.3828 39.5825 19.1446C40.792 19.0021 42.0186 19.1725 43.1391 19.6387C47.7183 21.6639 49.5599 30.1001 48.2567 40.4335L49.4468 40.3232C49.5282 37.0876 49.6082 33.8519 49.6866 30.6163C49.7252 33.4849 50.5349 36.2934 52.035 38.7613C54.2975 42.3528 57.4106 43.8927 59.5056 44.8854C68.1029 48.9755 77.311 46.6503 80.5599 45.6752C80.1647 40.4394 79.7741 35.2021 79.388 29.9633L82.2884 44.7619L83.1934 44.6825L80.9943 29.9457C82.5735 33.041 83.6017 36.3756 84.035 39.807C84.3117 41.9823 84.3511 44.1801 84.1527 46.3635C86.1693 46.7711 88.2416 46.8471 90.2839 46.5885C93.2353 46.1926 96.0525 45.1355 98.5146 43.5C98.6716 41.756 98.6428 40.0009 98.4287 38.2627C97.2839 28.8956 90.949 22.8949 88.2341 20.6138C90.8973 22.2822 93.4652 24.091 95.9264 26.032C96.6082 26.5615 97.2703 27.0954 97.9128 27.6337L98.5373 26.6674C96.9182 24.6625 95.1551 22.7722 93.2613 21.0109C88.2009 16.3159 82.2516 12.6263 75.7454 10.1481C71.2538 8.46847 66.5455 7.40239 61.7545 6.98009C64.3919 5.62526 67.4012 5.1187 70.3518 5.53288C72.2838 5.76063 74.1574 6.32874 75.8812 7.20952C76.0984 7.20952 76.3337 7.16981 76.388 7.04627C76.5237 6.60505 73.7047 5.30345 72.1346 4.77839C70.4242 4.20481 67.1572 3.52533 62.2658 5.05636C63.3202 4.30765 64.439 3.64925 65.6097 3.08852C67.0116 2.4038 68.4845 1.86688 70.0033 1.48688L69.5916 0.617676C67.0257 1.14263 64.5508 2.02531 62.2432 3.23853C60.3145 4.24482 58.5134 5.46799 56.8766 6.88302Z" fill="#683B13"/>
<path d="M19.3183 48.6799C15.9608 47.9519 11.9563 46.412 11.0015 43.1646C10.5988 41.7968 10.7029 39.9172 16.0332 30.6913C16.546 29.8089 17.0634 28.9264 17.5852 28.044L16.8929 28.997C16.5943 29.4382 16.1237 30.0957 15.6079 30.9075C13.8056 33.7339 12.2901 36.7248 11.083 39.8378C11.0509 39.9224 10.9996 39.9989 10.933 40.0616C10.8665 40.1242 10.7862 40.1714 10.6984 40.1996C10.6159 40.2311 10.5271 40.2431 10.439 40.2346C10.3509 40.2262 10.2661 40.1976 10.1916 40.1511L9.0513 39.326C8.93921 39.245 8.85793 39.1299 8.82025 38.9989C8.78256 38.8679 8.79062 38.7284 8.84315 38.6024C10.913 33.3952 13.7862 28.5269 17.3635 24.1656C19.721 21.3021 25.9608 13.7043 36.9834 9.31854C43.2144 6.81828 49.955 5.76107 56.6757 6.22999C58.3074 4.85494 60.0906 3.66075 61.9925 2.66933C64.3548 1.44053 66.886 0.548983 69.5083 0.0220006C69.6336 -0.00426913 69.7643 0.0120451 69.8787 0.0682318C69.9931 0.124419 70.0843 0.217094 70.1373 0.330856L70.549 1.178C70.5869 1.26136 70.6065 1.35154 70.6065 1.44273C70.6065 1.53392 70.5869 1.62411 70.549 1.70747C70.5113 1.79002 70.4551 1.86334 70.3847 1.92211C70.3143 1.98087 70.2313 2.0236 70.1418 2.04721C68.6624 2.41712 67.2275 2.93922 65.8613 3.60472L65.7572 3.65767C67.9654 3.33466 70.2206 3.52207 72.3409 4.20478C73.5174 4.60188 77.3183 5.96967 76.9653 7.21832C76.7934 7.78309 76.1237 7.81397 75.902 7.82279C75.8016 7.82665 75.7019 7.80538 75.6124 7.76102C73.9496 6.90921 72.142 6.35905 70.2775 6.13733C68.4861 5.89299 66.6629 5.99342 64.911 6.43295C64.6712 6.49472 64.4269 6.56531 64.187 6.64032C68.2202 7.17064 72.1761 8.15831 75.9744 9.58327C82.5368 12.0803 88.5394 15.7966 93.6486 20.5256C95.569 22.298 97.3592 24.2 99.0061 26.2173C99.0857 26.3207 99.1313 26.4452 99.137 26.5743C99.1427 26.7035 99.108 26.8313 99.0377 26.9409L98.4133 27.9072C98.3687 27.978 98.3095 28.0388 98.2393 28.086C98.1692 28.1331 98.0897 28.1654 98.0061 28.1808C97.926 28.1919 97.8444 28.1866 97.7665 28.1653C97.6886 28.1441 97.6161 28.1073 97.5536 28.0572C96.902 27.5145 96.2413 26.9806 95.5807 26.4644C94.721 25.7937 93.8477 25.1363 92.9608 24.4921C96.2634 28.406 98.3735 33.1449 99.0513 38.17C99.2677 39.9524 99.2965 41.7516 99.1373 43.5397C99.1273 43.6326 99.0971 43.7224 99.0487 43.803C99.0003 43.8837 98.9349 43.9533 98.8567 44.0074C96.3175 45.7006 93.4104 46.797 90.3635 47.2106C88.2538 47.4833 86.1119 47.4057 84.0287 46.9812C83.8886 46.9427 83.7668 46.8577 83.6841 46.7409C83.6015 46.624 83.5633 46.4828 83.5762 46.3414C83.6124 45.9267 83.6395 45.5031 83.6622 45.0839C83.611 45.147 83.5475 45.1995 83.4752 45.2381C83.4029 45.2768 83.3234 45.3009 83.2413 45.309L82.3364 45.3884C82.1915 45.3982 82.048 45.3554 81.9336 45.2682C81.8191 45.1811 81.7418 45.0557 81.7165 44.9163L80.7346 39.9084L81.187 45.6443C81.1959 45.7855 81.1562 45.9255 81.0742 46.0422C80.9923 46.1588 80.8727 46.2455 80.7346 46.2885C76.2097 47.6474 67.4359 49.3506 59.2685 45.4678C57.273 44.5236 53.9382 42.9352 51.5536 39.1275C50.9937 38.2239 50.5254 37.2693 50.1554 36.2772L50.0558 40.3496C50.0546 40.4981 49.9979 40.641 49.8962 40.7515C49.7946 40.862 49.655 40.9325 49.5038 40.9497L48.3137 41.06C48.2296 41.065 48.1454 41.0518 48.0672 41.0213C47.9889 40.9908 47.9186 40.9437 47.8613 40.8835C47.8014 40.8172 47.7568 40.7392 47.7302 40.6548C47.7037 40.5704 47.6959 40.4814 47.7074 40.3938C48.9925 30.1574 47.0784 22.0522 42.9337 20.2167C41.9067 19.8028 40.7886 19.651 39.6848 19.7755C38.6576 19.9167 35.54 20.3402 30.911 29.3147C27.7826 35.4565 25.6546 42.0361 24.6033 48.8167C24.5832 48.964 24.5078 49.0988 24.3916 49.195C24.2754 49.2912 24.1267 49.3419 23.9744 49.3373C22.4073 49.2357 20.8506 49.0159 19.3183 48.6799ZM22.2051 21.3859C22.2977 21.4053 22.3835 21.4478 22.454 21.5095C22.5655 21.6089 22.6375 21.7435 22.6574 21.8895C22.6773 22.0356 22.6437 22.1838 22.5626 22.3081C20.6531 25.2202 18.7934 28.2381 17.0332 31.2914C11.54 40.8041 11.9201 42.0969 12.1237 42.7984C13.3364 46.9327 21.1735 47.8725 23.4585 48.0622C24.5576 41.3469 26.6935 34.8326 29.7934 28.7411C34.2051 20.177 37.4404 18.818 39.4857 18.5312C40.8028 18.3822 42.137 18.5676 43.359 19.0695C46.4993 20.4594 48.4947 24.6819 49.0603 30.6031C49.0639 30.4442 49.1304 30.2929 49.2461 30.181C49.3617 30.0691 49.5173 30.0052 49.6803 30.003C49.8351 30.0065 49.9824 30.0689 50.0907 30.1769C50.1989 30.2849 50.2595 30.43 50.2594 30.581C50.2973 33.3425 51.0774 36.046 52.5219 38.4215C54.7255 41.9513 57.8748 43.4382 59.7617 44.3295C67.3002 47.9122 75.4495 46.5091 79.9201 45.2119L78.7934 30.003C78.7804 29.8507 78.8253 29.6991 78.9196 29.577C79.0139 29.4549 79.151 29.371 79.3047 29.3412C79.4564 29.3182 79.6112 29.3544 79.7357 29.4419C79.8602 29.5295 79.9443 29.6613 79.9698 29.8089L81.6984 38.6333L80.4178 30.0471C80.3938 29.9059 80.4208 29.7609 80.4943 29.637C80.5677 29.5131 80.6831 29.4179 80.8205 29.3676C80.9537 29.319 81.1007 29.3211 81.2323 29.3734C81.364 29.4258 81.4706 29.5245 81.5309 29.65C83.147 32.8069 84.2012 36.2086 84.6486 39.7099C84.9079 41.75 84.964 43.8098 84.816 45.8605C86.6088 46.1732 88.4405 46.2134 90.2459 45.9796C93.005 45.6064 95.6439 44.6371 97.9698 43.1426C98.0959 41.5415 98.0611 39.9322 97.8658 38.3377C96.7798 29.7074 91.1192 23.8259 87.8386 21.0506C87.7219 20.9494 87.6473 20.81 87.6289 20.6587C87.6106 20.5075 87.6498 20.3549 87.7391 20.2299C87.8217 20.1046 87.9518 20.0162 88.1009 19.984C88.2501 19.9518 88.4063 19.9783 88.5355 20.0579C91.2209 21.7351 93.8114 23.5526 96.2956 25.5025C96.7888 25.8908 97.2911 26.2923 97.7843 26.6982C96.248 24.8466 94.585 23.0984 92.807 21.4654C87.8147 16.832 81.9475 13.1878 75.5309 10.7349C71.0906 9.06754 66.4333 8.01313 61.6938 7.60218C61.5636 7.58746 61.4418 7.53165 61.3471 7.44325C61.2523 7.35484 61.1898 7.23868 61.1689 7.11243C61.1464 6.98291 61.1661 6.84976 61.2254 6.73178C61.2847 6.61381 61.3805 6.51699 61.4993 6.45501C64.0681 5.11868 66.9878 4.56097 69.8839 4.85337C67.3757 4.54737 64.8289 4.81475 62.445 5.63434C62.3096 5.67758 62.1626 5.66986 62.0328 5.6127C61.903 5.55554 61.7998 5.45308 61.7436 5.32548C61.6827 5.19476 61.6697 5.04761 61.7068 4.90866C61.7439 4.76971 61.8287 4.64739 61.9472 4.56217C63.0288 3.78105 64.1779 3.0931 65.3816 2.50608L65.7572 2.32518C64.648 2.73586 63.5673 3.21633 62.5219 3.76356C60.6385 4.75269 58.8774 5.94884 57.273 7.32863C57.2128 7.38329 57.1412 7.4246 57.0631 7.44973C56.985 7.47487 56.9023 7.48322 56.8205 7.47423C50.1996 6.96657 43.549 7.98217 37.4042 10.4392C26.6893 14.7103 20.5762 22.1316 18.2775 24.9245C14.8878 29.0589 12.1432 33.6591 10.1327 38.5759L10.2956 38.6862C11.4805 35.7533 12.9328 32.93 14.635 30.2501C15.1644 29.4206 15.6486 28.7235 15.9563 28.2866C17.6576 25.8799 19.573 23.6238 21.6803 21.5448C21.7474 21.478 21.8305 21.4285 21.9221 21.4008C22.0138 21.3731 22.111 21.368 22.2051 21.3859ZM82.3047 34.7505L83.6622 43.9147C83.6721 42.5743 83.5935 41.2346 83.4269 39.904C83.2137 38.1581 82.8443 36.4337 82.3228 34.7505H82.3047Z" fill="#1D1E1C"/>
<path d="M94.1192 46.2399C93.9985 46.2111 93.8901 46.1463 93.809 46.0545C93.7279 45.9628 93.6782 45.8487 93.6667 45.7281C92.9653 39.6525 91.2413 35.5491 89.8567 32.2532C87.9834 27.7924 85.4223 21.6947 79.3047 16.859C75.7943 14.0969 71.679 12.1599 67.2775 11.1981C67.1211 11.1578 66.9868 11.0599 66.9029 10.9249C66.819 10.79 66.7922 10.6286 66.828 10.4747C66.8637 10.3208 66.9594 10.1865 67.0947 10.1001C67.2301 10.0136 67.3946 9.98174 67.5535 10.0112C72.1179 11.0084 76.3852 13.018 80.0241 15.8839C86.359 20.9182 89.0106 27.1791 90.9517 31.7678C92.368 35.1432 94.1192 39.3348 94.8522 45.5825C94.8709 45.7408 94.827 45.9001 94.7295 46.0279C94.632 46.1558 94.4882 46.2426 94.3273 46.2708C94.2568 46.2698 94.1868 46.2594 94.1192 46.2399Z" fill="#1D1E1C"/>
<path d="M80.4152 45.1765C80.2875 45.1454 80.1739 45.074 80.0921 44.9735C80.0102 44.873 79.9648 44.7489 79.9627 44.6206C79.7546 39.1053 78.4378 30.9427 73.3518 23.261C71.2116 20.0401 67.6369 14.6528 60.8179 12.1114C59.0737 11.459 57.2473 11.039 55.388 10.8627C55.2308 10.844 55.0877 10.7651 54.9901 10.6435C54.8926 10.5218 54.8485 10.3674 54.8677 10.2141C54.8815 10.0572 54.9581 9.9119 55.0808 9.80955C55.2036 9.70719 55.3627 9.65599 55.5238 9.66699C57.4912 9.85683 59.4238 10.302 61.2704 10.9907C68.4378 13.6645 72.1301 19.2459 74.3609 22.5815C79.6052 30.4838 80.9582 38.9067 81.1754 44.5676C81.1831 44.7258 81.1283 44.8808 81.0222 45.0007C80.9161 45.1206 80.7668 45.1961 80.6052 45.2118C80.5402 45.2114 80.4758 45.1994 80.4152 45.1765Z" fill="#1D1E1C"/>
<path d="M68.5077 45.1457C68.4205 45.1256 68.339 45.0866 68.2692 45.0316C68.1995 44.9766 68.1434 44.907 68.105 44.828C66.5307 41.5581 65.2455 38.163 64.2634 34.6799C63.6937 32.7186 63.2405 30.7268 62.9059 28.7146C62.617 26.7035 62.0916 24.7315 61.3403 22.8375C60.0326 19.5195 58.0598 14.5073 53.467 12.7291C52.1526 12.225 50.7412 12.0067 49.3313 12.0894C49.1744 12.093 49.0223 12.0362 48.908 11.9313C48.7937 11.8265 48.7263 11.6819 48.7204 11.529C48.7143 11.4473 48.7251 11.3651 48.7523 11.2875C48.7795 11.21 48.8225 11.1386 48.8787 11.0776C48.9349 11.0166 49.0032 10.9673 49.0794 10.9327C49.1556 10.898 49.2382 10.8788 49.3222 10.876C50.9017 10.7823 52.4831 11.0262 53.9557 11.5908C59.0191 13.5542 61.105 18.8533 62.4897 22.361C63.2683 24.3327 63.8148 26.3843 64.1186 28.4763C64.4384 30.4488 64.872 32.4021 65.4173 34.3269C66.3828 37.74 67.6437 41.067 69.1865 44.2721C69.2541 44.4166 69.2637 44.5806 69.2134 44.7316C69.1632 44.8827 69.0567 45.01 68.915 45.0883C68.791 45.1554 68.6461 45.1758 68.5077 45.1457Z" fill="#1D1E1C"/>
<path d="M17.6788 46.7166H17.6471C17.4923 46.6706 17.3623 46.5671 17.2852 46.4283C17.2082 46.2896 17.1902 46.1269 17.2353 45.9753C18.5662 41.0984 20.4591 36.3841 22.8778 31.9224C26.3937 25.4144 30.8009 17.3224 39.6426 13.6779C42.0582 12.6768 44.6297 12.0802 47.2489 11.913C47.3267 11.9101 47.4044 11.9221 47.4775 11.9485C47.5506 11.9748 47.6176 12.015 47.6748 12.0666C47.7319 12.1182 47.7781 12.1803 47.8106 12.2494C47.8431 12.3184 47.8614 12.3931 47.8643 12.469C47.872 12.6271 47.8172 12.7822 47.7111 12.9021C47.605 13.0219 47.4557 13.0975 47.2941 13.1132C44.8028 13.2619 42.3551 13.8198 40.0543 14.7633C31.6064 18.2666 27.3258 26.1424 23.8869 32.4695C21.519 36.8487 19.6642 41.4739 18.3575 46.2577C18.3238 46.4032 18.2354 46.531 18.1097 46.6159C17.984 46.7009 17.8303 46.7368 17.6788 46.7166Z" fill="#1D1E1C"/>
<path d="M59.0239 43.8484C58.9415 43.8295 58.8644 43.7933 58.798 43.7422C58.7315 43.6911 58.6773 43.6265 58.6393 43.5528C57.2812 41.0236 56.2013 38.3615 55.4175 35.6108C55.0918 34.4548 54.6438 32.1516 53.7479 27.5673L53.5985 26.8173C52.8067 22.7492 52.4447 20.8961 51.2773 18.5091C50.7486 17.4334 50.1327 16.4007 49.4356 15.4205C49.3418 15.2891 49.303 15.1276 49.3274 14.9693C49.3519 14.8109 49.4375 14.6676 49.5669 14.5689C49.6853 14.4764 49.8364 14.4333 49.9873 14.449C50.1382 14.4647 50.2766 14.5379 50.3723 14.6528L50.3994 14.6881C51.1375 15.7148 51.7868 16.7995 52.3406 17.9311C53.5804 20.4637 53.9786 22.4933 54.766 26.5393L54.9153 27.2938C55.8203 31.8428 56.2727 34.1283 56.5623 35.2358C57.3175 37.9108 58.3642 40.4994 59.6845 42.9571C59.7588 43.0995 59.7753 43.2639 59.7309 43.4176C59.6864 43.5713 59.5843 43.7031 59.4447 43.7866C59.3157 43.8532 59.1673 43.875 59.0239 43.8484Z" fill="#1D1E1C"/>
</g>
<defs>
<clipPath id="clip0_1_2605">
<rect width="112" height="202" fill="white"/>
</clipPath>
</defs>
</svg>
