<svg width="120" height="99" viewBox="0 0 120 99" fill="none" xmlns="http://www.w3.org/2000/svg">
<path d="M119.845 1.53463C120.14 1.0679 120.001 0.450177 119.535 0.154911C119.068 -0.140355 118.45 -0.00135565 118.155 0.465374L119.845 1.53463ZM32.353 89.8264L32.5181 90.8127L32.353 89.8264ZM0.0182695 92.7873L10.0155 98.5656L10.021 87.0186L0.0182695 92.7873ZM118.155 0.465374C108.925 15.0545 97.9428 35.3716 83.9247 53.0074C69.9132 70.6347 53.0389 85.3488 32.1878 88.8401L32.5181 90.8127C54.1064 87.1979 71.3772 72.0071 85.4903 54.2519C99.5966 36.5052 110.718 15.9621 119.845 1.53463L118.155 0.465374ZM32.1878 88.8401C21.388 90.6485 13.9342 91.4606 8.95129 91.7938L9.08474 93.7893C14.1481 93.4507 21.6691 92.6292 32.5181 90.8127L32.1878 88.8401Z" fill="#F7A81A"/>
</svg>
