<svg style="display: none;" aria-hidden="true" xmlns="http://www.w3.org/2000/svg" xmlns:xlink="http://www.w3.org/1999/xlink"><symbol viewBox="0 0 304 303" fill="none" id="svg-plate-left" xmlns="http://www.w3.org/2000/svg"><path d="M231.6 228.8c105.1 47 6 77.6-62 48.4-5.8 28-39.7 49.9-128.3-87-88.6-136.7 3-121 44.2-66.1C109.7-96.3 175.7 39 156 134c178-211 149.8-26.4 53.2 51.7 135.8-66.4 96.3 25 22.5 43Z" fill="#8EB65F" stroke="#B9E18A" stroke-width="8" stroke-linecap="round" stroke-linejoin="round"/><path d="M121 222.7 254 76.4m-125.5 164 146.8-58m-165 36 18-179" stroke="#B9E18A" stroke-width="3" stroke-linecap="round"/></symbol><symbol viewBox="0 0 458 411" fill="none" id="svg-plate-right" xmlns="http://www.w3.org/2000/svg"><path d="M148 302.5c-122.2 24.3-23.6 82 55.2 67.5 0 31.6 31.1 63.5 155.8-61.6 124.7-125.1 23.7-131-32.3-82.2 23.4-243.2-77-114-77-6.7C107.2-52 96.1 153.7 181.5 261.8c-129.6-105.2-108 3-33.6 40.7Z" fill="#8EB65F" stroke="#B9E18A" stroke-width="8" stroke-linecap="round" stroke-linejoin="round"/><path d="m156 132 109 189M111 242l149 87M304 123l-30 195M121 339h141" stroke="#B9E18A" stroke-width="3" stroke-linecap="round"/></symbol></svg>