<svg style="display: none;" aria-hidden="true" xmlns="http://www.w3.org/2000/svg" xmlns:xlink="http://www.w3.org/1999/xlink"><symbol viewBox="0 0 199 277" fill="none" id="svg-plate-left" xmlns="http://www.w3.org/2000/svg">
<path d="M127.27 228.487C232.377 275.381 133.279 306.026 65.2587 276.846C59.4186 304.868 25.5827 326.713 -63.0408 189.922C-151.664 53.1306 -59.9746 68.8507 -18.8166 123.718C5.34821 -96.6854 71.325 38.6355 51.5812 133.825C229.591 -77.2863 201.339 107.305 104.739 185.419C240.493 119.094 201.014 210.519 127.27 228.487Z" fill="#8EB65F" stroke="#B9E18A" stroke-width="8" stroke-linecap="round" stroke-linejoin="round"/>
<path d="M16.5469 222.312L149.566 76.0018M24.1094 240.051L170.902 182.045M6 218L24.0257 39.0015" stroke="#B9E18A" stroke-width="3" stroke-linecap="round"/>
</symbol><symbol viewBox="0 0 305 365" fill="none" id="svg-plate-right" xmlns="http://www.w3.org/2000/svg">
<path d="M148.043 302.496C25.8181 326.777 124.397 384.421 203.234 369.964C203.21 401.565 234.335 433.493 359.034 308.39C483.733 183.287 382.716 177.37 326.731 226.152C350.078 -16.9884 249.793 112.171 249.609 219.498C107.263 -51.9513 96.2329 153.678 181.59 261.77C51.9663 156.613 73.6088 264.803 148.043 302.496Z" fill="#8EB65F" stroke="#B9E18A" stroke-width="8" stroke-linecap="round" stroke-linejoin="round"/>
<path d="M156 132L265 321" stroke="#B9E18A" stroke-width="3" stroke-linecap="round"/>
<path d="M111 242L260 329" stroke="#B9E18A" stroke-width="3" stroke-linecap="round"/>
<path d="M304 123L274 318" stroke="#B9E18A" stroke-width="3" stroke-linecap="round"/>
<path d="M121 339H262" stroke="#B9E18A" stroke-width="3" stroke-linecap="round"/>
</symbol></svg>